<svg width="42" height="37" viewBox="0 0 42 37" fill="none" xmlns="http://www.w3.org/2000/svg">
<g clip-path="url(#clip0)">
<path d="M25.8931 26.2226L20.7705 23.2552L25.8931 20.2847L29.2381 26.2226H25.8931Z" fill="#F5F2E8"/>
<path d="M11.0089 36.8608L3.38135 32.4386L18.7703 23.521L14.3539 36.8608H11.0089Z" fill="#D5DBDC"/>
<path d="M11.9376 25.8224L4.23096 21.3544L11.5663 17.1003L15.2826 25.8224H11.9376Z" fill="#D5DBDC"/>
<path d="M22.6175 4.68335V21.5712L19.3273 23.4782L18.5055 23.955L15.2822 25.8222V8.93435L18.5055 7.06709L19.3273 6.59034L22.6175 4.68335Z" fill="#C99A6B"/>
<path d="M15.2823 8.93454V25.8224L11.7912 23.7993L10.9664 23.3195L7.57568 21.3544V4.46655L10.9664 6.43467L11.7912 6.91141L15.2823 8.93454Z" fill="#AE835B"/>
<path d="M14.8348 11.0585L13.3921 10.2211V8.55249L14.8348 9.38374V11.0585ZM13.4834 10.1661L14.7405 10.8934V9.44487L13.4834 8.71752V10.1661Z" fill="#87623F"/>
<path d="M14.2687 10.5268L13.9521 10.3404V9.5L14.2687 9.68642V10.5268Z" fill="#87623F"/>
<path d="M14.5849 10.0255L13.6353 9.47845L14.1101 9.17896L14.5849 10.0255Z" fill="#87623F"/>
<path d="M15.2823 8.93762L7.57568 4.46658L14.911 0.215576L22.6176 4.68356L15.2823 8.93762Z" fill="#E8B687"/>
<path d="M18.5051 7.07035L10.7954 2.59931L11.6172 2.12256L19.3269 6.59054L18.5051 7.07035Z" fill="#EBCBAB"/>
<path d="M11.7916 6.91132V23.7992L10.9668 23.3194V6.43457L11.7916 6.91132Z" fill="#9C754E"/>
<g style="mix-blend-mode:screen">
<path d="M11.7916 6.91147L19.127 2.66047L18.3021 2.18066L10.9668 6.43472L11.7916 6.91147Z" fill="#54493E"/>
</g>
<path d="M7.57568 4.46655L15.2823 8.93759L11.2251 6.7036L7.57568 4.46655Z" fill="#87623F"/>
<path d="M22.6175 4.68335L15.2822 8.93741L19.3395 6.70342L22.6175 4.68335Z" fill="#87623F"/>
<path d="M11.1553 2.39446L11.2131 2.36084L14.9903 4.54899L18.6884 2.40668L18.7463 2.43724L15.0451 4.58261L18.9197 6.82883L18.8619 6.86244L14.9873 4.61623L11.4109 6.6913L11.3531 6.65769L14.9325 4.58261L11.1553 2.39446Z" fill="#D1A986"/>
<path d="M19.3277 6.59033V23.4782L18.5059 23.955V7.06708L19.3277 6.59033Z" fill="#D9AF84"/>
<path d="M29.2378 26.2227L34.3573 23.2553V17.354L29.2378 20.3215V26.2227Z" fill="#C99A6B"/>
<path d="M34.3573 17.354L29.2378 20.3215L32.0015 18.8362L34.3573 17.354Z" fill="#87623F"/>
<path d="M29.2378 26.2227L24.1152 23.2553V17.354L29.2378 20.3215V26.2227Z" fill="#AE835B"/>
<path d="M28.915 21.6936L27.8345 21.0823V19.8232L28.915 20.4345V21.6936ZM27.9136 21.0273L28.8541 21.5713V20.4895L27.9136 19.9455V21.0273Z" fill="#87623F"/>
<path d="M28.5046 21.2964L28.2642 21.1588V20.5293L28.5046 20.6668V21.2964Z" fill="#87623F"/>
<path d="M28.739 20.9234L28.0298 20.5139L28.3829 20.2908L28.739 20.9234Z" fill="#87623F"/>
<path d="M29.2378 20.3215L24.1152 17.3541L29.2378 14.3835L34.3573 17.3541L29.2378 20.3215Z" fill="#E8B687"/>
<path d="M31.5449 21.3146L32.3667 20.8379V18.5061L31.5449 18.9829V21.3146Z" fill="#D9AF84"/>
<path d="M31.5449 18.9828L26.4224 16.0153L27.2472 15.5386L32.3667 18.506L31.5449 18.9828Z" fill="#EBCBAB"/>
<path d="M24.1152 17.354L29.2378 20.3215L26.4741 18.8362L24.1152 17.354Z" fill="#87623F"/>
<path d="M27.0161 21.3636L26.1943 20.8868V18.5581L27.0161 19.0349V21.3636Z" fill="#9C754E"/>
<g style="mix-blend-mode:screen">
<path d="M27.0161 19.0349L32.1356 16.0644L31.3138 15.5876L26.1943 18.5582L27.0161 19.0349Z" fill="#54493E"/>
</g>
<path d="M26.636 18.8147L31.7555 15.8442L31.7007 15.8105L26.5781 18.7811L26.636 18.8147Z" fill="#D1A986"/>
<path d="M26.5781 18.7813L29.2992 17.2043L26.8368 15.7771L26.8855 15.7466L29.3479 17.1738L31.7007 15.8108L31.7555 15.8444L29.4057 17.2074L32.0081 18.7171L31.9594 18.7446L29.357 17.2349L26.636 18.8149L26.5781 18.7813Z" fill="#D1A986"/>
<path d="M27.0161 19.0349V19.1296L26.5139 18.8607L26.1943 18.659V18.5581L27.0161 19.0349Z" fill="#AE835B"/>
<path d="M32.0015 18.8362L31.5449 19.0807V18.9829L32.3667 18.5061V18.607L32.0015 18.8362Z" fill="#AE835B"/>
<path d="M36.877 30.3668L41.9995 27.3994V23.7107L36.877 26.6781V30.3668Z" fill="#C99A6B"/>
<path d="M36.8769 30.3668L31.7544 27.3994V23.7107L36.8769 26.6781V30.3668Z" fill="#AE835B"/>
<path d="M36.5395 28.1419L35.459 27.5307V26.2686L36.5395 26.8798V28.1419ZM35.532 27.4726L36.4695 28.0258V26.9378L35.532 26.3939V27.4726Z" fill="#87623F"/>
<path d="M36.1197 27.7418L35.8823 27.6043V26.9778L36.1197 27.1153V27.7418Z" fill="#87623F"/>
<path d="M36.3542 27.3718L35.645 26.9622L36.0011 26.7361L36.3542 27.3718Z" fill="#87623F"/>
<path d="M36.8769 26.6781L31.7544 23.7106L36.8769 20.7432L41.9995 23.7106L36.8769 26.6781Z" fill="#E8B687"/>
<path d="M34.6768 27.7355L33.855 27.2588V24.927L34.6768 25.4038V27.7355Z" fill="#9C754E"/>
<g style="mix-blend-mode:screen">
<path d="M34.6768 25.4039L39.7993 22.4365L38.9775 21.9597L33.855 24.9272L34.6768 25.4039Z" fill="#54493E"/>
</g>
<path d="M31.7544 23.7107L36.8769 26.6781L34.1133 25.1959L31.7544 23.7107Z" fill="#87623F"/>
<path d="M34.2965 25.1837L39.419 22.2132L39.3612 22.1826L34.2417 25.1501L34.2965 25.1837Z" fill="#D1A986"/>
<path d="M5.12254 28.6677L0 25.6972L5.12254 22.7297L8.46757 28.6677H5.12254Z" fill="#D5DBDC"/>
<path d="M8.46729 28.6676L13.5868 25.6971V19.7988L8.46729 22.7663V28.6676Z" fill="#C99A6B"/>
<path d="M8.46824 28.6676L3.3457 25.6971V19.7988L8.46824 22.7663V28.6676Z" fill="#AE835B"/>
<path d="M8.11469 24.1661L7.03418 23.5396V22.2927L8.11469 22.9192V24.1661ZM7.10723 23.4999L8.04469 24.053V22.962L7.10723 22.418V23.4999Z" fill="#87623F"/>
<path d="M7.69493 23.7655L7.45752 23.628V23.0015L7.69493 23.139V23.7655Z" fill="#87623F"/>
<path d="M7.92928 23.396L7.22314 22.9865L7.57621 22.7634L7.92928 23.396Z" fill="#87623F"/>
<path d="M8.46825 22.7666L3.3457 19.7991L8.46825 16.8286L13.5877 19.7991L8.46825 22.7666Z" fill="#E8B687"/>
<path d="M10.7749 23.7595L11.5967 23.2827V20.9509L10.7749 21.4277V23.7595Z" fill="#D9AF84"/>
<path d="M10.7749 21.4276L5.65234 18.4601L6.47414 17.9834L11.5967 20.9509L10.7749 21.4276Z" fill="#EBCBAB"/>
<path d="M11.1548 21.2079L6.03223 18.2404L6.08093 18.2129L11.2004 21.1803L11.1548 21.2079Z" fill="#D1A986"/>
<path d="M3.3457 19.7988L8.46824 22.7663L5.70457 21.281L3.3457 19.7988Z" fill="#87623F"/>
<path d="M14.3535 36.861L29.7425 27.9403V25.8958L14.3535 34.8164V36.861Z" fill="#C99A6B"/>
<path d="M14.3541 36.8608L6.72656 32.4387V30.3972L14.3541 34.8163V36.8608Z" fill="#AE835B"/>
<path d="M14.0435 35.9165L13.1304 35.3878V34.3335L14.0435 34.8653V35.9165ZM13.1912 35.3603L13.9826 35.8218V34.905L13.1912 34.4435V35.3603Z" fill="#87623F"/>
<path d="M13.6872 35.5803L13.4863 35.4641V34.9324L13.6872 35.0485V35.5803Z" fill="#87623F"/>
<path d="M13.8851 35.2658L13.2886 34.9204L13.5869 34.731L13.8851 35.2658Z" fill="#87623F"/>
<path d="M14.3541 34.8163L6.72656 30.3973L22.1155 21.4766L29.743 25.8957L14.3541 34.8163Z" fill="#E8B687"/>
<path d="M21.7964 32.0874L22.6182 31.6106V30.0276L21.7964 30.5043V32.0874Z" fill="#D9AF84"/>
<path d="M21.796 30.5044L14.1685 26.0822L14.9933 25.6055L22.6178 30.0276L21.796 30.5044Z" fill="#EBCBAB"/>
<path d="M6.72656 30.3972L14.3541 34.8163L10.3394 32.6068L6.72656 30.3972Z" fill="#87623F"/>
<path d="M10.881 34.3855L10.0562 33.9087V32.3257L10.881 32.8024V34.3855Z" fill="#9C754E"/>
<g style="mix-blend-mode:screen">
<path d="M10.881 32.8025L26.2699 23.8818L25.4451 23.405L10.0562 32.3257L10.881 32.8025Z" fill="#54493E"/>
</g>
<path d="M10.5007 32.5825L25.8896 23.6618L25.8318 23.6282L10.4429 32.5519L10.5007 32.5825Z" fill="#D1A986"/>
<path d="M10.881 32.8024V32.9002L10.3788 32.6313L10.0562 32.4296V32.3257L10.881 32.8024Z" fill="#D1A986"/>
<g style="mix-blend-mode:multiply">
<path d="M21.7963 28.2703H18.7526L14.5767 25.8468L19.1848 23.1758L21.7963 28.2703Z" fill="#D9C5B2"/>
</g>
<path d="M21.7964 28.2703L26.9189 25.2997V22.8396L21.7964 25.8101V28.2703Z" fill="#C99A6B"/>
<path d="M21.7959 28.2703L16.6733 25.2997V22.8396L21.7959 25.8101V28.2703Z" fill="#AE835B"/>
<path d="M21.5435 27.0142L20.6304 26.4855V25.4312L21.5435 25.9599V27.0142ZM20.6973 26.4488L21.4887 26.9103V25.9935L20.6973 25.5351V26.4488Z" fill="#87623F"/>
<path d="M21.1877 26.6782L20.9868 26.559V26.0303L21.1877 26.1464V26.6782Z" fill="#87623F"/>
<path d="M21.3851 26.3634L20.7886 26.015L21.0869 25.8286L21.3851 26.3634Z" fill="#87623F"/>
<path d="M21.7959 25.81L16.6733 22.8395L21.7959 19.8721L26.9184 22.8395L21.7959 25.81Z" fill="#E8B687"/>
<path d="M24.103 26.8034L24.9248 26.3236V23.9949L24.103 24.4716V26.8034Z" fill="#D9AF84"/>
<path d="M24.1029 24.4717L18.9834 21.5012L19.8052 21.0244L24.9247 23.9949L24.1029 24.4717Z" fill="#EBCBAB"/>
<path d="M16.6733 22.8396L21.7959 25.8101L19.0322 24.3249L16.6733 22.8396Z" fill="#87623F"/>
<path d="M19.5737 26.8522L18.752 26.3755V24.0437L19.5737 24.5204V26.8522Z" fill="#9C754E"/>
<g style="mix-blend-mode:screen">
<path d="M19.5738 24.5204L24.6963 21.5529L23.8714 21.0762L18.752 24.0436L19.5738 24.5204Z" fill="#54493E"/>
</g>
<path d="M19.1387 24.267L21.8567 22.69L19.3943 21.2629L19.443 21.2354L21.9084 22.6625L24.2582 21.2995L24.316 21.3301L21.9632 22.6962L24.5656 24.2028L24.5169 24.2303L21.9145 22.7237L19.1935 24.3006L19.1387 24.267Z" fill="#D1A986"/>
<path d="M19.5737 24.5205V24.6183L19.0715 24.3493L18.752 24.1446V24.0437L19.5737 24.5205Z" fill="#D1A986"/>
<path d="M26.9189 22.8396L21.7964 25.8101L24.5601 24.3249L26.9189 22.8396Z" fill="#87623F"/>
<path d="M24.5596 24.3249L24.103 24.5694V24.4716L24.9248 23.9949V24.0927L24.5596 24.3249Z" fill="#D1A986"/>
</g>
<defs>
<clipPath id="clip0">
<rect width="42" height="36.6454" fill="white" transform="translate(0 0.215332)"/>
</clipPath>
</defs>
</svg>
