<svg width="39" height="28" viewBox="0 0 39 28" fill="none" xmlns="http://www.w3.org/2000/svg">
<path d="M13.5134 18.2139L14.6066 16.7333L14.0394 16.4529C13.9535 16.4231 13.8597 16.4118 13.767 16.4202C13.6743 16.4285 13.5858 16.4562 13.51 16.5006C13.2901 16.6141 13.1066 16.7687 12.9745 16.9515C12.8424 17.1344 12.7655 17.3402 12.7502 17.5521C12.7403 17.6246 12.7538 17.6979 12.7894 17.7648C12.825 17.8317 12.8814 17.8899 12.9531 17.9335L13.4928 18.1915L13.5134 18.2139Z" fill="black"/>
<path d="M14.4095 16.826L13.6429 16.4614C13.5958 16.4736 13.5507 16.4905 13.5089 16.5119C13.289 16.6254 13.1055 16.78 12.9734 16.9629C12.8413 17.1457 12.7644 17.3516 12.7491 17.5635C12.7478 17.627 12.7583 17.6903 12.7801 17.7513L13.3713 18.0318C13.4425 18.0158 13.5107 17.9923 13.5742 17.9617C13.6532 17.9231 13.728 17.879 13.7976 17.8299L14.3717 17.0531C14.3923 16.9784 14.4049 16.9024 14.4095 16.826Z" fill="#1F1F1F"/>
<path d="M14.8134 17.1204C14.7958 17.3321 14.7176 17.5375 14.5851 17.7202C14.4526 17.9028 14.2694 18.0575 14.0502 18.1719C13.6343 18.3654 13.2974 18.2112 13.2974 17.8242C13.314 17.6126 13.3914 17.4072 13.5234 17.2245C13.6554 17.0418 13.8382 16.887 14.0571 16.7726C14.4765 16.5763 14.8134 16.7334 14.8134 17.1204Z" fill="#2A2A2A"/>
<path d="M14.7813 17.1313C14.7652 17.3351 14.6905 17.5329 14.5633 17.7087C14.4361 17.8846 14.26 18.0336 14.0491 18.1436C13.6469 18.3315 13.3237 18.1801 13.3272 17.8099C13.3424 17.6063 13.4163 17.4085 13.5429 17.2326C13.6696 17.0567 13.8454 16.9076 14.056 16.7976C14.4582 16.6041 14.7813 16.7612 14.7813 17.1313Z" fill="#1D1D1D"/>
<path d="M14.6207 17.207C14.6107 17.3674 14.554 17.5235 14.4554 17.6625C14.3567 17.8014 14.219 17.9193 14.0535 18.0062C13.7407 18.152 13.4897 18.0371 13.4897 17.7482C13.5014 17.5901 13.5589 17.4365 13.6575 17.3C13.7561 17.1635 13.893 17.048 14.057 16.9631C14.3698 16.8173 14.6207 16.935 14.6207 17.2211V17.207Z" fill="#3B3B3B"/>
<path d="M14.5832 17.2266C14.5706 17.3737 14.5162 17.5165 14.4243 17.6435C14.3325 17.7705 14.2056 17.8784 14.0538 17.9585C13.7616 18.0931 13.5278 17.9837 13.5278 17.7173C13.5394 17.57 13.5933 17.4269 13.6853 17.2998C13.7773 17.1726 13.9047 17.0649 14.0572 16.9854C14.3494 16.848 14.5832 16.9574 14.5832 17.2266Z" fill="#727272"/>
<path d="M14.0497 16.9883C13.8976 17.0689 13.7709 17.1778 13.6801 17.3059C13.5893 17.4341 13.5369 17.578 13.5272 17.7258C13.5235 17.7603 13.5235 17.795 13.5272 17.8295L13.9122 18.0118C13.9559 17.9994 13.9984 17.9844 14.0394 17.9669C14.1893 17.8887 14.3148 17.7831 14.4061 17.6585C14.4974 17.534 14.5519 17.3938 14.5654 17.2491L14.036 16.9967L14.0497 16.9883Z" fill="#A9A9A9"/>
<path d="M13.7512 17.2041C13.6487 17.3158 13.5761 17.4438 13.5381 17.5799L14.1741 17.8827C14.302 17.7897 14.405 17.6761 14.4766 17.549L13.7512 17.2041Z" fill="#E9EAE7"/>
<path d="M13.7512 17.2041C13.6487 17.3158 13.5761 17.4438 13.5381 17.5799L14.1741 17.8827C14.302 17.7897 14.405 17.6761 14.4766 17.549L13.7512 17.2041Z" fill="#E9EAE7"/>
<path d="M14.4823 17.2408C14.4724 17.3679 14.4259 17.4913 14.3464 17.601C14.267 17.7107 14.1568 17.8034 14.025 17.8717C13.7741 17.9895 13.5747 17.8942 13.5747 17.6642C13.584 17.537 13.6303 17.4134 13.7098 17.3037C13.7893 17.1939 13.8997 17.1012 14.0319 17.0333C14.2794 16.9155 14.4823 17.0108 14.4823 17.2408Z" fill="#4D4D4D"/>
<path d="M14.338 17.2352C14.329 17.3343 14.2916 17.4303 14.229 17.5155C14.1663 17.6007 14.08 17.6728 13.9771 17.7259C13.7811 17.8184 13.6333 17.7455 13.6333 17.5605C13.6423 17.4602 13.6796 17.363 13.7422 17.2765C13.8048 17.1899 13.8911 17.1163 13.9943 17.0613C14.1936 16.9688 14.338 17.0417 14.338 17.2268V17.2352Z" fill="#949494"/>
<path d="M14.1732 17.3811C14.1703 17.4256 14.1545 17.4689 14.127 17.5074C14.0995 17.546 14.0611 17.5786 14.0151 17.6026C13.9257 17.6419 13.8569 17.6026 13.8569 17.5297C13.8603 17.4857 13.8764 17.4429 13.9039 17.4049C13.9314 17.3669 13.9695 17.3347 14.0151 17.311C14.1044 17.2689 14.1732 17.311 14.1732 17.3811Z" fill="#C4C4C4"/>
<path d="M14.1255 17.4459C14.1241 17.4697 14.1155 17.493 14.1005 17.5135C14.0856 17.5341 14.0646 17.5513 14.0396 17.5636C13.9914 17.5861 13.9536 17.5637 13.9536 17.5244C13.9563 17.5008 13.9655 17.478 13.9803 17.4576C13.9952 17.4372 14.0154 17.4198 14.0396 17.4066C14.0877 17.3842 14.1255 17.4066 14.1255 17.4459Z" fill="#4D4D4D"/>
<path d="M13.5138 18.2135L13.17 18.0565C13.0991 18.0123 13.0433 17.9541 13.0077 17.8873C12.9722 17.8206 12.9583 17.7475 12.9672 17.6751C12.9805 17.4608 13.0556 17.2521 13.1864 17.066C13.3172 16.8798 13.5 16.7215 13.72 16.6039C13.796 16.5597 13.8847 16.5324 13.9775 16.5245C14.0703 16.5167 14.164 16.5286 14.2495 16.559L14.2116 16.5394C14.1241 16.5117 14.0293 16.503 13.9364 16.5144C13.8436 16.5257 13.756 16.5565 13.6822 16.6039C13.4637 16.7186 13.2812 16.8735 13.1493 17.0561C13.0173 17.2387 12.9397 17.444 12.9225 17.6555C12.9137 17.7283 12.9276 17.8017 12.9631 17.8689C12.9986 17.9361 13.0544 17.9949 13.1253 18.0396L13.4932 18.2163L13.5138 18.2135Z" fill="black"/>
<path d="M13.5135 18.2137L13.3519 18.1352C13.281 18.0904 13.2252 18.0317 13.1897 17.9645C13.1542 17.8973 13.1403 17.8238 13.1491 17.751C13.1658 17.5394 13.2432 17.334 13.3752 17.1513C13.5072 16.9686 13.69 16.8138 13.9088 16.6994C13.9842 16.6544 14.0724 16.6259 14.165 16.6166C14.2577 16.6072 14.3518 16.6174 14.4383 16.6462L14.4004 16.6293C14.3146 16.5981 14.2202 16.5857 14.1267 16.5936C14.0331 16.6015 13.9438 16.6293 13.8676 16.6742C13.6455 16.787 13.4594 16.9411 13.3243 17.1239C13.1893 17.3067 13.1092 17.5129 13.0907 17.7258C13.0814 17.7982 13.0952 17.8714 13.1308 17.9382C13.1663 18.005 13.2223 18.0632 13.2935 18.1071L13.4929 18.2025L13.5135 18.2137Z" fill="black"/>
<path d="M19.7489 16.0717L18.6694 14.5826L19.2504 14.3191C19.3364 14.2898 19.43 14.2788 19.5226 14.2871C19.6152 14.2955 19.7037 14.3229 19.7798 14.3667C19.9977 14.4826 20.179 14.6387 20.3092 14.8223C20.4394 15.006 20.5148 15.2121 20.5292 15.4239C20.538 15.497 20.5237 15.5707 20.4876 15.6379C20.4514 15.7052 20.3948 15.7638 20.323 15.8081L19.7798 16.0632L19.7489 16.0717Z" fill="black"/>
<path d="M18.8652 14.6751L19.6353 14.3162C19.6812 14.3307 19.726 14.3475 19.7693 14.3666C19.9872 14.4825 20.1686 14.6386 20.2988 14.8222C20.429 15.0059 20.5043 15.212 20.5188 15.4238C20.519 15.4884 20.5074 15.5527 20.4844 15.6145L19.8897 15.8949C19.8196 15.8789 19.7526 15.8554 19.6903 15.8248C19.6099 15.7869 19.5349 15.7417 19.4668 15.6902L18.9065 14.9022C18.8821 14.8281 18.8694 14.7518 18.8687 14.6751H18.8652Z" fill="#1F1F1F"/>
<path d="M18.46 14.9665C18.4751 15.1785 18.5511 15.3847 18.6818 15.5683C18.8126 15.752 18.9945 15.9079 19.2128 16.0237C19.6288 16.2228 19.9657 16.0685 19.9691 15.6816C19.9547 15.4697 19.8793 15.2637 19.7491 15.08C19.6189 14.8963 19.4375 14.7403 19.2197 14.6244C18.8037 14.4281 18.4634 14.5795 18.46 14.9665Z" fill="#2A2A2A"/>
<path d="M18.4912 14.9806C18.504 15.1848 18.5762 15.3836 18.7017 15.5606C18.8272 15.7376 19.0025 15.8877 19.2131 15.9985C19.6119 16.1864 19.9385 16.0406 19.9385 15.6676C19.9276 15.4622 19.8568 15.2619 19.7318 15.0834C19.6068 14.9049 19.4314 14.7533 19.22 14.6413C18.8178 14.4506 18.4912 14.5992 18.4912 14.9694V14.9806Z" fill="#1D1D1D"/>
<path d="M18.6538 15.0565C18.6644 15.2149 18.7207 15.3691 18.8181 15.5065C18.9154 15.6439 19.0511 15.7607 19.2141 15.8473C19.5235 15.9931 19.7779 15.8809 19.7779 15.5921C19.7681 15.4335 19.7122 15.279 19.6148 15.1415C19.5173 15.004 19.3812 14.8874 19.2176 14.8013C18.9082 14.6555 18.6538 14.7705 18.6538 15.0565Z" fill="#3B3B3B"/>
<path d="M18.6919 15.0759C18.7024 15.2232 18.7552 15.3664 18.8459 15.494C18.9367 15.6217 19.0629 15.7301 19.2144 15.8106C19.5032 15.948 19.7404 15.8415 19.7404 15.5723C19.7299 15.425 19.6771 15.2818 19.5864 15.1542C19.4956 15.0266 19.3694 14.9181 19.2179 14.8376C18.9291 14.7002 18.6919 14.8067 18.6919 15.0759Z" fill="#727272"/>
<path d="M19.2232 14.8406C19.3732 14.9213 19.4979 15.0295 19.5875 15.1566C19.677 15.2837 19.7288 15.4261 19.7388 15.5725C19.7428 15.607 19.7428 15.6417 19.7388 15.6762L19.3538 15.8557C19.3088 15.8462 19.2659 15.8311 19.2266 15.8108C19.0771 15.7318 18.9522 15.6256 18.8615 15.5006C18.7708 15.3755 18.7169 15.2351 18.7041 15.0901L19.2369 14.8406H19.2232Z" fill="#A9A9A9"/>
<path d="M19.511 15.0588C19.6112 15.1723 19.6825 15.301 19.7207 15.4374L19.0813 15.7346C18.9535 15.641 18.8516 15.5263 18.7822 15.3981L19.511 15.0588Z" fill="#E9EAE7"/>
<path d="M19.511 15.0588C19.6112 15.1723 19.6825 15.301 19.7207 15.4374L19.0813 15.7346C18.9535 15.641 18.8516 15.5263 18.7822 15.3981L19.511 15.0588Z" fill="#E9EAE7"/>
<path d="M18.791 15.0929C18.8009 15.2207 18.8479 15.3447 18.9279 15.4549C19.008 15.5651 19.119 15.6582 19.2517 15.7266C19.5026 15.8444 19.7054 15.7518 19.7054 15.5191C19.6963 15.3918 19.6504 15.268 19.5715 15.1579C19.4927 15.0478 19.3831 14.9544 19.2517 14.8854C19.0007 14.7676 18.7979 14.8601 18.7979 15.0929H18.791Z" fill="#4D4D4D"/>
<path d="M18.9312 15.0871C18.937 15.1868 18.971 15.284 19.0307 15.3711C19.0903 15.4582 19.1739 15.5328 19.2749 15.5891C19.4709 15.6816 19.6187 15.6087 19.6187 15.4264C19.614 15.3266 19.5803 15.229 19.5206 15.1418C19.4609 15.0546 19.3767 14.9801 19.2749 14.9245C19.0755 14.8291 18.9312 14.902 18.9312 15.0871Z" fill="#949494"/>
<path d="M19.0972 15.2359C19.1006 15.2799 19.1167 15.3227 19.1441 15.3607C19.1716 15.3987 19.2097 15.4309 19.2553 15.4546C19.3412 15.4967 19.4134 15.4546 19.4134 15.3845C19.4106 15.34 19.3947 15.2967 19.3672 15.2581C19.3397 15.2196 19.3013 15.187 19.2553 15.163C19.1694 15.1209 19.0972 15.163 19.0972 15.2359Z" fill="#C4C4C4"/>
<path d="M19.144 15.2835C19.1455 15.3078 19.154 15.3314 19.169 15.3524C19.1839 15.3733 19.2049 15.3911 19.23 15.4041C19.238 15.4103 19.2482 15.4142 19.2591 15.4153C19.27 15.4165 19.2811 15.4147 19.2907 15.4103C19.3003 15.4059 19.3079 15.3991 19.3125 15.391C19.317 15.3828 19.3182 15.3736 19.3159 15.3648C19.3145 15.3406 19.3059 15.317 19.291 15.296C19.276 15.275 19.2551 15.2573 19.23 15.2443C19.1819 15.2218 19.144 15.2443 19.144 15.2835Z" fill="#4D4D4D"/>
<path d="M19.7464 16.0715L20.0901 15.9145C20.1616 15.8713 20.2182 15.8137 20.2544 15.7474C20.2905 15.681 20.305 15.6082 20.2964 15.5359C20.2828 15.3239 20.2078 15.1176 20.0775 14.9339C19.9472 14.7501 19.7654 14.5941 19.547 14.4788C19.4715 14.4339 19.3831 14.4057 19.2904 14.3969C19.1977 14.3881 19.1037 14.3989 19.0176 14.4283L19.0554 14.4087C19.1414 14.3794 19.235 14.3684 19.3276 14.3767C19.4202 14.3851 19.5087 14.4125 19.5848 14.4563C19.803 14.5719 19.9847 14.7279 20.1149 14.9116C20.2452 15.0953 20.3203 15.3016 20.3342 15.5135C20.3427 15.5862 20.3282 15.6594 20.2921 15.7262C20.256 15.7929 20.1995 15.851 20.1279 15.8949L19.7601 16.0687L19.7464 16.0715Z" fill="black"/>
<path d="M19.7449 16.0711L19.91 15.9926C19.9815 15.9488 20.038 15.8907 20.0741 15.8239C20.1103 15.7571 20.1247 15.6839 20.1162 15.6112C20.1026 15.3993 20.0276 15.1929 19.8973 15.0092C19.767 14.8254 19.5852 14.6694 19.3668 14.5541C19.2913 14.5092 19.2029 14.4811 19.1102 14.4722C19.0175 14.4634 18.9235 14.4742 18.8374 14.5036L18.8752 14.4868C18.9613 14.4574 19.0553 14.4465 19.148 14.4554C19.2408 14.4642 19.3291 14.4924 19.4046 14.5372C19.6231 14.6526 19.8049 14.8086 19.9351 14.9923C20.0654 15.1761 20.1404 15.3824 20.154 15.5944C20.1622 15.667 20.1476 15.7402 20.1115 15.8069C20.0754 15.8736 20.0191 15.9318 19.9478 15.9758L19.7484 16.0711H19.7449Z" fill="black"/>
<path d="M3.35775 12.9085L2.27832 11.4195L2.84554 11.1531C2.93115 11.1224 3.02514 11.1107 3.11806 11.1191C3.21099 11.1274 3.29958 11.1556 3.37494 11.2007C3.59306 11.3171 3.77456 11.4736 3.90475 11.6578C4.03494 11.8419 4.11017 12.0485 4.12435 12.2607C4.13287 12.3334 4.11839 12.4066 4.08227 12.4734C4.04615 12.5402 3.98962 12.5982 3.91809 12.6421L3.37494 12.8973L3.35775 12.9085Z" fill="black"/>
<path d="M2.47412 11.512L3.24416 11.1531C3.29011 11.1676 3.33489 11.1844 3.37823 11.2036C3.59526 11.3199 3.77581 11.4762 3.90537 11.6598C4.03493 11.8434 4.10988 12.0492 4.1242 12.2607C4.12471 12.3244 4.11311 12.3878 4.08983 12.4486L3.49511 12.729C3.42564 12.7118 3.35876 12.6883 3.29573 12.6589C3.22311 12.6183 3.15522 12.5723 3.0929 12.5215L2.51194 11.7391C2.48755 11.6651 2.47485 11.5887 2.47412 11.512Z" fill="#1F1F1F"/>
<path d="M2.06201 11.8039C2.07629 12.016 2.15195 12.2224 2.2828 12.4062C2.41365 12.5899 2.59598 12.7458 2.81486 12.861C3.23082 13.0573 3.56771 12.9059 3.57115 12.5189C3.55671 12.3071 3.48135 12.101 3.35116 11.9174C3.22096 11.7337 3.0396 11.5776 2.82174 11.4617C2.40578 11.2767 2.06201 11.4169 2.06201 11.8039Z" fill="#2A2A2A"/>
<path d="M2.1001 11.8173C2.11317 12.0211 2.18545 12.2194 2.31097 12.3959C2.43649 12.5724 2.61165 12.722 2.82201 12.8324C3.22078 13.0231 3.54736 12.8745 3.54736 12.5043C3.53454 12.3001 3.4624 12.1014 3.33688 11.9244C3.21136 11.7474 3.03607 11.5973 2.82545 11.4864C2.42668 11.2986 2.1001 11.4444 2.1001 11.8173Z" fill="#1D1D1D"/>
<path d="M2.2627 11.8932C2.27438 12.0507 2.33115 12.2037 2.42846 12.3401C2.52578 12.4764 2.66091 12.5923 2.82304 12.6783C3.13243 12.8242 3.38681 12.7092 3.38681 12.4204C3.37647 12.2622 3.32029 12.1084 3.22288 11.9714C3.12547 11.8344 2.98962 11.7182 2.82647 11.6324C2.51708 11.4866 2.2627 11.5987 2.2627 11.8876V11.8932Z" fill="#3B3B3B"/>
<path d="M2.30078 11.9129C2.31128 12.0601 2.36404 12.2033 2.4548 12.331C2.54555 12.4586 2.67178 12.567 2.82331 12.6475C3.11207 12.785 3.34927 12.6784 3.34927 12.4092C3.33877 12.2619 3.28602 12.1187 3.19526 11.9911C3.1045 11.8635 2.97827 11.755 2.82675 11.6745C2.53798 11.5371 2.30078 11.6437 2.30078 11.9129Z" fill="#727272"/>
<path d="M2.83208 11.6772C2.97974 11.7573 3.10298 11.8639 3.19236 11.9888C3.28174 12.1137 3.33488 12.2536 3.34773 12.3979C3.35166 12.4324 3.35166 12.4671 3.34773 12.5017L2.96271 12.6811C2.91823 12.6704 2.87552 12.6554 2.83551 12.6363C2.68603 12.5573 2.56104 12.4511 2.47038 12.326C2.37971 12.201 2.32584 12.0605 2.31299 11.9156L2.84583 11.666L2.83208 11.6772Z" fill="#A9A9A9"/>
<path d="M3.11785 11.8962C3.22039 12.0079 3.29301 12.1359 3.33098 12.272L2.69158 12.572C2.56953 12.4768 2.47246 12.3623 2.40625 12.2355L3.1316 11.8962H3.11785Z" fill="#E9EAE7"/>
<path d="M3.11785 11.8962C3.22039 12.0079 3.29301 12.1359 3.33098 12.272L2.69158 12.572C2.56953 12.4768 2.47246 12.3623 2.40625 12.2355L3.1316 11.8962H3.11785Z" fill="#E9EAE7"/>
<path d="M2.40625 11.927C2.41384 12.054 2.45832 12.1777 2.53602 12.2879C2.61372 12.3981 2.72242 12.4916 2.85315 12.5608C3.1041 12.6786 3.30692 12.5888 3.30692 12.3561C3.29933 12.2291 3.25485 12.1054 3.17715 11.9953C3.09945 11.8851 2.99075 11.7915 2.86002 11.7223C2.6022 11.6046 2.40625 11.6971 2.40625 11.927Z" fill="#4D4D4D"/>
<path d="M2.53955 11.921C2.54455 12.0208 2.57828 12.1183 2.638 12.2055C2.69772 12.2927 2.78176 12.3672 2.88332 12.423C3.07927 12.5183 3.22709 12.4454 3.22709 12.2604C3.22209 12.1609 3.18835 12.0639 3.1286 11.9771C3.06886 11.8904 2.98481 11.8164 2.88332 11.7612C2.68393 11.6659 2.53955 11.7388 2.53955 11.921Z" fill="#949494"/>
<path d="M2.70605 12.0703C2.70893 12.1148 2.72477 12.1581 2.75227 12.1967C2.77977 12.2352 2.81814 12.2678 2.86419 12.2918C2.95013 12.3339 3.01888 12.2918 3.02232 12.2217C3.01945 12.1772 3.0036 12.1339 2.9761 12.0953C2.9486 12.0568 2.91024 12.0242 2.86419 12.0002C2.77825 11.9581 2.70605 12.0002 2.70605 12.0703Z" fill="#C4C4C4"/>
<path d="M2.75098 12.117C2.7524 12.1413 2.76096 12.1649 2.77591 12.1859C2.79087 12.2068 2.81179 12.2246 2.83692 12.2376C2.88161 12.26 2.91942 12.2376 2.91942 12.1983C2.91927 12.1742 2.91162 12.1505 2.89719 12.1294C2.88277 12.1083 2.86203 12.0905 2.83692 12.0778C2.78879 12.0553 2.75098 12.0778 2.75098 12.117Z" fill="#4D4D4D"/>
<path d="M3.35525 12.9058L3.69902 12.7516C3.77055 12.7077 3.82708 12.6496 3.8632 12.5828C3.89931 12.5161 3.9138 12.4428 3.90528 12.3702C3.89138 12.1583 3.81625 11.952 3.68601 11.7683C3.55577 11.5846 3.37411 11.4286 3.15587 11.313C3.08051 11.2679 2.99192 11.2397 2.89899 11.2314C2.80607 11.223 2.71208 11.2347 2.62646 11.2653L2.66428 11.2485C2.74912 11.2135 2.84392 11.1976 2.93882 11.2025C3.03373 11.2075 3.12528 11.233 3.20399 11.2766C3.42361 11.3929 3.60611 11.5503 3.73642 11.7355C3.86674 11.9208 3.94111 12.1288 3.95341 12.3422C3.96193 12.4148 3.94744 12.488 3.91133 12.5548C3.87521 12.6216 3.81868 12.6797 3.74715 12.7235L3.37932 12.8946L3.35525 12.9058Z" fill="black"/>
<path d="M3.35383 12.9054L3.51884 12.8297C3.59065 12.7854 3.64733 12.7268 3.68344 12.6596C3.71956 12.5923 3.7339 12.5186 3.7251 12.4455C3.71095 12.234 3.63568 12.0283 3.50544 11.845C3.37519 11.6618 3.19367 11.5063 2.97569 11.3912C2.90021 11.3463 2.81183 11.3181 2.7191 11.3093C2.62637 11.3005 2.53241 11.3113 2.44629 11.3407L2.4841 11.3211C2.56994 11.2912 2.66373 11.28 2.75646 11.2883C2.84918 11.2967 2.93771 11.3244 3.01351 11.3687C3.23366 11.4825 3.41782 11.637 3.55102 11.8197C3.68422 12.0024 3.7627 12.2082 3.78011 12.4203C3.78931 12.493 3.77513 12.5664 3.73896 12.6333C3.70279 12.7002 3.64588 12.7582 3.57385 12.8017L3.37446 12.8942L3.35383 12.9054Z" fill="black"/>
<path d="M22.1627 6.7898C20.7573 6.61805 19.321 6.79045 18.0359 7.28517C16.7507 7.77988 15.6745 8.57463 14.9436 9.56874L13.4138 11.6438L0 5.25873L1.5332 3.17803C2.26405 2.18417 3.34051 1.3899 4.62588 0.89611C5.91125 0.402317 7.34753 0.231275 8.75231 0.404705L22.1627 6.7898Z" fill="black"/>
<path d="M0.467285 4.66388L1.74954 2.92248C2.9596 1.27924 5.31784 0.339842 7.66921 0.356668C7.96008 0.357188 8.2506 0.373112 8.53894 0.404338L21.7362 6.67447C19.7939 6.53987 17.3531 6.77261 14.8608 9.14214L13.5751 10.8863L0.467285 4.66388Z" fill="#454545"/>
<path d="M22.1624 6.78973L13.4272 11.6437L14.957 9.56866C15.6879 8.57456 16.7642 7.7798 18.0493 7.28509C19.3345 6.79038 20.7707 6.61797 22.1761 6.78973H22.1624Z" fill="#1D1D1D"/>
<path d="M22.1624 6.79004L20.7151 15.0007L14.8092 17.7543L13.4272 11.6441L22.1624 6.79004Z" fill="#459F65"/>
<path opacity="0.3" d="M13.7979 13.2925L13.8872 13.6739L21.5807 10.0845L21.6632 9.62744L13.7979 13.2925Z" fill="black"/>
<path opacity="0.3" d="M20.9191 13.8616L20.9981 13.4045L14.5078 16.4302L14.5972 16.8116L20.9191 13.8616Z" fill="black"/>
<path d="M13.431 11.6439L0 5.25879L1.37851 11.3663L14.8095 17.7542L13.431 11.6439Z" fill="#459F65"/>
<path opacity="0.1" d="M0.459595 7.30557L13.8906 13.6879L13.784 13.214L0.353027 6.83447L0.459595 7.30557Z" fill="black"/>
<path opacity="0.1" d="M14.5008 16.3832L1.07324 10.0037L1.17981 10.4776L14.6074 16.8571L14.5008 16.3832Z" fill="black"/>
<path d="M18.1103 7.99529L16.1577 12.21L16.9965 12.6081L19.4613 7.99809L18.9388 7.75413C18.8663 7.72004 18.7856 7.69921 18.7023 7.69307C18.619 7.68693 18.535 7.69563 18.4562 7.71857C18.3775 7.7415 18.3057 7.77812 18.246 7.8259C18.1863 7.87368 18.14 7.93148 18.1103 7.99529Z" fill="#82BB8B"/>
<path d="M18.6313 8.23967L16.6787 12.4459L17.5313 12.8525L19.5939 8.34062C19.6229 8.27855 19.624 8.2101 19.5969 8.14744C19.5698 8.08479 19.5164 8.03201 19.446 7.99851C19.3736 7.96443 19.2929 7.9436 19.2096 7.93746C19.1262 7.93132 19.0423 7.94002 18.9635 7.96295C18.8847 7.98589 18.813 8.02251 18.7532 8.07029C18.6935 8.11807 18.6472 8.17586 18.6176 8.23967H18.6313Z" fill="#3F915C"/>
<path d="M11.9042 2.42371C11.8574 2.40136 11.8036 2.39064 11.7495 2.39287C10.5133 2.45511 9.31425 2.7615 8.25549 3.28565C7.19673 3.80981 6.31 4.53601 5.67166 5.40174L5.29695 5.9149C5.27609 5.94009 5.26189 5.96855 5.25525 5.99846C5.24862 6.02837 5.24971 6.05909 5.25844 6.08864C5.26718 6.11819 5.28337 6.14593 5.30598 6.17009C5.32859 6.19426 5.35713 6.21431 5.38977 6.22897L5.69916 6.37759C5.76087 6.40638 5.83396 6.41428 5.90273 6.3996C5.9715 6.38492 6.03048 6.34883 6.06699 6.29908L6.44514 5.78591C7.02077 5.00516 7.7993 4.33688 8.72586 3.82815C9.65243 3.31943 10.7045 2.98265 11.8079 2.84153C11.8622 2.83381 11.9122 2.81283 11.9515 2.78135C11.9908 2.74988 12.0174 2.7094 12.0279 2.6653C12.0383 2.6212 12.0321 2.57555 12.01 2.5344C11.9879 2.49326 11.951 2.45857 11.9042 2.43493V2.42371Z" fill="#292929"/>
<path d="M13.6536 3.25647C13.6068 3.23413 13.5531 3.22341 13.4989 3.22563C12.2638 3.28701 11.0655 3.59246 10.0073 4.11566C8.94909 4.63886 8.06271 5.3641 7.42456 6.2289L7.04641 6.74206C7.02794 6.76701 7.01577 6.79472 7.01062 6.82356C7.00546 6.85241 7.00743 6.8818 7.01639 6.91001C7.02536 6.93823 7.04115 6.96469 7.06284 6.98786C7.08452 7.01103 7.11166 7.03042 7.14267 7.04491L7.45206 7.19353C7.51397 7.2216 7.58677 7.2291 7.65529 7.21448C7.72381 7.19985 7.78277 7.16422 7.81989 7.11502L8.1946 6.60185C8.76968 5.82072 9.54806 5.15214 10.4747 4.64337C11.4014 4.13459 12.4537 3.79803 13.5574 3.65747C13.6128 3.65122 13.6645 3.63096 13.7051 3.59954C13.7458 3.56812 13.7733 3.52712 13.7839 3.48228C13.7945 3.43743 13.7877 3.39101 13.7643 3.34951C13.7409 3.30801 13.7022 3.27351 13.6536 3.25087V3.25647Z" fill="#292929"/>
<path d="M10.1547 1.59077C10.1093 1.56817 10.0565 1.55741 10.0034 1.55993C8.76722 1.62194 7.56804 1.92823 6.50923 2.45241C5.45042 2.97658 4.56375 3.70291 3.92563 4.56881L3.54748 5.08197C3.52846 5.10703 3.51585 5.13497 3.51039 5.16411C3.50494 5.19324 3.50677 5.22298 3.51576 5.25153C3.52475 5.28008 3.54072 5.30685 3.56271 5.33024C3.5847 5.35362 3.61227 5.37314 3.64374 5.38762L3.95313 5.53624C4.01484 5.56503 4.08793 5.57293 4.1567 5.55825C4.22547 5.54357 4.28445 5.50748 4.32096 5.45773L4.6991 4.94737C5.27381 4.16545 6.05196 3.49598 6.9786 2.98625C7.90524 2.47651 8.95778 2.13894 10.0619 1.99738C10.1171 1.99068 10.1684 1.97009 10.2085 1.93849C10.2487 1.90688 10.2758 1.86584 10.286 1.82108C10.2962 1.77631 10.2891 1.73006 10.2655 1.68878C10.242 1.6475 10.2032 1.61324 10.1547 1.59077Z" fill="#292929"/>
<path d="M8.40158 0.757967C8.3561 0.735531 8.30339 0.724783 8.25032 0.727121C7.01365 0.788963 5.81403 1.09548 4.7551 1.62021C3.69617 2.14493 2.80979 2.87206 2.17252 3.7388L1.79437 4.24916C1.75925 4.29907 1.74966 4.35826 1.76768 4.4139C1.7857 4.46954 1.82987 4.51715 1.89063 4.5464L2.20002 4.69502C2.26173 4.72381 2.33482 4.73171 2.40359 4.71703C2.47236 4.70235 2.53134 4.66626 2.56785 4.61651L2.94256 4.10615C3.5191 3.32571 4.29838 2.65787 5.22552 2.14964C6.15266 1.64142 7.20511 1.30517 8.30876 1.16457C8.36397 1.15787 8.41524 1.13728 8.45543 1.10568C8.49561 1.07408 8.5227 1.03303 8.53292 0.988267C8.54313 0.943505 8.53597 0.897257 8.51243 0.855973C8.48888 0.814689 8.45013 0.780428 8.40158 0.757967Z" fill="#292929"/>
<path d="M15.4028 4.08632C15.3558 4.06464 15.302 4.05487 15.2481 4.05828C14.0122 4.12104 12.8135 4.42797 11.7553 4.95262C10.6971 5.47727 9.81114 6.20392 9.17375 7.06996L8.79561 7.58312C8.75924 7.63372 8.74895 7.69401 8.76699 7.75078C8.78504 7.80755 8.82994 7.85617 8.89186 7.88597L9.20125 8.0346C9.26296 8.06338 9.33605 8.07128 9.40482 8.0566C9.4736 8.04192 9.53257 8.00583 9.56909 7.95608L9.94723 7.44292C10.5219 6.66126 11.3002 5.99214 12.2268 5.48287C13.1535 4.9736 14.2061 4.63661 15.31 4.49573C15.3652 4.48903 15.4165 4.46844 15.4567 4.43684C15.4968 4.40523 15.5239 4.36419 15.5341 4.31943C15.5444 4.27466 15.5372 4.22842 15.5137 4.18713C15.4901 4.14585 15.4514 4.11159 15.4028 4.08913V4.08632Z" fill="#292929"/>
<path d="M18.908 5.75226C18.8616 5.72927 18.8075 5.7185 18.7533 5.72141C17.5175 5.78441 16.3189 6.09143 15.2607 6.61606C14.2026 7.1407 13.3166 7.86722 12.679 8.7331L12.3008 9.24626C12.2823 9.27121 12.2702 9.29892 12.265 9.32776C12.2599 9.3566 12.2618 9.386 12.2708 9.41421C12.2798 9.44243 12.2955 9.46889 12.3172 9.49206C12.3389 9.51522 12.3661 9.53462 12.3971 9.54911L12.7065 9.69493C12.7666 9.72209 12.8372 9.72938 12.9037 9.71529C12.9703 9.7012 13.0276 9.66681 13.064 9.61921L13.4421 9.10605C14.0177 8.32386 14.7971 7.65444 15.725 7.14515C16.6529 6.63586 17.7067 6.29916 18.8118 6.15887C18.8672 6.15261 18.9189 6.13236 18.9595 6.10094C19.0002 6.06952 19.0277 6.02851 19.0383 5.98367C19.0489 5.93883 19.0421 5.8924 19.0187 5.8509C18.9953 5.8094 18.9566 5.77491 18.908 5.75226Z" fill="#292929"/>
<path d="M17.1535 4.86042C17.107 4.83742 17.053 4.82665 16.9988 4.82957C15.7635 4.89301 14.5657 5.20024 13.5081 5.72485C12.4506 6.24946 11.5652 6.97574 10.9279 7.84125L10.5497 8.35441C10.5317 8.37987 10.5201 8.40804 10.5157 8.43723C10.5113 8.46643 10.5141 8.49605 10.5241 8.52432C10.534 8.5526 10.5509 8.57894 10.5736 8.60178C10.5963 8.62463 10.6244 8.6435 10.6563 8.65726L10.9623 8.80308C10.9925 8.81782 11.026 8.82756 11.0609 8.83173C11.0957 8.8359 11.1312 8.83443 11.1654 8.8274C11.1996 8.82037 11.2317 8.80792 11.26 8.79075C11.2882 8.77359 11.312 8.75205 11.3301 8.72737L11.6876 8.2142C12.2631 7.43305 13.0415 6.76433 13.968 6.25513C14.8946 5.74592 15.9467 5.40864 17.0504 5.26702C17.1056 5.26032 17.1569 5.23973 17.197 5.20813C17.2372 5.17652 17.2643 5.13548 17.2745 5.09071C17.2847 5.04595 17.2776 4.9997 17.254 4.95842C17.2305 4.91714 17.1917 4.88288 17.1432 4.86042H17.1535Z" fill="#292929"/>
<path d="M4.28705 1.7002C4.15298 1.77871 4.01204 1.85442 3.87109 1.92733L15.9201 7.65065C16.0439 7.56652 16.1745 7.48801 16.3086 7.41229L4.27674 1.7002H4.28705Z" fill="#454545"/>
<path d="M12.6897 13.705L10.2627 12.5525L10.5136 13.6545L12.9372 14.807L12.6897 13.705Z" fill="#FFD085"/>
<path d="M26.1984 27.3683L27.5843 25.4742L26.8612 25.1465C26.7523 25.1072 26.6326 25.0919 26.5141 25.1023C26.3956 25.1126 26.2826 25.1482 26.1863 25.2055C25.9065 25.3518 25.6732 25.5501 25.5056 25.7843C25.338 26.0184 25.2408 26.2816 25.2222 26.5523C25.2115 26.6451 25.2299 26.7385 25.2755 26.8239C25.3212 26.9093 25.3927 26.9839 25.4833 27.0406L26.1743 27.3683H26.1984Z" fill="black"/>
<path d="M27.3349 25.5917L26.3507 25.1296C26.2922 25.1474 26.2358 25.1694 26.182 25.1952C25.9021 25.3415 25.6688 25.5398 25.5012 25.7739C25.3336 26.0081 25.2365 26.2713 25.2178 26.542C25.2169 26.6231 25.2318 26.7039 25.262 26.7812L26.0172 27.1548C26.1072 27.1328 26.1935 27.102 26.2744 27.063C26.3757 27.0135 26.4712 26.9565 26.5596 26.8926L27.2867 25.9096C27.3143 25.8138 27.3305 25.7162 27.3349 25.6179V25.5917Z" fill="#1F1F1F"/>
<path d="M27.8448 25.9655C27.827 26.2349 27.732 26.4971 27.5673 26.731C27.4026 26.9649 27.173 27.164 26.8968 27.3124C26.3625 27.5614 25.9326 27.3648 25.9326 26.87C25.95 26.5981 26.0465 26.3336 26.2142 26.0983C26.3819 25.8629 26.6158 25.6635 26.8968 25.5166C27.427 25.2643 27.8569 25.4642 27.8569 25.9557L27.8448 25.9655Z" fill="#2A2A2A"/>
<path d="M27.809 25.9817C27.7954 26.2447 27.7043 26.5011 27.5434 26.7292C27.3826 26.9574 27.1568 27.1506 26.885 27.2925C26.3708 27.535 25.957 27.3449 25.957 26.8698C25.9711 26.6065 26.0628 26.3499 26.2243 26.1217C26.3859 25.8935 26.6125 25.7005 26.885 25.559C27.3952 25.3198 27.809 25.5098 27.809 25.9817Z" fill="#1D1D1D"/>
<path d="M27.6049 26.0803C27.5896 26.281 27.5178 26.4761 27.3952 26.6506C27.2726 26.825 27.1025 26.9741 26.8979 27.0863C26.4962 27.2731 26.1748 27.1257 26.1748 26.7586C26.1895 26.5563 26.2627 26.3597 26.3883 26.1848C26.514 26.01 26.6886 25.8619 26.8979 25.7526C27.2996 25.5658 27.617 25.7133 27.617 26.0803H27.6049Z" fill="#3B3B3B"/>
<path d="M27.5527 26.1034C27.5412 26.2906 27.476 26.4729 27.3622 26.6357C27.2485 26.7985 27.0894 26.9372 26.8979 27.0407C26.5243 27.2143 26.2271 27.0767 26.2271 26.7326C26.2403 26.5448 26.3081 26.3622 26.4247 26.1998C26.5413 26.0374 26.7035 25.9 26.8979 25.7987C27.2675 25.6217 27.5648 25.7594 27.5648 26.1034H27.5527Z" fill="#727272"/>
<path d="M26.8737 25.8018C26.6825 25.9043 26.5233 26.0418 26.4089 26.2034C26.2945 26.365 26.2281 26.5462 26.2149 26.7325C26.2083 26.7771 26.2083 26.8222 26.2149 26.8668L26.705 27.0962C26.7629 27.0842 26.8183 27.0654 26.8697 27.0405C27.0604 26.9394 27.2198 26.8036 27.3355 26.6439C27.4512 26.4841 27.52 26.3047 27.5365 26.1197L26.8576 25.792L26.8737 25.8018Z" fill="#A9A9A9"/>
<path d="M26.4962 26.0801C26.3648 26.2217 26.273 26.3849 26.2271 26.5585L27.0305 26.9419C27.1929 26.8233 27.3229 26.6782 27.4121 26.5159L26.4962 26.0801Z" fill="#E9EAE7"/>
<path d="M26.4962 26.0801C26.3648 26.2217 26.273 26.3849 26.2271 26.5585L27.0305 26.9419C27.1929 26.8233 27.3229 26.6782 27.4121 26.5159L26.4962 26.0801Z" fill="#E9EAE7"/>
<path d="M27.4269 26.1228C27.4159 26.285 27.3577 26.4427 27.2571 26.5829C27.1565 26.7231 27.0164 26.8417 26.8484 26.9289C26.531 27.0797 26.2739 26.9617 26.2739 26.6668C26.283 26.5023 26.3397 26.342 26.4396 26.199C26.5395 26.056 26.6796 25.9344 26.8484 25.8442C27.1698 25.6968 27.4269 25.8148 27.4269 26.1097V26.1228Z" fill="#4D4D4D"/>
<path d="M27.247 26.1159C27.2406 26.2471 27.1957 26.3751 27.116 26.4892C27.0363 26.6032 26.9241 26.7 26.789 26.7713C26.5359 26.8893 26.3311 26.7943 26.3311 26.5616C26.3374 26.4304 26.3824 26.3024 26.4621 26.1883C26.5418 26.0743 26.6539 25.9775 26.789 25.9062C27.0421 25.7882 27.247 25.8833 27.247 26.1159Z" fill="#949494"/>
<path d="M27.0336 26.3062C27.0296 26.3623 27.0093 26.4168 26.9744 26.4653C26.9395 26.5137 26.8909 26.5547 26.8327 26.5848C26.7242 26.6372 26.6318 26.5848 26.6318 26.493C26.6367 26.4366 26.6574 26.3819 26.6922 26.3331C26.727 26.2843 26.7751 26.2426 26.8327 26.2112C26.9452 26.1588 27.0336 26.2112 27.0336 26.3062Z" fill="#C4C4C4"/>
<path d="M26.9738 26.3689C26.9715 26.3992 26.9605 26.4286 26.9416 26.4548C26.9228 26.481 26.8966 26.5032 26.8653 26.5196C26.805 26.5491 26.7568 26.5196 26.7568 26.4705C26.7591 26.4397 26.7701 26.4098 26.7889 26.3831C26.8078 26.3564 26.8339 26.3336 26.8653 26.3164C26.9256 26.2902 26.9738 26.3164 26.9738 26.3689Z" fill="#4D4D4D"/>
<path d="M26.094 27.3682L25.6923 27.1552C25.6014 27.0987 25.5297 27.0241 25.484 26.9387C25.4383 26.8532 25.4201 26.7597 25.4312 26.6669C25.4504 26.3968 25.5478 26.1342 25.7154 25.9007C25.883 25.6671 26.116 25.4693 26.3953 25.3233C26.4919 25.2667 26.6046 25.2313 26.7228 25.2204C26.841 25.2095 26.9606 25.2235 27.0702 25.2611L27.026 25.2381C26.9164 25.2006 26.7968 25.1865 26.6786 25.1974C26.5604 25.2083 26.4477 25.2438 26.3511 25.3004C26.0713 25.4467 25.838 25.645 25.6703 25.8792C25.5027 26.1133 25.4056 26.3765 25.387 26.6472C25.3758 26.7395 25.394 26.8327 25.4397 26.9176C25.4855 27.0025 25.5572 27.0764 25.6481 27.1322L26.1181 27.355L26.094 27.3682Z" fill="black"/>
<path d="M26.0924 27.3682L25.8835 27.2699C25.7926 27.2134 25.7209 27.1389 25.6752 27.0534C25.6295 26.968 25.6113 26.8744 25.6224 26.7816C25.642 26.5111 25.7395 26.2482 25.907 26.0142C26.0745 25.7801 26.3073 25.5817 26.5865 25.4348C26.6833 25.3784 26.7962 25.3434 26.9145 25.333C27.0327 25.3227 27.1522 25.3374 27.2614 25.3758L27.2132 25.3529C27.1036 25.315 26.984 25.3008 26.8657 25.3117C26.7475 25.3226 26.6347 25.3582 26.5383 25.4151C26.259 25.5611 26.026 25.7589 25.8584 25.9924C25.6908 26.226 25.5934 26.4885 25.5742 26.7587C25.5627 26.8515 25.5807 26.9452 25.6264 27.0307C25.6722 27.1162 25.7441 27.1906 25.8353 27.2469L26.0924 27.3682Z" fill="black"/>
<path d="M37.1433 22.8955L35.7573 21.0014L36.4804 20.6737C36.5901 20.6361 36.7097 20.6221 36.8278 20.633C36.946 20.6439 37.0588 20.6793 37.1553 20.7359C37.4348 20.878 37.6697 21.0714 37.8413 21.3007C38.0129 21.53 38.1164 21.7888 38.1436 22.0566C38.1547 22.1489 38.1365 22.242 38.0908 22.3269C38.0451 22.4119 37.9733 22.4858 37.8825 22.5415L37.1915 22.8692L37.1433 22.8955Z" fill="black"/>
<path d="M36.0083 21.1056L36.9925 20.6436C37.0503 20.6626 37.1067 20.6845 37.1613 20.7091C37.4442 20.8541 37.6809 21.0518 37.852 21.2859C38.0231 21.5201 38.1237 21.7839 38.1455 22.0559C38.1464 22.1371 38.1315 22.2178 38.1013 22.2951L37.342 22.6523C37.2521 22.6303 37.1658 22.5995 37.0849 22.5606C36.9836 22.5111 36.8881 22.454 36.7997 22.3902L36.0726 21.4071C36.0447 21.3125 36.0286 21.2159 36.0244 21.1187L36.0083 21.1056Z" fill="#1F1F1F"/>
<path d="M35.4941 21.4793C35.5141 21.7497 35.6117 22.0125 35.7792 22.2465C35.9467 22.4805 36.1793 22.679 36.4583 22.8261C36.9926 23.0751 37.4224 22.8785 37.4224 22.3837C37.4031 22.1136 37.3057 21.851 37.1382 21.6175C36.9706 21.3839 36.7376 21.1861 36.4583 21.0401C35.928 20.7878 35.4941 20.9844 35.4941 21.4793Z" fill="#2A2A2A"/>
<path d="M35.5342 21.4956C35.5478 21.7586 35.6389 22.015 35.7997 22.2432C35.9606 22.4713 36.1864 22.6645 36.4581 22.8064C36.9724 23.0489 37.3861 22.8588 37.3861 22.3837C37.3721 22.1204 37.2804 21.8638 37.1188 21.6356C36.9573 21.4075 36.7306 21.2144 36.4581 21.0729C35.948 20.8337 35.5342 21.0237 35.5342 21.4956Z" fill="#1D1D1D"/>
<path d="M35.7349 21.5847C35.748 21.7887 35.8204 21.9872 35.9462 22.1638C36.0719 22.3404 36.2473 22.4901 36.458 22.6006C36.8597 22.7873 37.1771 22.6399 37.1771 22.2729C37.165 22.0691 37.0935 21.8706 36.9684 21.6939C36.8433 21.5172 36.6683 21.3674 36.458 21.257C36.0562 21.0702 35.7389 21.2177 35.7389 21.5847H35.7349Z" fill="#3B3B3B"/>
<path d="M35.7886 21.6172C35.7997 21.8077 35.8664 21.9933 35.9831 22.1586C36.0997 22.3238 36.2631 22.464 36.4595 22.5675C36.829 22.7412 37.1303 22.6036 37.1303 22.2595C37.1161 22.0718 37.0479 21.8895 36.9314 21.7273C36.8149 21.565 36.6532 21.4274 36.4595 21.3255C36.0899 21.1486 35.7886 21.2862 35.7886 21.6303V21.6172Z" fill="#727272"/>
<path d="M36.4649 21.3159C36.6563 21.417 36.8159 21.5532 36.931 21.7137C37.0461 21.8742 37.1135 22.0544 37.1278 22.24C37.1343 22.2846 37.1343 22.3297 37.1278 22.3744L36.6377 22.6038C36.5759 22.5975 36.5152 22.5854 36.4569 22.5677C36.2662 22.4666 36.1068 22.3308 35.9911 22.1711C35.8754 22.0114 35.8066 21.8319 35.79 21.6469L36.4649 21.3192V21.3159Z" fill="#A9A9A9"/>
<path d="M36.8354 21.5842C36.9653 21.7265 37.057 21.8896 37.1046 22.0627L36.3011 22.4461C36.1326 22.3282 35.9958 22.1832 35.8994 22.0201L36.8354 21.5842Z" fill="#E9EAE7"/>
<path d="M36.8354 21.5842C36.9653 21.7265 37.057 21.8896 37.1046 22.0627L36.3011 22.4461C36.1326 22.3282 35.9958 22.1832 35.8994 22.0201L36.8354 21.5842Z" fill="#E9EAE7"/>
<path d="M35.915 21.637C35.9262 21.7988 35.9841 21.9561 36.0839 22.0962C36.1837 22.2363 36.3227 22.3552 36.4895 22.4432C36.8109 22.5939 37.068 22.4759 37.068 22.181C37.057 22.0184 36.9988 21.8602 36.8982 21.7195C36.7977 21.5788 36.6576 21.4595 36.4895 21.3716C36.1721 21.2241 35.915 21.3421 35.915 21.637Z" fill="#4D4D4D"/>
<path d="M36.0967 21.6302C36.1031 21.7614 36.148 21.8894 36.2277 22.0035C36.3074 22.1175 36.4195 22.2143 36.5546 22.2856C36.8077 22.4036 37.0126 22.3085 37.0126 22.0759C37.0062 21.9447 36.9613 21.8167 36.8816 21.7026C36.8019 21.5886 36.6898 21.4918 36.5546 21.4205C36.3016 21.3025 36.0967 21.3943 36.0967 21.6302Z" fill="#949494"/>
<path d="M36.3081 21.8172C36.3114 21.8738 36.3314 21.929 36.3664 21.9781C36.4013 22.0271 36.4502 22.0686 36.509 22.099C36.6174 22.1514 36.7098 22.099 36.7098 22.0072C36.7049 21.9509 36.6843 21.8962 36.6495 21.8473C36.6146 21.7985 36.5666 21.7568 36.509 21.7254C36.3965 21.673 36.3081 21.7254 36.3081 21.8172Z" fill="#C4C4C4"/>
<path d="M36.3687 21.8823C36.3716 21.9125 36.3828 21.9417 36.4016 21.9678C36.4204 21.994 36.4462 22.0163 36.4771 22.033C36.5374 22.0625 36.5856 22.033 36.5856 21.9839C36.5833 21.9531 36.5723 21.9232 36.5535 21.8965C36.5347 21.8698 36.5085 21.847 36.4771 21.8299C36.4169 21.8036 36.3687 21.8299 36.3687 21.8823Z" fill="#4D4D4D"/>
<path d="M37.1442 22.8953L37.5459 22.6954C37.6365 22.6387 37.708 22.5641 37.7537 22.4787C37.7993 22.3933 37.8177 22.2999 37.807 22.2071C37.7865 21.9368 37.6885 21.6741 37.5211 21.4402C37.3537 21.2064 37.1214 21.0077 36.8429 20.8603C36.7461 20.8039 36.6331 20.7689 36.5149 20.7585C36.3967 20.7482 36.2772 20.7629 36.168 20.8013L36.2162 20.7784C36.3264 20.7405 36.4467 20.7263 36.5656 20.7372C36.6845 20.7481 36.7979 20.7837 36.8951 20.8406C37.1737 20.9872 37.4062 21.1851 37.5737 21.4185C37.7412 21.6519 37.839 21.9142 37.8592 22.1842C37.871 22.2773 37.8528 22.3714 37.8063 22.4571C37.7598 22.5427 37.6866 22.6169 37.5941 22.6724L37.1442 22.8953Z" fill="black"/>
<path d="M37.3402 22.895L37.5491 22.7967C37.64 22.7402 37.7117 22.6657 37.7574 22.5802C37.8031 22.4948 37.8213 22.4012 37.8102 22.3084C37.7996 22.034 37.7087 21.7657 37.5452 21.5257C37.3817 21.2857 37.1503 21.0811 36.8702 20.9288C36.7734 20.8725 36.6605 20.8374 36.5423 20.8271C36.424 20.8167 36.3045 20.8315 36.1953 20.8698L36.2435 20.8469C36.3578 20.8087 36.4825 20.7961 36.6047 20.8105C36.7269 20.8249 36.8422 20.8658 36.9385 20.9288C37.2184 21.0751 37.4517 21.2735 37.6193 21.5076C37.7869 21.7417 37.884 22.005 37.9026 22.2757C37.9138 22.368 37.8956 22.4611 37.8499 22.546C37.8041 22.631 37.7324 22.7049 37.6415 22.7606L37.3402 22.895Z" fill="black"/>
<path d="M12.3903 20.2507L11.0044 18.3534L11.7275 18.0257C11.8374 17.9873 11.9575 17.9726 12.0764 17.9829C12.1952 17.9933 12.3089 18.0283 12.4064 18.0847C12.6849 18.2321 12.9172 18.4307 13.0847 18.6646C13.2521 18.8985 13.35 19.1611 13.3706 19.4315C13.382 19.5246 13.3635 19.6186 13.317 19.7042C13.2706 19.7898 13.1976 19.864 13.1054 19.9197L12.4145 20.2474L12.3903 20.2507Z" fill="black"/>
<path d="M11.2534 18.4747L12.2336 18.0127C12.293 18.0299 12.3508 18.0507 12.4064 18.075C12.6849 18.2224 12.9172 18.421 13.0846 18.6549C13.252 18.8888 13.35 19.1515 13.3705 19.4218C13.3714 19.504 13.3565 19.5858 13.3263 19.6643L12.5711 20.0182C12.4824 20.0018 12.3962 19.9776 12.314 19.9461C12.2135 19.8909 12.1194 19.8284 12.0328 19.7593L11.3056 18.7762C11.2783 18.6816 11.2622 18.585 11.2574 18.4879L11.2534 18.4747Z" fill="#1F1F1F"/>
<path d="M10.7393 18.8449C10.7589 19.1154 10.8564 19.3783 11.0239 19.6123C11.1914 19.8464 11.4242 20.0448 11.7034 20.1917C12.2377 20.4408 12.6675 20.2441 12.6675 19.7526C12.6489 19.4819 12.5518 19.2187 12.3842 18.9845C12.2166 18.7504 11.9832 18.5521 11.7034 18.4058C11.1731 18.1567 10.7393 18.3533 10.7393 18.8449Z" fill="#2A2A2A"/>
<path d="M10.7759 18.8644C10.796 19.1243 10.8904 19.3767 11.0515 19.6015C11.2126 19.8262 11.4361 20.0171 11.7039 20.1588C12.2141 20.398 12.6318 20.2079 12.6318 19.7361C12.6161 19.4731 12.5237 19.217 12.3623 18.9891C12.201 18.7611 11.9752 18.5678 11.7039 18.4253C11.1937 18.1828 10.7759 18.3729 10.7759 18.848V18.8644Z" fill="#1D1D1D"/>
<path d="M10.9834 18.9629C10.9979 19.1644 11.0707 19.3603 11.1956 19.5346C11.3206 19.7088 11.4943 19.8565 11.7025 19.9656C12.1042 20.1524 12.4216 20.005 12.4216 19.6379C12.407 19.4364 12.3343 19.2405 12.2094 19.0663C12.0844 18.892 11.9107 18.7443 11.7025 18.6352C11.3008 18.4484 10.9834 18.5959 10.9834 18.9629Z" fill="#3B3B3B"/>
<path d="M11.0337 18.9857C11.0479 19.1734 11.1161 19.3557 11.2326 19.5179C11.3492 19.6801 11.5108 19.8177 11.7046 19.9196C12.0742 20.0933 12.3755 19.9589 12.3755 19.6149C12.3618 19.4266 12.294 19.2437 12.1774 19.0808C12.0608 18.918 11.8988 18.7799 11.7046 18.6777C11.335 18.504 11.0337 18.6416 11.0337 18.9857Z" fill="#727272"/>
<path d="M11.7116 18.6808C11.9039 18.7841 12.064 18.9226 12.1791 19.0853C12.2942 19.248 12.361 19.4304 12.3744 19.618C12.381 19.6615 12.381 19.7055 12.3744 19.7491L11.8883 19.9817C11.8309 19.967 11.7757 19.9472 11.7236 19.9227C11.5325 19.8225 11.3724 19.6875 11.256 19.5283C11.1396 19.3691 11.07 19.19 11.0527 19.0052L11.7317 18.6775L11.7116 18.6808Z" fill="#A9A9A9"/>
<path d="M12.0825 18.9626C12.2115 19.1066 12.303 19.2705 12.3517 19.4444L11.5482 19.8278C11.3792 19.709 11.2424 19.5628 11.1465 19.3985L12.0825 18.9626Z" fill="#E9EAE7"/>
<path d="M12.0825 18.9626C12.2115 19.1066 12.303 19.2705 12.3517 19.4444L11.5482 19.8278C11.3792 19.709 11.2424 19.5628 11.1465 19.3985L12.0825 18.9626Z" fill="#E9EAE7"/>
<path d="M11.1582 19.0053C11.1708 19.1672 11.2296 19.3244 11.3301 19.4644C11.4306 19.6044 11.5698 19.7232 11.7367 19.8114C12.0581 19.9589 12.3152 19.8409 12.3152 19.546C12.3035 19.3839 12.2451 19.2264 12.1445 19.0863C12.044 18.9462 11.9042 18.8275 11.7367 18.7398C11.4193 18.5891 11.1582 18.7071 11.1582 19.0053Z" fill="#4D4D4D"/>
<path d="M11.3418 18.9954C11.3507 19.1239 11.3968 19.2488 11.4764 19.3599C11.556 19.471 11.6669 19.5651 11.7998 19.6344C12.0529 19.7557 12.2577 19.6606 12.2577 19.428C12.252 19.2967 12.2074 19.1685 12.1276 19.0543C12.0479 18.9402 11.9354 18.8435 11.7998 18.7726C11.5467 18.6513 11.3418 18.7464 11.3418 18.979V18.9954Z" fill="#949494"/>
<path d="M11.5513 19.1856C11.5562 19.2419 11.5768 19.2966 11.6116 19.3455C11.6465 19.3943 11.6945 19.436 11.7521 19.4674C11.8646 19.5198 11.957 19.4674 11.957 19.3756C11.9529 19.3187 11.9322 19.2635 11.8965 19.2144C11.8609 19.1654 11.8114 19.1241 11.7521 19.0938C11.6437 19.0414 11.5513 19.0938 11.5513 19.1856Z" fill="#C4C4C4"/>
<path d="M11.6309 19.2477C11.6325 19.2781 11.6432 19.3078 11.6621 19.334C11.681 19.3603 11.7075 19.3824 11.7393 19.3984C11.7996 19.4279 11.8478 19.3984 11.8478 19.3493C11.8455 19.319 11.8345 19.2895 11.8156 19.2633C11.7968 19.2371 11.7706 19.2149 11.7393 19.1985C11.6791 19.169 11.6309 19.1985 11.6309 19.2477Z" fill="#4D4D4D"/>
<path d="M12.386 20.2473L12.8118 20.0507H12.8359C12.9281 19.9957 13.0011 19.922 13.0476 19.837C13.0941 19.7519 13.1126 19.6584 13.1011 19.5657C13.0815 19.2952 12.9839 19.0322 12.8164 18.7982C12.6489 18.5642 12.4161 18.3657 12.1369 18.2189C12.0399 18.1616 11.9262 18.126 11.8071 18.1157C11.688 18.1053 11.5677 18.1206 11.458 18.1599L11.5062 18.1369C11.6159 18.0976 11.7362 18.0824 11.8553 18.0928C11.9744 18.1031 12.0881 18.1387 12.1851 18.1959C12.4641 18.343 12.6967 18.5415 12.8642 18.7755C13.0317 19.0095 13.1293 19.2723 13.1493 19.5427C13.1603 19.6359 13.1417 19.7297 13.0952 19.8152C13.0488 19.9008 12.9761 19.9751 12.8841 20.031L12.4141 20.2538L12.386 20.2473Z" fill="black"/>
<path d="M12.3865 20.2475L12.5954 20.1525C12.686 20.0958 12.7575 20.0212 12.8031 19.9358C12.8488 19.8505 12.8672 19.757 12.8565 19.6642C12.8419 19.3941 12.7495 19.1305 12.5869 18.8948C12.4243 18.6591 12.196 18.458 11.9205 18.3076C11.8225 18.248 11.7068 18.2108 11.5853 18.1999C11.4639 18.1889 11.341 18.2046 11.2295 18.2453L11.2777 18.2224C11.3873 18.1831 11.5077 18.1679 11.6268 18.1782C11.7459 18.1885 11.8596 18.2241 11.9566 18.2814C12.2358 18.4267 12.4695 18.6234 12.639 18.8555C12.8085 19.0876 12.9091 19.3489 12.9328 19.6184C12.9435 19.7111 12.9251 19.8046 12.8795 19.89C12.8338 19.9754 12.7623 20.0499 12.6717 20.1066L12.4186 20.2279L12.3865 20.2475Z" fill="black"/>
<path d="M38.5471 21.4467L27.2988 26.7357V17.996L38.4467 9.79712L38.5471 21.4467Z" fill="#0D3800"/>
<path d="M27.2986 17.9992L10.0244 9.86255V18.5465L27.2986 26.6831V17.9992Z" fill="#397A1D"/>
<path d="M13.2378 16.941V16.2856L14.0814 16.6461C14.1934 16.8255 14.2165 17.0332 14.1457 17.2261C14.1457 17.2261 14.0613 17.331 13.9609 17.2917C13.8605 17.2523 13.2418 16.964 13.2418 16.964L13.2378 16.941Z" fill="white"/>
<path d="M14.2221 17.2522L14.6961 16.6853C14.7272 16.6233 14.7272 16.5539 14.6961 16.4919C14.6519 16.3838 14.5314 16.1282 14.5314 16.1282L14.7483 16.1085L14.0413 15.7087L13.748 16.1773H13.9449L14.206 16.7475C14.2735 16.9146 14.2735 17.0949 14.206 17.262L14.2221 17.2522Z" fill="white"/>
<path d="M11.688 15.2468L12.1701 16.2659C12.2072 16.34 12.2666 16.4054 12.3428 16.4559C12.4392 16.5051 12.6762 16.6132 12.4352 16.6132V16.859L13.082 16.4854L12.8369 15.7285V15.948L12.15 15.6859C11.9478 15.5727 11.7879 15.4162 11.688 15.2336V15.2468Z" fill="white"/>
<path d="M12.0316 14.5254L12.6302 15.1349L12.2445 15.6854C12.0061 15.5897 11.8199 15.425 11.7223 15.2234C11.7223 15.2234 11.6299 15.03 11.6741 14.9776C11.7183 14.9252 12.0316 14.5254 12.0316 14.5254Z" fill="white"/>
<path d="M13.6915 14.5195L12.7515 14.0738C12.7515 14.0738 12.6189 14.0181 12.5707 14.0738C12.5225 14.1295 12.402 14.277 12.402 14.277L12.1851 14.0476L12.4823 14.8144L13.1854 15.0995L12.9925 14.8898L13.2536 14.5621C13.2536 14.5621 13.3782 14.4015 13.6915 14.4998V14.5195Z" fill="white"/>
<path d="M14.3024 15.5387L13.7158 15.5944L13.2378 14.6835C13.2546 14.6493 13.2806 14.6186 13.3138 14.5937C13.3471 14.5688 13.3868 14.5503 13.43 14.5396C13.4732 14.529 13.5188 14.5263 13.5634 14.5319C13.608 14.5375 13.6505 14.5512 13.6877 14.572C13.7842 14.6165 13.8645 14.681 13.9207 14.7588C13.977 14.8637 14.2903 15.5387 14.2903 15.5387H14.3024Z" fill="white"/>
<path d="M24.8874 20.8927L22.4771 19.7556V20.9681L24.8874 22.1052V20.8927Z" fill="#A2E49D"/>
<path d="M16.4525 12.7594L16.0508 12.5693V21.2664L16.4525 21.4564V12.7594Z" fill="#0D3800"/>
<path d="M10.8276 18.9099L11.2294 19.0967V10.4063L10.8276 10.2195V18.9099Z" fill="#0D3800"/>
<path d="M26.4955 17.4718L26.0938 17.2817V25.9689L26.4955 26.159V17.4718Z" fill="#0D3800"/>
<path d="M21.2723 15.1154L20.8706 14.9253V23.6158L21.2723 23.8058V15.1154Z" fill="#0D3800"/>
<path d="M31.7183 18.9661L38.9493 15.5581V19.1955L31.7183 22.6003V18.9661Z" fill="#114700"/>
<path d="M30.1104 18.2878V21.9744L31.7173 22.6527V18.9629L30.2269 18.2878H30.1104Z" fill="#397A1D"/>
<path d="M30.1104 18.8743V21.5712L31.3155 22.066V19.3691L30.2269 18.8743H30.1104Z" fill="#0D3800"/>
<path d="M37.5616 14.8306L30.2261 18.2877L31.6643 18.9628L38.9998 15.5089L37.5616 14.8306Z" fill="#2C8810"/>
<path d="M29.9129 5.85815L38.4455 9.79704L27.3338 17.9927L18.8052 13.9555L29.9129 5.85815Z" fill="#0D1B00"/>
<path d="M30.624 15.5481L38.4455 9.79704L29.9129 5.85815L21.6494 11.8845L30.624 15.5481Z" fill="#0D2700"/>
<path d="M29.9146 5.85474L31.7906 10.6227L35.0165 12.153L38.4472 9.7969L29.9146 5.85474Z" fill="#397A1D"/>
<path d="M36.4484 11.1338C36.0989 10.9798 35.6449 10.9339 35.5324 10.6357C34.9278 10.9226 34.2653 11.119 33.576 11.2158C33.4435 11.2354 33.3029 11.2518 33.1743 11.2747L35.0223 12.153L36.4564 11.1338H36.4484Z" fill="#994000"/>
<path d="M29.9141 5.85831L18.8064 13.9556L10.2095 9.90861L10.7237 8.99762L21.3252 1.81128L29.9141 5.85831Z" fill="black"/>
<path d="M28.3594 5.12424L27.7688 5.55025L18.7742 12.114L18.2118 12.5236L18.0752 12.4613L17.34 12.114L16.6049 11.7666L15.8697 11.4193L15.1306 11.0719L14.3954 10.7278L13.6602 10.3805L12.9251 10.0331L12.1939 9.68903L11.4588 9.34495L10.7236 8.99759L11.2901 8.5847L20.2967 2.02753L20.8873 1.59497L21.6224 1.94233L22.3496 2.28968L23.0887 2.63376L23.8239 2.97784L25.2942 3.67255L26.0254 4.02319L26.7605 4.36727L27.4957 4.71462L28.2348 5.06198L28.3594 5.12424Z" fill="#454545"/>
<path d="M22.3488 2.28974L21.7623 2.71574L12.7516 9.27619L12.1932 9.68909L11.458 9.34501L12.0244 8.93211L21.0311 2.37494L21.6217 1.94238L22.3488 2.28974Z" fill="#292929"/>
<path d="M23.8246 2.97811L23.2341 3.41067L14.2274 9.97112L13.6609 10.3807L12.9258 10.0334L13.4922 9.62376L22.4989 3.06331L23.0894 2.63403L23.8246 2.97811Z" fill="#292929"/>
<path d="M25.2948 3.67245L24.7043 4.10501L15.6936 10.6655L15.1312 11.0718L14.396 10.7277L14.9624 10.3181L23.9691 3.75765L24.5596 3.32837L25.2948 3.67245Z" fill="#292929"/>
<path d="M26.7679 4.36396L26.7599 4.36723L26.1694 4.79651L17.1707 11.3537L16.6043 11.7666L15.8691 11.4192L16.4275 11.0063L25.4342 4.44916L26.0248 4.02316L26.0288 4.0166L26.7679 4.36396Z" fill="#292929"/>
<path d="M28.2396 5.05854L28.2356 5.06181L27.6451 5.49109L24.845 7.52936L18.6344 12.0483L18.076 12.4546L17.3408 12.1138L17.9073 11.7009L26.9059 5.14374L27.4964 4.71446L27.5045 4.71118L28.2396 5.05854Z" fill="#292929"/>
<path d="M28.9695 5.50727L28.379 5.93983L19.3723 12.497L18.8099 12.9033L18.2113 12.6248L18.0747 12.5625L18.6331 12.1496H18.6411L24.8438 7.63073L27.6438 5.59247L28.2343 5.16319L28.2384 5.15991L28.9695 5.50727Z" fill="#454545"/>
<path d="M19.3713 12.4971L18.8089 12.9035L18.2103 12.6249L18.0737 12.5627L17.3386 12.2153L16.6034 11.868L15.8683 11.5206L15.1291 11.1732L14.3939 10.8292L13.6588 10.4818L12.9236 10.1344L12.1925 9.78709L11.4573 9.44629L10.7222 9.09893L11.2886 8.68604L12.0238 9.03339L12.7509 9.37747L14.2252 10.0722L14.9604 10.4195L15.6915 10.7669L16.4267 11.1077L17.1699 11.4551L17.905 11.8024L18.6321 12.1498H18.6402L18.7727 12.2153L19.3713 12.4971Z" fill="#454545"/>
<path d="M38.3506 9.73488L27.2469 17.8289L18.646 13.7819L19.1602 12.8709L29.7617 5.68457L38.3506 9.73488Z" fill="black"/>
<path d="M36.7959 8.99753L36.2054 9.42354L27.2107 15.9873L26.6483 16.4002L26.5117 16.3346L25.7766 15.9873L25.0414 15.6399L24.3063 15.2925L23.5671 14.9452L22.8319 14.6044L22.0968 14.257L21.3616 13.9097L20.6305 13.5623L19.8953 13.2182L19.1602 12.8709L19.7226 12.4613L28.7333 5.90082L29.3238 5.46826L30.059 5.81562L30.7901 6.16297L31.5253 6.50705L32.2604 6.85441L33.7307 7.54912L34.4619 7.89648L35.197 8.24384L35.9322 8.59119L36.6714 8.93855L36.7959 8.99753Z" fill="#454545"/>
<path d="M30.7888 6.16303L30.1983 6.58903L21.1876 13.1495L20.6292 13.5624L19.894 13.2183L20.4605 12.8087L29.4672 6.24823L30.0577 5.81567L30.7888 6.16303Z" fill="#292929"/>
<path d="M32.2592 6.85468L31.6686 7.28396L22.6619 13.8444L22.0955 14.2573L21.3604 13.9099L21.9268 13.4971L30.9335 6.9366L31.524 6.50732L32.2592 6.85468Z" fill="#292929"/>
<path d="M33.7308 7.54902L33.1403 7.9783L24.1296 14.5387L23.5672 14.9451L22.832 14.6043L23.3985 14.1914L32.4051 7.63094L32.9957 7.20166L33.7308 7.54902Z" fill="#292929"/>
<path d="M35.204 8.23749L35.1959 8.24405L34.6054 8.67005L25.6027 15.2272L25.0403 15.6401L24.3052 15.2928L24.8636 14.8799L33.8703 8.32269L34.4608 7.89669L34.4648 7.89014L35.204 8.23749Z" fill="#292929"/>
<path d="M36.6757 8.93207L36.6716 8.93863L36.0811 9.36463L33.2811 11.4029L27.0704 15.9218L26.512 16.3314L25.7769 15.9873L26.3433 15.5744L35.3419 9.01727L35.9325 8.59127L35.9405 8.58472L36.6757 8.93207Z" fill="#292929"/>
<path d="M37.4055 9.38105L36.815 9.8136L27.8083 16.3708L27.2459 16.7771L26.6473 16.5019L26.5107 16.4363L27.0691 16.0234H27.0772L33.2798 11.5045L36.0798 9.46625L36.6704 9.03697L36.6744 9.03369L37.4055 9.38105Z" fill="#454545"/>
<path d="M27.8093 16.3707L27.2469 16.777L26.6483 16.5017L26.5117 16.4362L25.7766 16.0888L25.0414 15.7415L24.3063 15.3941L23.5671 15.0468L22.8319 14.706L22.0968 14.3586L21.3616 14.008L20.6305 13.6639L19.8953 13.3198L19.1602 12.9725L19.7226 12.5596L20.4617 12.9069L21.1889 13.251L22.6632 13.9457L23.3984 14.2931L24.1295 14.6404L24.8647 14.9812L25.6038 15.3286L26.343 15.6759L27.0701 16.0233H27.0782L27.2107 16.0888L27.8093 16.3707Z" fill="#454545"/>
<path d="M28.9691 5.40606L28.3786 5.83862L27.768 5.55025L27.6435 5.49126L26.9043 5.1439L26.1691 4.79655L25.434 4.44919L24.7028 4.10511L23.9677 3.75776L23.2325 3.4104L22.4974 3.06304L21.7622 2.71569L21.0311 2.37488L20.2959 2.02753L20.8864 1.59497L21.6216 1.94233L22.3487 2.28968L23.0879 2.63376L23.823 2.97784L25.2934 3.67255L26.0245 4.02319L26.0285 4.01663L26.7677 4.36399L26.7597 4.36727L27.4948 4.71462L27.5028 4.71135L28.238 5.0587L28.9691 5.40606Z" fill="#454545"/>
</svg>
