<svg width="31" height="37" viewBox="0 0 31 37" fill="none" xmlns="http://www.w3.org/2000/svg">
<path d="M21.0499 29.0779L14.4236 32.9185L0 24.715L6.1791 21.144L21.0499 29.0779Z" fill="#814C2E"/>
<path d="M0 25.5349V24.7156L14.4236 32.9225V33.7419L0 25.5349Z" fill="#3B2015"/>
<path d="M21.0501 29.0779V29.9006L14.4238 33.7412V32.9219L21.0501 29.0779Z" fill="#552A11"/>
<path d="M21.0501 9.25049V29.0783L14.4238 32.9189V13.0945L21.0501 9.25049Z" fill="#743E1F"/>
<path d="M15.1743 13.7257L20.2985 10.7522V28.6784L15.1743 31.6519V13.7257Z" fill="#552A11"/>
<path d="M19.9947 10.9263V28.5453L15.1743 31.3447V31.6519L20.2985 28.6784V10.7522L19.9947 10.9263Z" fill="#3B2015"/>
<path d="M15.1743 31.652V31.3448L19.9947 28.5454L20.2985 28.6786L15.1743 31.652Z" fill="#814C2E"/>
<path d="M8.37427 13.5316L8.1626 13.6067V11.7529L8.37427 11.8758V13.5316Z" fill="#3B2015"/>
<path d="M7.63683 8.64942L7.11451 8.94984L0 4.88734L0.518905 4.58691L7.63683 8.64942Z" fill="#743E1F"/>
<path d="M0 24.7118V4.88745L7.14181 8.92606L7.11451 28.7743L0 24.7118Z" fill="#552A11"/>
<path d="M0.853516 24.2134V6.35889L6.26109 9.44844V27.303L0.853516 24.2134Z" fill="#3B2015"/>
<path d="M1.06858 24.1483V6.47812L0.853516 6.35522V24.2234L6.26109 27.313V27.115L1.06858 24.1483Z" fill="#814C2E"/>
<path d="M1.06858 24.1483L0.853516 24.2234V6.35522L1.06858 6.47812V24.1483Z" fill="#743E1F"/>
<path d="M7.63365 8.64941V28.4738L7.11475 28.7742V8.94983L7.63365 8.64941Z" fill="#3B2015"/>
<path d="M14.943 12.7939L14.4241 13.0944L7.30615 9.02845L7.82506 8.72803L14.943 12.7939Z" fill="#743E1F"/>
<path d="M7.30615 28.8529V9.02856L14.4241 13.0945V32.9188L7.30615 28.8529Z" fill="#552A11"/>
<path d="M8.1626 28.3577V10.5032L13.5702 13.5893V31.4473L8.1626 28.3577Z" fill="#3B2015"/>
<path d="M8.37427 28.2929V10.6227L8.1626 10.4998V28.368L13.5702 31.4575V31.2595L8.37427 28.2929Z" fill="#814C2E"/>
<path d="M8.37427 28.2929L8.1626 28.368V10.4998L8.37427 10.6227V28.2929Z" fill="#743E1F"/>
<path d="M21.0499 8.42749L14.4236 12.2715L0 4.06456L6.1791 0.493652L21.0499 8.42749Z" fill="#814C2E"/>
<path d="M0 4.8872V4.06445L14.4236 12.2714V13.0941L0 4.8872Z" fill="#3B2015"/>
<path d="M21.0501 8.43115V9.25048L14.4238 13.0945V12.2718L21.0501 8.43115Z" fill="#552A11"/>
<path d="M6.52707 19.212L6.30176 19.3452C6.33415 19.3305 6.36984 19.3247 6.40522 19.3283C6.4406 19.3319 6.4744 19.3448 6.50318 19.3656L6.72849 19.2325C6.69943 19.2122 6.66568 19.1997 6.63043 19.1961C6.59519 19.1926 6.55962 19.198 6.52707 19.212Z" fill="#FF9900"/>
<path d="M6.50332 19.3658L6.72863 19.2326C6.70068 19.2174 6.67083 19.2059 6.63987 19.1985L6.41797 19.3316C6.44783 19.3391 6.47654 19.3506 6.50332 19.3658Z" fill="#FF9900"/>
<path d="M6.42955 19.3315L6.65145 19.1984C6.61606 19.1862 6.57759 19.1862 6.5422 19.1984L6.31689 19.3349C6.35309 19.3207 6.39335 19.3207 6.42955 19.3349V19.3315Z" fill="#FF9900"/>
<path d="M6.30518 19.3453L6.53048 19.2087L6.30518 19.3419V19.3453Z" fill="#FF9900"/>
<path d="M6.70484 20.0315L6.93015 19.8984C6.958 19.8784 6.9802 19.8515 6.99456 19.8204C7.00892 19.7893 7.01496 19.755 7.01208 19.7208C7.00702 19.6228 6.97869 19.5274 6.92941 19.4425C6.88014 19.3576 6.81135 19.2857 6.72873 19.2327L6.50342 19.3658C6.58558 19.4185 6.65408 19.4899 6.70333 19.5741C6.75259 19.6584 6.78118 19.7531 6.78676 19.8506C6.79025 19.8853 6.78451 19.9203 6.77013 19.9521C6.75574 19.9838 6.73322 20.0112 6.70484 20.0315Z" fill="#FF9900"/>
<path d="M6.70605 20.0311L6.93137 19.898C6.95922 19.878 6.98142 19.8511 6.99578 19.82C7.01014 19.7889 7.01617 19.7546 7.0133 19.7204C7.01221 19.6459 6.99473 19.5724 6.9621 19.5054L6.73678 19.6385C6.76779 19.7049 6.7852 19.7769 6.78798 19.8502C6.79147 19.8849 6.78573 19.9199 6.77135 19.9517C6.75696 19.9834 6.73444 20.0108 6.70605 20.0311Z" fill="#FF9900"/>
<path d="M6.73621 19.6386L6.96153 19.5054C6.93625 19.4504 6.90413 19.3988 6.86594 19.3518L6.64062 19.485C6.68071 19.5306 6.713 19.5825 6.73621 19.6386Z" fill="#FF9900"/>
<path d="M6.64144 19.4919L6.86675 19.3587C6.82893 19.3109 6.78265 19.2704 6.7302 19.2393L6.50488 19.3724C6.55656 19.4046 6.60267 19.4449 6.64144 19.4919Z" fill="#FF9900"/>
<path d="M6.50307 19.366C6.34604 19.2772 6.21973 19.366 6.21973 19.5264C6.22467 19.6236 6.25261 19.7183 6.30128 19.8025C6.34995 19.8868 6.41794 19.9583 6.49966 20.0112C6.65669 20.1034 6.78642 20.0317 6.78642 19.8507C6.78083 19.7533 6.75224 19.6586 6.70299 19.5743C6.65374 19.49 6.58523 19.4187 6.50307 19.366Z" fill="#FF9900"/>
<path d="M7.59592 19.8322L7.37061 19.9619C7.40315 19.9479 7.43872 19.9425 7.47397 19.946C7.50921 19.9496 7.54296 19.9621 7.57202 19.9824L7.79392 19.8322C7.76382 19.8148 7.72967 19.8057 7.69492 19.8057C7.66016 19.8057 7.62602 19.8148 7.59592 19.8322Z" fill="#FF9900"/>
<path d="M7.56972 19.97L7.79162 19.8335C7.76512 19.8177 7.73632 19.8062 7.70627 19.7993L7.48096 19.9325C7.51101 19.9393 7.5398 19.9509 7.5663 19.9666L7.56972 19.97Z" fill="#FF9900"/>
<path d="M7.48473 19.9358L7.71005 19.8026C7.67441 19.792 7.63644 19.792 7.60081 19.8026L7.37549 19.9392C7.41055 19.9251 7.44968 19.9251 7.48473 19.9392V19.9358Z" fill="#FF9900"/>
<path d="M7.375 19.9493L7.60032 19.8127L7.375 19.9425V19.9493Z" fill="#FF9900"/>
<path d="M7.77368 20.6382L7.999 20.5016C8.02737 20.4822 8.04995 20.4554 8.06437 20.4241C8.07879 20.3929 8.08451 20.3583 8.08093 20.3241C8.07689 20.225 8.04864 20.1284 7.99866 20.0427C7.94867 19.957 7.87846 19.8848 7.79416 19.8325L7.56885 19.9657C7.65146 20.0187 7.72025 20.0906 7.76953 20.1755C7.8188 20.2604 7.84715 20.3558 7.8522 20.4538C7.85634 20.4888 7.85127 20.5241 7.83749 20.5565C7.82372 20.5888 7.80172 20.617 7.77368 20.6382Z" fill="#FF9900"/>
<path d="M7.77148 20.6395L7.9968 20.5029C8.02517 20.4835 8.04776 20.4567 8.06218 20.4255C8.0766 20.3942 8.08232 20.3597 8.07873 20.3254C8.07729 20.2513 8.06105 20.1781 8.03094 20.1104L7.80563 20.2435C7.83573 20.3113 7.85198 20.3844 7.85341 20.4586C7.85656 20.4932 7.85067 20.5281 7.83631 20.5598C7.82195 20.5915 7.79961 20.619 7.77148 20.6395Z" fill="#FF9900"/>
<path d="M7.79188 20.2436L8.01719 20.1104C7.99065 20.0561 7.95862 20.0046 7.92161 19.9568L7.69629 20.0899C7.7333 20.1377 7.76533 20.1892 7.79188 20.2436Z" fill="#FF9900"/>
<path d="M7.71028 20.09L7.9356 19.9569C7.89584 19.9074 7.84721 19.8657 7.79221 19.834L7.56689 19.9671C7.61964 19.9992 7.6669 20.0395 7.70686 20.0866L7.71028 20.09Z" fill="#FF9900"/>
<path d="M7.57193 19.969C7.41489 19.8802 7.28857 19.9519 7.28857 20.1294C7.29416 20.2269 7.32275 20.3216 7.372 20.4059C7.42126 20.4901 7.48977 20.5615 7.57193 20.6142C7.72897 20.7064 7.85528 20.6347 7.85528 20.4572C7.85022 20.3591 7.82188 20.2637 7.77261 20.1788C7.72333 20.0939 7.65454 20.022 7.57193 19.969Z" fill="#FF9900"/>
<path d="M28.8507 26.5378L28.837 31.7952L22.8218 35.291L22.8354 30.0336L28.8507 26.5378Z" fill="#C5975B"/>
<path d="M22.8357 30.0339L22.822 35.2912L15.7178 31.157L15.7314 25.8962L22.8357 30.0339Z" fill="#DAAF6A"/>
<path d="M28.851 26.538L22.8357 30.0338L15.7314 25.8962L21.7467 22.4038L28.851 26.538Z" fill="#EFD996"/>
<path d="M19.4038 23.7625L18.1611 24.4862L25.2654 28.6204L26.5115 27.8967L19.4038 23.7625Z" fill="#F7ECEA"/>
<path d="M25.2695 28.6207L26.5122 27.897V29.1533L25.2695 29.8702V28.6207Z" fill="#C2AB9D"/>
<path d="M28.2127 31.4919V31.6148L27.2739 32.1576V32.0347L28.2127 31.4919Z" fill="#5C4123"/>
<path d="M28.031 31.526L27.9252 31.5875V30.9252L27.8193 30.9866L27.9764 30.6213L28.1334 30.8023L28.031 30.8637V31.526Z" fill="#5C4123"/>
<path d="M27.5569 31.799L27.451 31.857V31.1981L27.3486 31.2596L27.5057 30.8909L27.6627 31.0752L27.5569 31.1367V31.799Z" fill="#5C4123"/>
<path d="M26.959 32.2359V31.3141C26.9685 31.21 27.0026 31.1097 27.0584 31.0213C27.1141 30.9329 27.19 30.8589 27.2799 30.8055L28.2016 30.2729C28.3791 30.1671 28.543 30.2285 28.543 30.4061V31.3312C28.5297 31.4367 28.4918 31.5377 28.4326 31.626C28.3733 31.7143 28.2942 31.7875 28.2016 31.8399L27.2799 32.3724C27.1024 32.4646 26.959 32.4134 26.959 32.2359ZM27.2799 30.8703C27.2077 30.9129 27.1466 30.9718 27.1016 31.0424C27.0565 31.113 27.0287 31.1932 27.0204 31.2766V32.1983C27.0204 32.3383 27.1365 32.3895 27.2799 32.3076L28.2016 31.775C28.2736 31.7323 28.3345 31.6733 28.3796 31.6027C28.4247 31.5322 28.4526 31.452 28.4611 31.3688V30.4436C28.4611 30.3036 28.345 30.2524 28.2016 30.3378L27.2799 30.8703Z" fill="#5C4123"/>
<path d="M25.1431 33.2841V32.3623C25.1542 32.2586 25.1889 32.1589 25.2445 32.0707C25.3001 31.9826 25.3752 31.9083 25.464 31.8536L26.3857 31.3211C26.5632 31.2187 26.7271 31.2767 26.7271 31.4576V32.3794C26.7137 32.4849 26.6759 32.5858 26.6167 32.6741C26.5574 32.7625 26.4783 32.8357 26.3857 32.888L25.464 33.4206C25.2864 33.523 25.1431 33.4616 25.1431 33.2841ZM25.464 31.9185C25.3921 31.961 25.3314 32.02 25.2869 32.0907C25.2423 32.1613 25.2153 32.2416 25.2079 32.3248V33.2465C25.2079 33.3865 25.3206 33.4377 25.464 33.3557L26.3857 32.8232C26.4577 32.7804 26.5186 32.7214 26.5637 32.6509C26.6087 32.5803 26.6366 32.5002 26.6452 32.4169V31.4952C26.6452 31.3518 26.5291 31.304 26.3857 31.3859L25.464 31.9185Z" fill="#5C4123"/>
<path d="M23.8662 33.3318C23.8662 33.4752 23.9652 33.5366 24.0915 33.4786V33.9326L23.9311 34.0248V34.0828L24.2895 33.878V33.8302L24.1291 33.9224V33.4547C24.1938 33.408 24.2475 33.3478 24.2864 33.2782C24.3253 33.2086 24.3485 33.1314 24.3544 33.0518V32.7104L23.8662 32.9938V33.3318Z" fill="#5C4123"/>
<path d="M23.3267 34.3321V33.4104C23.3378 33.3067 23.3725 33.207 23.4281 33.1188C23.4837 33.0306 23.5588 32.9564 23.6476 32.9017L24.5693 32.3692C24.7468 32.2667 24.8936 32.3282 24.8936 32.5057V33.4275C24.8821 33.5314 24.8469 33.6314 24.7907 33.7196C24.7345 33.8077 24.6587 33.8818 24.5693 33.9361L23.6476 34.4687C23.47 34.5711 23.3267 34.5131 23.3267 34.3321ZM23.6476 32.9666C23.5762 33.0097 23.516 33.0689 23.4715 33.1394C23.4271 33.21 23.3997 33.2899 23.3915 33.3728V34.2946C23.3915 34.438 23.5076 34.4858 23.6476 34.4038L24.5693 33.8713C24.6413 33.8285 24.7022 33.7695 24.7473 33.6989C24.7923 33.6284 24.8202 33.5483 24.8288 33.465V32.5433C24.8288 32.3999 24.7127 32.3521 24.5693 32.434L23.6476 32.9666Z" fill="#5C4123"/>
<g style="mix-blend-mode:multiply" opacity="0.5">
<g style="mix-blend-mode:multiply" opacity="0.5">
<path d="M28.0485 26.0705L21.9582 29.5117L18.0493 27.2449L24.1431 23.8003L28.0485 26.0705Z" fill="#D2BD95"/>
</g>
</g>
<path d="M20.9026 29.8396L19.025 28.7472L18.0725 28.1941L16.2871 27.1563L16.2769 23.1211L18.0725 24.1657L18.192 24.234L20.8924 25.8044L20.9026 29.8396Z" fill="#BB884F"/>
<path d="M27.6418 25.9478L24.7503 27.6206L23.791 28.1736L20.9028 29.8396L20.8926 25.8044L23.791 24.1316L24.7503 23.5786L27.6316 21.9126L27.6418 25.9478Z" fill="#E0B477"/>
<path d="M27.6319 21.9123L24.7506 23.5783L23.7913 24.1313L20.8929 25.8041L16.2773 23.1208L19.1621 21.4583L20.1179 20.9052L23.0163 19.2324L27.6319 21.9123Z" fill="#EFCD90"/>
<g style="mix-blend-mode:multiply" opacity="0.5">
<g style="mix-blend-mode:multiply" opacity="0.5">
<path d="M24.6202 23.6569L23.6609 24.21L19.0317 21.5369L19.991 20.9805L24.6202 23.6569Z" fill="#E4CDBF"/>
</g>
</g>
<g style="mix-blend-mode:multiply" opacity="0.5">
<path d="M24.6214 23.657V27.699L23.6621 28.2521V24.21L24.6214 23.657Z" fill="#E4CDBF"/>
</g>
<path d="M24.7474 23.5784V27.6204L23.7881 28.1734V24.1314L24.7474 23.5784Z" fill="#C2AB9D"/>
<path d="M24.7506 23.5783L23.7913 24.1314L19.1621 21.4583L20.118 20.9053L24.7506 23.5783Z" fill="#F7ECEA"/>
<g style="mix-blend-mode:multiply" opacity="0.6">
<g style="mix-blend-mode:multiply" opacity="0.6">
<path d="M24.9275 20.3418L25.8833 20.8948L19.1444 24.7867L18.1885 24.2336L24.9275 20.3418Z" fill="#F7ECEA"/>
</g>
</g>
<g style="mix-blend-mode:multiply" opacity="0.6">
<path d="M19.1409 24.7869V28.8153L18.1885 28.2623V24.2339L18.308 24.3022L19.1409 24.7869Z" fill="#C2AB9D"/>
</g>
<path d="M24.8122 20.2737L25.7681 20.8301L19.0291 24.722L18.0732 24.1655L24.8122 20.2737Z" fill="#F7ECEA"/>
<path d="M19.0257 24.722V28.7469L18.0732 28.1939V24.1655L18.1927 24.2338L19.0257 24.722Z" fill="#C2AB9D"/>
<path d="M16.1989 29.5291L12.6655 31.5705L16.2023 33.6257V29.5291H16.1989Z" fill="#E0B477"/>
<path d="M11.4604 31.7105L12.6655 31.5705L16.1989 29.5291L14.9904 29.669L11.4604 31.7105Z" fill="#BB884F"/>
<path d="M21.0084 31.7617L19.7999 31.6218L16.1982 29.5291L17.4102 29.669L21.0084 31.7617Z" fill="#BB884F"/>
<path d="M19.8004 31.6218L16.2021 29.5291V33.6257L16.267 33.6632L19.8004 31.6218Z" fill="#5C4123"/>
<path d="M19.5619 28.0271C19.5527 28.0965 19.5379 28.165 19.5175 28.232C19.4897 28.3288 19.4495 28.4218 19.398 28.5085C19.3366 28.6041 19.2513 28.6792 19.1454 28.6553C19.0947 28.6393 19.0481 28.6125 19.0089 28.5768C18.9458 28.5373 18.8795 28.503 18.8109 28.4743L18.7426 28.4368C18.1895 28.1295 19.043 27.6857 19.3264 27.5697L19.4117 27.5355C19.4493 27.5355 19.5005 27.5116 19.5278 27.5355C19.5382 27.5453 19.5443 27.5588 19.5448 27.5731C19.5665 27.6774 19.5745 27.7841 19.5687 27.8906C19.5703 27.9201 19.5703 27.9498 19.5687 27.9793C19.5613 27.9941 19.5589 28.0109 19.5619 28.0271Z" fill="#CFACAA"/>
<path d="M16.5291 28.0272C16.5423 28.1142 16.5629 28.1998 16.5905 28.2833C16.6302 28.4031 16.684 28.5177 16.751 28.6247C16.8329 28.7442 16.9422 28.8363 17.0753 28.8022C17.1366 28.778 17.1932 28.7434 17.2426 28.6998C17.3189 28.6448 17.4 28.5968 17.485 28.5564L17.5703 28.5086C18.2531 28.0989 17.1607 27.5664 16.8022 27.4298L16.693 27.3923C16.6452 27.3923 16.5803 27.365 16.5462 27.3923C16.5359 27.4065 16.5289 27.4228 16.5257 27.4401C16.503 27.5731 16.4972 27.7084 16.5086 27.8429C16.5086 27.8804 16.5086 27.918 16.5086 27.9556C16.5092 27.9808 16.5162 28.0055 16.5291 28.0272Z" fill="#818181"/>
<path d="M16.6078 28.0986C16.6203 28.1694 16.6386 28.2391 16.6624 28.3069C16.6934 28.4065 16.737 28.5017 16.7921 28.5902C16.8153 28.6387 16.8532 28.6786 16.9004 28.7044C16.9476 28.7301 17.0017 28.7403 17.055 28.7336C17.105 28.7151 17.1504 28.686 17.1881 28.6483C17.251 28.6054 17.3172 28.5678 17.3861 28.5356L17.4544 28.4981C18.0074 28.1567 17.113 27.7299 16.8297 27.6207L16.7443 27.59C16.7033 27.59 16.6521 27.5661 16.6248 27.59C16.6157 27.6006 16.6098 27.6137 16.6078 27.6275C16.591 27.7407 16.591 27.8557 16.6078 27.9689C16.6061 27.9985 16.6061 28.0281 16.6078 28.0577C16.6078 28.0577 16.6078 28.0884 16.6078 28.0986Z" fill="#CFACAA"/>
<path d="M12.7642 28.4539L12.6447 28.4027C12.3662 28.2966 12.0606 28.2845 11.7746 28.3684C11.4886 28.4522 11.2379 28.6273 11.0607 28.8669C11.0261 28.9042 11.0025 28.9503 10.9924 29.0001C10.9907 29.0377 10.9997 29.075 11.0185 29.1077C11.0372 29.1403 11.0649 29.1669 11.0982 29.1844C11.1642 29.2206 11.2375 29.2412 11.3126 29.2447C11.3878 29.2483 11.4627 29.2347 11.5318 29.2049C11.7997 29.0806 12.1021 29.0517 12.3887 29.123C12.5674 29.1751 12.733 29.2648 12.8743 29.3861C13.0156 29.5074 13.1294 29.6574 13.208 29.8262C13.4128 30.2291 13.3343 31.1918 13.3309 31.6492C13.3309 32.332 13.0339 32.7963 13.208 33.1445C13.2558 33.2401 13.8669 33.0319 14.0068 33.025C14.2526 33.025 14.2697 31.7653 14.3073 31.5024C14.4093 30.8384 14.2969 30.1591 13.9864 29.5634C13.7137 29.0679 13.2836 28.6775 12.7642 28.4539Z" fill="#585657"/>
<path d="M18.2574 31.2736C18.117 31.6212 18.0096 31.9812 17.9365 32.3489C17.9267 32.5433 17.8993 32.7364 17.8546 32.9259C17.7522 33.2399 17.899 33.851 17.6258 34.0354C17.5512 34.0787 17.4722 34.1142 17.3903 34.1412C17.2981 34.1754 17.182 34.2095 17.0489 34.2436C16.8406 34.3017 16.5914 34.3597 16.3183 34.4075C15.7445 34.5144 15.1607 34.559 14.5773 34.5406C13.8364 34.5099 13.6623 33.4345 13.6077 33.0283C13.5523 32.4986 13.6624 31.9647 13.9229 31.5001C14.1833 31.0355 14.5813 30.663 15.062 30.4337C16.1408 29.8534 17.0591 29.0682 16.9943 28.9351L17.6497 29.413C17.8296 29.4474 17.9952 29.5346 18.1253 29.6635C18.2555 29.7924 18.3442 29.9572 18.3803 30.1367C18.3787 30.1469 18.3787 30.1573 18.3803 30.1675C18.4365 30.5406 18.3941 30.9219 18.2574 31.2736Z" fill="#5D5D5D"/>
<path d="M17.6226 31.3385C17.4677 31.4276 17.3323 31.547 17.2244 31.6895C17.1165 31.832 17.0383 31.9947 16.9945 32.168C16.7893 32.8544 16.7634 33.582 16.9194 34.2812L17.0525 34.2437C17.1822 34.2095 17.2983 34.1754 17.3939 34.1413C17.4758 34.1142 17.5548 34.0787 17.6294 34.0354C17.9026 33.8511 17.7558 33.24 17.8582 32.9259C17.9029 32.7365 17.9303 32.5434 17.9401 32.349C18.0125 31.9837 18.1188 31.626 18.2576 31.2804C18.0463 31.2177 17.819 31.2385 17.6226 31.3385Z" fill="#4B4B4B"/>
<path d="M18.2575 31.2736C18.0473 31.2118 17.8214 31.2325 17.6259 31.3316C17.471 31.4208 17.3356 31.5401 17.2277 31.6826C17.1198 31.8251 17.0416 31.9879 16.9978 32.1612C16.7926 32.8476 16.7667 33.5751 16.9227 34.2743C16.7452 34.3187 16.5403 34.3631 16.3253 34.4007C15.7514 34.5076 15.1676 34.5522 14.5842 34.5338C13.8434 34.5031 13.6693 33.4277 13.6146 33.0215C13.5612 32.5581 13.6381 32.089 13.8365 31.6669C14.0349 31.2448 14.347 30.8863 14.7378 30.6317C14.8474 30.5567 14.9614 30.4883 15.0792 30.4269C15.1475 30.3928 15.2123 30.3552 15.2772 30.3177C15.3421 30.2801 15.5025 30.1879 15.6186 30.1197L15.9361 29.9114C16.0453 29.8363 16.1512 29.7612 16.2467 29.6895C16.3423 29.6178 16.3969 29.5769 16.4652 29.5257C16.8305 29.2286 17.0524 28.9931 17.0217 28.9282L17.6772 29.4062C17.8571 29.4406 18.0226 29.5278 18.1528 29.6567C18.2829 29.7856 18.3716 29.9503 18.4077 30.1299C18.4061 30.1401 18.4061 30.1505 18.4077 30.1606C18.4564 30.5384 18.4046 30.9223 18.2575 31.2736Z" fill="#5D5D5D"/>
<path d="M16.0858 31.4954C15.6963 31.2044 15.2893 30.9377 14.867 30.6966C14.8227 30.6761 14.7817 30.6556 14.7339 30.6385C14.8435 30.5635 14.9575 30.4951 15.0753 30.4337C15.1436 30.3996 15.2084 30.362 15.2733 30.3245L15.9083 31.055C15.9697 31.1099 16.0177 31.1781 16.0484 31.2545C16.0792 31.3309 16.092 31.4133 16.0858 31.4954Z" fill="#4B4B4B"/>
<path d="M16.6696 31.1577C16.6696 31.1577 16.6696 31.1918 16.6696 31.1987C16.6646 31.202 16.6586 31.2038 16.6526 31.2038C16.6465 31.2038 16.6405 31.202 16.6355 31.1987C16.5675 31.1626 16.5099 31.1097 16.4682 31.045C16.2087 30.7133 15.9184 30.407 15.6011 30.1301L15.9186 29.9219C16.0312 30.0414 16.1473 30.1574 16.2599 30.2633C16.5002 30.502 16.6458 30.8198 16.6696 31.1577Z" fill="#4B4B4B"/>
<path d="M16.8679 30.69C16.8269 30.69 16.7996 30.6491 16.7791 30.6149C16.605 30.3213 16.4377 30.0311 16.25 29.741L16.2227 29.6966C16.3012 29.642 16.3729 29.5839 16.4411 29.5327C16.5006 29.6002 16.5565 29.6709 16.6084 29.7444C16.7148 29.8786 16.8 30.0282 16.861 30.1882C16.9247 30.349 16.9271 30.5275 16.8679 30.69Z" fill="#4B4B4B"/>
<path d="M16.328 32.0589C16.287 32.233 16.2426 32.4002 16.1982 32.5709C16.1456 32.259 15.9787 31.9778 15.73 31.7821C15.4814 31.5865 15.1688 31.4904 14.8532 31.5126C14.2523 31.5536 16.0344 33.363 16.0685 33.7317C16.0924 33.9706 16.1299 34.2028 16.1743 34.4144L16.3211 34.3905C16.5362 34.353 16.741 34.3086 16.9186 34.2642C16.7626 33.565 16.7885 32.8374 16.9937 32.151C17.0375 31.9777 17.1157 31.815 17.2236 31.6725C17.3315 31.53 17.4669 31.4106 17.6218 31.3215C17.8173 31.2224 18.0431 31.2016 18.2534 31.2634C18.2993 31.1305 18.3369 30.9948 18.366 30.8572C17.8725 30.8838 17.3879 30.9994 16.9356 31.1986C16.7726 31.2825 16.6323 31.4046 16.5265 31.5543C16.4207 31.7041 16.3526 31.8772 16.328 32.0589Z" fill="#4B4B4B"/>
<path d="M17.1777 32.5844C17.2153 32.8029 17.6318 31.7446 17.7308 31.946C17.9185 32.3352 17.7581 33.9944 17.8605 34.4211C17.87 34.4479 17.878 34.4753 17.8844 34.503C17.8968 34.5833 17.9234 34.6608 17.9629 34.7318C18.0261 34.8167 18.1155 34.8785 18.2174 34.9075C18.3192 34.9365 18.4277 34.9311 18.5262 34.8922C18.6901 34.8376 18.9325 34.6157 18.8232 34.4245C18.7776 34.3507 18.7056 34.2969 18.6218 34.2743L18.5774 34.2538C18.5677 34.2371 18.5619 34.2184 18.5604 34.1992C18.3658 32.9907 19.5367 31.1745 18.615 29.6519C18.5501 29.5495 18.0517 30.42 17.9663 30.5088L17.5874 30.9048C17.4986 31.4749 17.0821 32.0075 17.1777 32.5844Z" fill="#5D5D5D"/>
<path d="M17.4654 30.6727C17.4145 30.6641 17.3626 30.6641 17.3117 30.6727C17.1224 30.7041 16.9505 30.8022 16.827 30.9492C16.7486 31.0474 16.6832 31.1552 16.6324 31.2701C16.5954 32.3432 16.6456 33.4176 16.7826 34.4825C16.7826 34.5372 16.8133 34.5918 16.8236 34.6498C16.8389 34.7283 16.8653 34.8041 16.9021 34.8751C16.9662 34.9599 17.0562 35.0215 17.1585 35.0504C17.2608 35.0794 17.3697 35.0742 17.4688 35.0356C17.6326 34.981 17.875 34.7591 17.7658 34.5679C17.7202 34.494 17.6482 34.4403 17.5644 34.4177C17.5443 34.4128 17.5257 34.4035 17.5097 34.3904C17.5051 34.3736 17.5051 34.3559 17.5097 34.3392C17.4619 33.9636 17.5473 32.3864 17.7282 32.0143C17.9672 31.4886 18.0082 30.9321 17.4654 30.6727Z" fill="#5D5D5D"/>
<path d="M18.499 30.5089C18.5569 30.3619 18.6376 30.2248 18.7379 30.1027C18.7186 30.0717 18.6944 30.044 18.6662 30.0207C18.3265 29.8187 17.9529 29.6799 17.5636 29.6111L17.2666 29.9798L17.2256 30.0685C17.3863 30.2935 17.5022 30.5474 17.567 30.8162C17.6353 31.0449 17.5192 31.5843 17.9391 31.5843C18.359 31.5843 18.3556 30.8401 18.499 30.5089Z" fill="#C5C3CE"/>
<path d="M17.8613 34.4212C17.8709 34.448 17.8788 34.4754 17.8852 34.5031C17.8976 34.5834 17.9242 34.6609 17.9638 34.7318C18.0269 34.8168 18.1163 34.8786 18.2182 34.9076C18.32 34.9366 18.4286 34.9312 18.527 34.8923C18.6909 34.8377 18.9333 34.6158 18.824 34.4246C18.7784 34.3507 18.7064 34.297 18.6226 34.2744L18.5782 34.2539C18.4787 34.3333 18.3627 34.3895 18.2387 34.4185C18.1147 34.4474 17.9857 34.4483 17.8613 34.4212Z" fill="#C3C1CC"/>
<path d="M18.6771 27.8665C18.4347 27.7694 18.1721 27.7331 17.9124 27.7607C17.7504 27.7707 17.5912 27.8076 17.4413 27.8699C17.1934 27.9785 16.987 28.1639 16.8524 28.3987C16.7178 28.6334 16.6621 28.9052 16.6937 29.174C16.7036 29.2332 16.7185 29.2914 16.738 29.3481C16.7243 29.3025 16.7243 29.2538 16.738 29.2082C16.7759 29.3976 16.8439 29.5797 16.9395 29.7476L16.8951 29.5837C16.948 29.7509 17.0366 29.9046 17.1545 30.0343C17.2617 30.1583 17.3935 30.2585 17.5417 30.3285C17.6899 30.3984 17.851 30.4366 18.0148 30.4406C18.1897 30.4405 18.3628 30.4044 18.5231 30.3345C18.6835 30.2646 18.8277 30.1624 18.9468 30.0343C19.0618 29.903 19.1489 29.7497 19.2029 29.5837L19.1585 29.7476C19.254 29.5797 19.322 29.3976 19.3599 29.2082C19.3737 29.2538 19.3737 29.3025 19.3599 29.3481C19.3795 29.2914 19.3943 29.2332 19.4043 29.174C19.4393 28.9069 19.3875 28.6357 19.2566 28.4002C19.1256 28.1648 18.9225 27.9777 18.6771 27.8665Z" fill="#818181"/>
<path d="M16.7832 34.4828C16.7832 34.5374 16.8139 34.592 16.8242 34.6501C16.8395 34.7285 16.8659 34.8044 16.9027 34.8754C16.9668 34.9602 17.0568 35.0217 17.1591 35.0507C17.2614 35.0797 17.3703 35.0745 17.4694 35.0358C17.6333 34.9812 17.8756 34.7593 17.7664 34.5681C17.7208 34.4943 17.6488 34.4406 17.565 34.4179C17.5449 34.4131 17.5263 34.4037 17.5104 34.3906C17.3557 34.4976 17.1685 34.5471 16.9812 34.5306C16.9133 34.5239 16.8467 34.5079 16.7832 34.4828Z" fill="#C3C1CC"/>
<path d="M18.3255 28.6892C18.3255 28.7405 18.4382 28.7643 18.5509 28.7405C18.6635 28.7166 18.7489 28.6551 18.7386 28.6039C18.7284 28.5527 18.626 28.5254 18.5133 28.5493C18.4006 28.5732 18.3153 28.638 18.3255 28.6892Z" fill="#C5C3CE"/>
<path d="M17.7723 28.6892C17.7723 28.7405 17.6597 28.7643 17.547 28.7405C17.4343 28.7166 17.349 28.6551 17.3592 28.6039C17.3695 28.5527 17.4719 28.5254 17.588 28.5493C17.704 28.5732 17.786 28.638 17.7723 28.6892Z" fill="#C5C3CE"/>
<path d="M15.6452 31.8095C15.5041 31.6794 15.3328 31.5867 15.1467 31.5398C15.0016 31.5125 14.8534 31.5056 14.7064 31.5193C14.4913 31.5187 14.2798 31.5749 14.0934 31.6822C13.907 31.7895 13.7522 31.9441 13.6446 32.1304C13.4496 32.4792 13.3923 32.8885 13.4842 33.2775C13.5387 33.6377 13.6767 33.9802 13.887 34.2777C13.8187 34.3153 13.7675 34.6191 13.9382 34.6976C14.1089 34.7761 15.2526 35.039 15.4711 34.9742C15.6247 34.9195 15.6861 34.6328 15.5564 34.5679C15.4267 34.503 15.215 34.5303 15.0341 34.4689C15.1509 34.3835 15.2768 34.3113 15.4096 34.2538C15.6206 34.1371 15.7998 33.9707 15.9319 33.7691C16.064 33.5674 16.1448 33.3365 16.1675 33.0965C16.1842 32.8564 16.1458 32.6156 16.0553 32.3926C15.9648 32.1695 15.8245 31.9701 15.6452 31.8095Z" fill="#5D5D5D"/>
<path d="M16.2667 33.663L16.2496 36.5068L12.6479 34.4175L12.665 31.5703L16.2667 33.663Z" fill="#BB884F"/>
<g style="mix-blend-mode:multiply" opacity="0.2">
<path d="M16.2667 33.663L15.5975 35.2334L12.6479 33.6187V32.6082L16.2667 33.663Z" fill="#BB884F"/>
</g>
<path d="M16.2668 33.663L15.4577 34.9227L11.938 32.7481L12.6651 31.5703L16.2668 33.663Z" fill="#CB9558"/>
<path d="M19.7995 31.6213L19.779 34.4651L16.249 36.5066L16.2661 33.6628L19.7995 31.6213Z" fill="#E0B477"/>
<path d="M16.1982 33.714L16.8162 35.2332L19.7862 33.6184L19.6838 32.1812L16.1982 33.714Z" fill="#BB884F"/>
<path d="M16.2666 33.6628L17.0108 34.9703L20.609 32.8776L19.8 31.6213L16.2666 33.6628Z" fill="#F5D09C"/>
<path d="M18.9266 29.1021C18.8977 29.0372 18.8493 28.9829 18.7882 28.9468C18.727 28.9107 18.656 28.8946 18.5852 28.9007C18.5133 28.9138 18.4475 28.9497 18.3975 29.0031C18.3633 29.0407 18.3053 29.1158 18.3531 29.1636C18.4009 29.2114 18.3531 29.1636 18.3531 29.1636C18.3531 29.1636 18.3975 29.0919 18.4282 29.0611C18.4697 29.0137 18.5264 28.9823 18.5886 28.9724C18.6489 28.9648 18.7101 28.9735 18.7659 28.9975C18.8218 29.0215 18.8701 29.06 18.9061 29.1089C18.9061 29.1089 18.9334 29.1089 18.9266 29.1021Z" fill="#2B2B2B"/>
<path d="M16.909 29.3923L17.0592 29.4196C17.1367 29.4397 17.2121 29.4671 17.2845 29.5015C17.3323 29.5254 17.4142 29.5493 17.4313 29.6039C17.2333 29.5527 17.0455 29.4708 16.8441 29.4298C16.6693 29.3976 16.4925 29.3771 16.3149 29.3684C16.3654 29.3511 16.4188 29.3442 16.472 29.3479C16.5949 29.3479 16.7212 29.3684 16.8441 29.382L16.909 29.3923Z" fill="#C5C3CE"/>
<path d="M16.8333 29.6859L16.9801 29.6518C17.0596 29.6451 17.1396 29.6451 17.2191 29.6518C17.2703 29.6518 17.3591 29.6518 17.3966 29.6859C17.1918 29.72 16.9869 29.72 16.7855 29.761C16.613 29.8018 16.4431 29.8531 16.2769 29.9146C16.3151 29.8775 16.3621 29.8505 16.4134 29.8361C16.5295 29.7883 16.649 29.7542 16.7548 29.7166L16.8333 29.6859Z" fill="#C5C3CE"/>
<path d="M16.8988 29.9112L17.0354 29.8395C17.1092 29.8084 17.1858 29.7844 17.2641 29.7678C17.3119 29.7678 17.3938 29.7234 17.4416 29.7678C17.2539 29.8497 17.0525 29.9009 16.8681 29.9931C16.7106 30.0735 16.5589 30.1647 16.4141 30.2662C16.4422 30.2203 16.4808 30.1817 16.5267 30.1535C16.6291 30.0818 16.735 30.017 16.8442 29.9521L16.8988 29.9112Z" fill="#C5C3CE"/>
<path d="M17.0553 30.1499C17.0894 30.1124 17.1235 30.0748 17.1611 30.0407C17.2213 29.9869 17.2865 29.9389 17.3557 29.8973C17.4001 29.8734 17.4683 29.8154 17.5195 29.8324C17.3693 29.969 17.1952 30.0817 17.0484 30.225C16.9247 30.3518 16.8105 30.4875 16.707 30.6313C16.7182 30.5788 16.7416 30.5297 16.7753 30.4879C16.8504 30.3855 16.9324 30.2899 17.0143 30.1977C17.0262 30.1804 17.0399 30.1643 17.0553 30.1499Z" fill="#C5C3CE"/>
<path d="M19.3392 29.3923L19.189 29.4196C19.1115 29.4397 19.036 29.4671 18.9637 29.5015C18.9159 29.5254 18.834 29.5493 18.8169 29.6039C19.0149 29.5527 19.2027 29.4708 19.4075 29.4298C19.5811 29.3974 19.7568 29.3769 19.9332 29.3684C19.8828 29.3511 19.8294 29.3442 19.7762 29.3479C19.6533 29.3479 19.527 29.3684 19.4041 29.382L19.3392 29.3923Z" fill="#C5C3CE"/>
<path d="M19.4183 29.686L19.268 29.6518C19.1885 29.645 19.1086 29.645 19.0291 29.6518C18.9779 29.6518 18.8891 29.6518 18.8516 29.686C19.0564 29.7201 19.2612 29.7201 19.4626 29.7611C19.6352 29.8019 19.805 29.8532 19.9713 29.9147C19.933 29.8776 19.8861 29.8506 19.8347 29.8362C19.7187 29.7884 19.5992 29.7542 19.4934 29.7167L19.4183 29.686Z" fill="#C5C3CE"/>
<path d="M19.3494 29.9112L19.2129 29.8395C19.1391 29.8084 19.0625 29.7844 18.9842 29.7678C18.9364 29.7678 18.8544 29.7234 18.8066 29.7678C18.9944 29.8497 19.1958 29.9009 19.3802 29.9931C19.5377 30.0735 19.6894 30.1647 19.8342 30.2662C19.807 30.2207 19.7696 30.1821 19.725 30.1535C19.6226 30.0818 19.5133 30.017 19.4075 29.9521L19.3494 29.9112Z" fill="#C5C3CE"/>
<path d="M19.1928 30.1499C19.1587 30.1124 19.1245 30.0748 19.087 30.0407C19.0267 29.9869 18.9616 29.9389 18.8924 29.8973C18.848 29.8734 18.7797 29.8154 18.7285 29.8324C18.8787 29.969 19.0699 30.0817 19.1996 30.225C19.3234 30.3518 19.4375 30.4875 19.541 30.6313C19.5298 30.5788 19.5065 30.5297 19.4727 30.4879C19.3976 30.3855 19.3157 30.2899 19.2338 30.1977C19.2219 30.1804 19.2081 30.1643 19.1928 30.1499Z" fill="#C5C3CE"/>
<path d="M18.0352 29.6891C18.0352 29.853 17.8542 29.9895 17.6289 29.9895C17.4036 29.9895 17.2261 29.853 17.2261 29.6891C17.2261 29.5252 17.407 29.3887 17.6289 29.3887C17.8508 29.3887 18.0352 29.5252 18.0352 29.6891Z" fill="#C5C3CE"/>
<path d="M18.1035 29.6891C18.1035 29.853 18.2844 29.9895 18.5064 29.9895C18.7283 29.9895 18.9126 29.853 18.9126 29.6891C18.9126 29.5252 18.7317 29.3887 18.5064 29.3887C18.281 29.3887 18.1035 29.5252 18.1035 29.6891Z" fill="#C5C3CE"/>
<path d="M17.8647 30.1092C17.8762 30.1521 17.9015 30.1899 17.9367 30.217C17.9718 30.244 18.015 30.2586 18.0593 30.2586C18.1037 30.2586 18.1468 30.244 18.182 30.217C18.2172 30.1899 18.2425 30.1521 18.2539 30.1092C18.2539 30.0273 18.1686 29.9624 18.0593 29.9624C17.9501 29.9624 17.8647 30.0273 17.8647 30.1092Z" fill="#C5C3CE"/>
<path d="M18.3046 29.5355C18.3046 29.614 18.0588 29.7062 18.0588 29.7062C18.0588 29.7062 17.813 29.614 17.813 29.5355C17.813 29.4569 17.9222 29.3887 18.0588 29.3887C18.1953 29.3887 18.3046 29.4535 18.3046 29.5355Z" fill="#2B2B2B"/>
<g style="mix-blend-mode:multiply" opacity="0.5">
<g style="mix-blend-mode:multiply" opacity="0.5">
<path d="M26.4399 22.1477L22.6062 24.3633L18.6973 22.0965L22.531 19.8774L26.4399 22.1477Z" fill="#D2BD95"/>
</g>
</g>
<path d="M25.7435 18.823L25.7264 22.271L22.3604 24.2169L22.3774 20.7723L25.7435 18.823Z" fill="#E0B477"/>
<path d="M22.3782 20.772L22.3611 24.2166L18.9302 22.2263L18.9473 18.7783L22.3782 20.772Z" fill="#BB884F"/>
<path d="M25.7443 18.8228L22.3782 20.7721L18.9473 18.7784L22.3133 16.8291L25.7443 18.8228Z" fill="#EFCD90"/>
<path d="M21.0021 17.5869L20.3057 17.9898L23.7366 19.9835L24.433 19.5806L21.0021 17.5869Z" fill="#F7ECEA"/>
<path d="M23.7407 19.9836L24.4337 19.5808V20.2841L23.7373 20.6835L23.7407 19.9836Z" fill="#C2AB9D"/>
<path d="M27.0278 33.9155C27.2268 33.8062 27.4407 33.7268 27.6628 33.6799C28.1122 33.5768 28.579 33.5768 29.0284 33.6799C29.2476 33.7323 29.458 33.8163 29.6531 33.9291C29.5541 33.8711 29.2639 33.9291 28.8952 34.11C28.7165 34.0192 28.5188 33.9718 28.3183 33.9718C28.1178 33.9718 27.9201 34.0192 27.7413 34.11C27.417 34.291 27.3999 34.5914 27.7174 34.7928C27.8962 34.8837 28.0939 34.931 28.2944 34.931C28.4949 34.931 28.6926 34.8837 28.8713 34.7928C29.2127 34.6119 29.2127 34.3149 28.8952 34.1271C29.2639 33.9564 29.5541 33.8881 29.6531 33.9462C29.7076 33.9795 29.76 34.0159 29.8101 34.0554C29.8727 34.1025 29.9309 34.1551 29.9842 34.2125C30.0339 34.2654 30.0775 34.3238 30.114 34.3866C30.1486 34.4445 30.1761 34.5064 30.1959 34.5709C30.3017 34.9123 30.1106 35.2981 29.6326 35.5644C29.2107 35.7739 28.7451 35.8806 28.274 35.8759C27.8029 35.8711 27.3397 35.755 26.922 35.537C26.485 35.2742 26.3177 34.9191 26.4167 34.5812C26.4363 34.5155 26.4638 34.4524 26.4987 34.3934C26.5355 34.3308 26.579 34.2724 26.6284 34.2193C26.7437 34.0965 26.8787 33.9938 27.0278 33.9155Z" fill="#872220"/>
<path d="M30.7729 31.6748C30.7773 31.6758 30.7716 31.668 30.7729 31.6748C30.7719 31.6746 30.7705 31.674 30.7685 31.6728L30.7378 31.6114C30.7378 31.5909 30.7139 31.5636 30.6968 31.5363L30.6763 31.5056C30.677 31.4976 30.677 31.4896 30.6763 31.4817C30.666 31.4665 30.6568 31.4505 30.649 31.4339L30.5978 31.3553L30.5808 31.3349L30.4988 31.229L30.4817 31.2085C30.4715 31.1969 30.4624 31.1843 30.4544 31.171L30.4237 31.1369L30.3691 31.0788C30.3595 31.0658 30.348 31.0543 30.335 31.0447H30.3179L30.2086 30.9423L30.1643 30.9047L30.1335 30.8774L30.0892 30.8433L30.0277 30.7989C29.9944 30.7711 29.9591 30.746 29.9219 30.7238H29.9048L29.8126 30.6657L29.6488 30.5736C29.5976 30.5463 29.5429 30.5224 29.4712 30.4916H29.4542C29.4556 30.4826 29.4556 30.4734 29.4542 30.4643V30.4234V30.3722C29.4559 30.3585 29.4559 30.3448 29.4542 30.3312V30.2629C29.453 30.3329 29.4329 30.4013 29.3961 30.4609C28.758 30.2338 28.0611 30.2338 27.4229 30.4609C27.3876 30.4073 27.3667 30.3456 27.3623 30.2818C27.3619 30.2755 27.3616 30.2692 27.3615 30.2629C27.3628 30.2691 27.3631 30.2755 27.3623 30.2818C27.3667 30.3456 27.3876 30.4073 27.4229 30.4609C28.0611 30.2338 28.758 30.2338 29.3961 30.4609C29.4329 30.4013 29.453 30.3329 29.4542 30.2629V30.3312C29.4559 30.3448 29.4559 30.3585 29.4542 30.3722V30.4234V30.4643C29.4556 30.4734 29.4556 30.4826 29.4542 30.4916H29.4712C29.5429 30.5224 29.5976 30.5463 29.6488 30.5736L29.8126 30.6657L29.9048 30.7238H29.9219C29.9591 30.746 29.9944 30.7711 30.0277 30.7989L30.0892 30.8433L30.1335 30.8774L30.1643 30.9047L30.2086 30.9423L30.3179 31.0447H30.335C30.348 31.0543 30.3595 31.0658 30.3691 31.0788L30.4237 31.1369L30.4544 31.171C30.4624 31.1843 30.4715 31.1969 30.4817 31.2085L30.4988 31.229L30.5808 31.3349L30.5978 31.3553L30.649 31.4339C30.6568 31.4505 30.666 31.4665 30.6763 31.4817C30.677 31.4896 30.677 31.4976 30.6763 31.5056L30.6968 31.5363C30.7139 31.5636 30.7378 31.5909 30.7378 31.6114L30.7685 31.6728C30.7705 31.674 30.7719 31.6746 30.7729 31.6748Z" fill="#D63A3B"/>
<path d="M29.3456 27.74C29.3361 27.8358 29.3009 27.9272 29.2439 28.0047C29.1868 28.0822 29.1099 28.1428 29.0213 28.1804C28.7916 28.2965 28.5379 28.357 28.2805 28.357C28.0231 28.357 27.7694 28.2965 27.5397 28.1804C27.459 28.1416 27.3899 28.0825 27.339 28.0089C27.2881 27.9352 27.2573 27.8496 27.2495 27.7605C27.2495 27.7605 27.2495 30.1024 27.2495 30.1502C27.259 30.2379 27.2906 30.3219 27.3414 30.3941C27.3921 30.4663 27.4604 30.5245 27.5397 30.5633C27.7689 30.681 28.0228 30.7424 28.2805 30.7424C28.5382 30.7424 28.7921 30.681 29.0213 30.5633C29.1092 30.5266 29.1856 30.467 29.2427 30.3908C29.2997 30.3145 29.3353 30.2244 29.3456 30.1297C29.349 30.0751 29.3456 27.74 29.3456 27.74Z" fill="#A62421"/>
<path d="M29.6155 27.4292C29.6142 27.3571 29.6016 27.2857 29.5779 27.2176C29.5578 27.1514 29.5267 27.089 29.4858 27.0332C29.4496 26.9775 29.4059 26.9269 29.356 26.883C29.3012 26.8341 29.2418 26.7907 29.1785 26.7533C28.9168 26.6038 28.6197 26.5271 28.3182 26.5314C28.1679 26.5284 28.0178 26.5433 27.871 26.5758C27.7243 26.6078 27.5829 26.6607 27.4511 26.7328C27.3162 26.8061 27.1996 26.9088 27.1097 27.0332C27.0646 27.0954 27.03 27.1646 27.0073 27.2381C26.9972 27.268 26.9904 27.2989 26.9868 27.3302C26.9868 27.361 26.9868 27.4053 26.9868 27.4361V27.4804C26.989 27.6125 27.028 27.7414 27.0995 27.8526C27.1869 27.9809 27.304 28.0863 27.4409 28.1598C27.5488 28.2205 27.6633 28.2686 27.7822 28.3032C27.8939 28.3356 28.0081 28.3584 28.1236 28.3715C28.2733 28.3888 28.4246 28.3888 28.5743 28.3715C28.5743 28.3715 28.6596 28.3715 28.7552 28.3407L28.9293 28.2929C29.1296 28.2233 29.31 28.1062 29.455 27.9516C29.5148 27.881 29.5631 27.8015 29.5984 27.716C29.6136 27.6774 29.6251 27.6373 29.6326 27.5965C29.6369 27.5534 29.6369 27.5099 29.6326 27.4668L29.6155 27.4292Z" fill="#A62421"/>
<path d="M29.0081 26.767C29.387 26.9924 29.3733 27.3542 28.9807 27.5761C28.7632 27.6838 28.5233 27.7384 28.2806 27.7354C28.0379 27.7324 27.7993 27.672 27.5845 27.5591C27.2055 27.3337 27.2192 26.9719 27.6118 26.7534C27.8288 26.6444 28.0687 26.5888 28.3116 26.5911C28.5544 26.5935 28.7932 26.6538 29.0081 26.767Z" fill="#872220"/>
<path d="M29.6698 32.1235C29.237 32.3376 28.7599 32.4467 28.2771 32.442C27.7943 32.4372 27.3194 32.3188 26.8909 32.0962C26.2764 31.7275 26.1808 31.1779 26.5905 30.7511L26.7339 30.6692C26.6039 30.7953 26.5228 30.9634 26.5052 31.1437C26.5105 31.3041 26.5602 31.4599 26.6488 31.5937C26.7374 31.7275 26.8614 31.8341 27.007 31.9016C27.3998 32.107 27.8356 32.2165 28.2788 32.2213C28.722 32.226 29.1601 32.1258 29.5572 31.9289C29.7129 31.8558 29.8478 31.7445 29.9492 31.6055C30.0506 31.4665 30.1154 31.3041 30.1375 31.1335C30.158 30.9764 30.1375 30.7921 30.1375 30.8194L30.2468 30.9218C30.2867 31.1572 30.2527 31.3992 30.1494 31.6144C30.046 31.8296 29.8785 32.0075 29.6698 32.1235Z" fill="#FFBB00"/>
<path d="M30.4994 34.0964C30.3544 34.2763 30.1744 34.425 29.9703 34.5333C29.443 34.7927 28.8622 34.9248 28.2746 34.9189C27.687 34.9129 27.109 34.7692 26.5871 34.4992C26.4138 34.3976 26.26 34.2658 26.1331 34.11L26.0887 34.052C26.0477 33.9905 25.9897 33.9052 25.9521 33.8437C26.0927 34.0653 26.2863 34.2484 26.5154 34.3763C27.0587 34.6603 27.6616 34.8115 28.2746 34.8174C28.8876 34.8234 29.4933 34.6839 30.042 34.4104C30.2969 34.2743 30.5122 34.0744 30.6667 33.8301C30.6155 33.912 30.5438 34.0178 30.4858 34.0964H30.4994Z" fill="#FFBB00"/>
<path d="M29.9325 32.6834C29.4168 32.9403 28.8475 33.0714 28.2714 33.0661C27.6952 33.0608 27.1285 32.9191 26.6176 32.6526C25.9178 32.2293 25.7812 31.6285 26.2011 31.1164L26.2285 31.0993L26.2899 31.0345L26.3138 31.0071C26.3243 30.9949 26.3357 30.9835 26.3479 30.973C26.3922 30.9315 26.4389 30.8927 26.4879 30.8569C26.0544 31.3076 26.1465 31.8811 26.802 32.2737C27.2537 32.5099 27.7549 32.6358 28.2646 32.6411C28.7742 32.6465 29.278 32.5311 29.7345 32.3044C29.9561 32.1991 30.1383 32.0257 30.2544 31.8095C30.3705 31.5933 30.4144 31.3457 30.3797 31.1027L30.4104 31.1369C30.4184 31.1502 30.4275 31.1627 30.4378 31.1744L30.4548 31.1949L30.5368 31.3007L30.5538 31.3212L30.605 31.3997C30.6128 31.4164 30.622 31.4324 30.6323 31.4475C30.633 31.4555 30.633 31.4635 30.6323 31.4714L30.6528 31.5022C30.6521 31.7461 30.5846 31.9851 30.4576 32.1934C30.3307 32.4016 30.149 32.5711 29.9325 32.6834Z" fill="#FFBB00"/>
<path d="M30.8956 33.3288C30.8649 33.4209 30.8171 33.5438 30.7795 33.6326C30.6285 33.9257 30.3898 34.1644 30.0967 34.3154C29.5343 34.5941 28.914 34.736 28.2863 34.7294C27.6586 34.7229 27.0414 34.5682 26.4849 34.2778C26.2194 34.1325 26.0031 33.9114 25.8635 33.6428C25.8067 33.5233 25.761 33.3987 25.727 33.2707C25.7099 33.2059 25.6894 33.1205 25.6758 33.0556C25.725 33.2498 25.8154 33.431 25.9409 33.5871C26.0664 33.7432 26.2239 33.8705 26.4029 33.9603C26.9817 34.2615 27.6233 34.4222 28.2757 34.4293C28.9281 34.4364 29.573 34.2898 30.1582 34.0013C30.3555 33.9106 30.5301 33.7771 30.6694 33.6106C30.8088 33.4441 30.9093 33.2487 30.9639 33.0386C30.946 33.1353 30.9232 33.231 30.8956 33.3253V33.3288Z" fill="#FFBB00"/>
<path d="M25.8427 32.8605C25.7608 33.1438 25.6891 33.0073 25.6823 32.9936C25.5765 32.7683 25.655 32.0343 25.8257 32.0924C25.8532 32.1106 25.8728 32.1387 25.8803 32.1709C25.9167 32.3985 25.9039 32.6314 25.8427 32.8537V32.8605Z" fill="#FFBB00"/>
<path d="M26.5702 33.4615C26.5087 33.7039 26.2561 33.8029 26.0581 33.4615C25.8601 33.1201 26.0103 32.6661 26.2732 32.7378C26.3053 32.7469 26.3354 32.762 26.362 32.7822C26.4527 32.8683 26.5196 32.9764 26.5561 33.0961C26.5926 33.2157 26.5975 33.3428 26.5702 33.4649V33.4615Z" fill="#FFBB00"/>
<path d="M27.6722 33.7927C27.621 34.134 27.1703 34.2296 26.9109 33.8712C26.8515 33.8114 26.8124 33.7344 26.799 33.6512C26.7857 33.568 26.7988 33.4826 26.8365 33.4073C26.8742 33.3319 26.9346 33.2702 27.0092 33.2309C27.0837 33.1917 27.1688 33.1768 27.2523 33.1884H27.2932C27.4152 33.226 27.5198 33.3057 27.5886 33.4132C27.6573 33.5207 27.6857 33.6491 27.6687 33.7756L27.6722 33.7927Z" fill="#FFBB00"/>
<path d="M28.8914 33.7995C28.8812 33.8907 28.8449 33.977 28.7867 34.0479C28.7285 34.1188 28.6511 34.1714 28.5637 34.1992C28.4762 34.227 28.3826 34.2289 28.2942 34.2046C28.2057 34.1803 28.1262 34.1309 28.0652 34.0624C28.0138 33.9961 27.9816 33.917 27.9722 33.8336C27.9627 33.7503 27.9763 33.666 28.0116 33.5898C28.0468 33.5137 28.1023 33.4488 28.172 33.402C28.2416 33.3553 28.3228 33.3287 28.4066 33.325C28.469 33.3241 28.531 33.3357 28.5888 33.3593C28.6466 33.3829 28.6991 33.4178 28.7431 33.4621C28.787 33.5064 28.8216 33.5591 28.8448 33.6171C28.8679 33.6751 28.8791 33.7371 28.8777 33.7995H28.8914Z" fill="#FFBB00"/>
<path d="M30.0112 33.4889C30.0317 33.8883 29.5606 34.2058 29.2909 33.9737C29.2395 33.9082 29.2044 33.8314 29.1885 33.7498C29.1725 33.6681 29.1762 33.5837 29.1992 33.5038C29.2222 33.4238 29.2638 33.3504 29.3207 33.2896C29.3776 33.2289 29.4482 33.1825 29.5265 33.1543C29.5812 33.1346 29.6399 33.1283 29.6975 33.136C29.7552 33.1438 29.8102 33.1653 29.8577 33.1988C29.9053 33.2323 29.9441 33.2768 29.9708 33.3285C29.9975 33.3802 30.0114 33.4375 30.0112 33.4957V33.4889Z" fill="#FFBB00"/>
<path d="M30.7594 32.8811C30.8243 33.2601 30.5512 33.6834 30.3429 33.5264C30.254 33.3973 30.2107 33.2422 30.22 33.0857C30.2293 32.9292 30.2906 32.7803 30.3941 32.6626C30.5819 32.5124 30.7355 32.6934 30.7594 32.8811Z" fill="#FFBB00"/>
<path d="M30.9492 32.1846C31.0209 32.4713 31.0107 32.9254 30.9492 32.8912C30.8213 32.6246 30.7648 32.3294 30.7854 32.0344C30.8127 31.8978 30.8673 31.9627 30.8912 31.9968C30.9242 32.0555 30.9484 32.1188 30.9629 32.1846H30.9492Z" fill="#FFBB00"/>
</svg>
