<svg width="59" height="47" viewBox="0 0 59 47" fill="none" xmlns="http://www.w3.org/2000/svg">
    <path opacity="0.25"
          d="M0 23.9056L39.0552 46.5522L57.6399 35.8236L56.2614 35.026L36.4364 23.6013L18.6447 13.2324L0 23.9056Z"
          fill="#1D1D1B"/>
    <path d="M0.719238 18.8183L14.0896 11.1235L14.4446 10.916L15.2376 11.3586L1.51224 19.2609V21.769L0.719238 21.3264V18.8183Z"
          fill="#043F52"/>
    <path d="M1.51221 19.2636L15.2375 11.3613V13.8694L1.51221 21.7717V19.2636Z" fill="#C6C6C6"/>
    <path d="M4.74414 8.75543L19.7143 0.133885C19.9478 0.0256093 20.206 -0.0182359 20.4622 0.00689481C20.7184 0.0320255 20.9632 0.125217 21.1712 0.276809L27.0864 3.68393C27.3924 3.88782 27.6459 4.16116 27.8262 4.48165C28.0065 4.80215 28.1084 5.16072 28.1238 5.52812V19.8574L13.1721 28.502L4.74414 8.75543Z"
          fill="#27AE60"/>
    <path d="M2.39746 22.2825L5.42192 20.3646V16.8652L2.39746 18.7786V22.2825Z" fill="#110D0B"/>
    <path d="M4.83691 20.6105C4.89262 21.5702 5.14286 22.5085 5.57243 23.3684C6.00201 24.2283 6.60194 24.992 7.33578 25.6129C7.54152 25.7835 7.76043 25.9377 7.99047 26.0739C8.93561 26.6179 9.77932 26.6225 10.3556 26.1984C10.6317 25.9596 10.8471 25.6588 10.9841 25.3205C11.1212 24.9823 11.176 24.6163 11.144 24.2528C11.1044 23.1556 10.7871 22.0865 10.2219 21.1453C9.69023 20.1845 8.92219 19.3752 7.99047 18.794C7.69201 18.5837 7.34787 18.4472 6.98636 18.3959C6.62486 18.3446 6.25634 18.3799 5.91115 18.4989C5.25647 18.7848 4.83691 19.5178 4.83691 20.6105Z"
          fill="#110D0B"/>
    <path d="M5.7597 18.5711L3.53174 19.8574L7.98544 27.5715L10.2134 26.2851L5.7597 18.5711Z" fill="#110D0B"/>
    <path d="M8.12787 27.4794C8.40308 27.2402 8.61762 26.9391 8.75387 26.6009C8.89012 26.2627 8.94419 25.8969 8.91165 25.5338C8.87361 24.4364 8.55623 23.3668 7.98956 22.4263C7.458 21.4669 6.69184 20.6579 5.76271 20.075C5.46441 19.8662 5.12088 19.731 4.76026 19.6805C4.39964 19.63 4.03219 19.6656 3.68801 19.7845C3.02871 20.0704 2.61377 20.8034 2.61377 21.8961C2.66787 22.8561 2.91741 23.7949 3.3471 24.6551C3.77678 25.5153 4.37756 26.2786 5.11264 26.8985C5.31837 27.0692 5.53728 27.2233 5.76732 27.3595C6.70324 27.8989 7.55157 27.9082 8.12787 27.4794ZM3.77099 22.5877C3.77099 21.3198 4.66081 20.8034 5.76271 21.4397C6.34146 21.8181 6.82295 22.3275 7.16818 22.9266C7.51341 23.5258 7.71267 24.1978 7.74982 24.8883C7.74982 26.1562 6.86 26.6679 5.76271 26.0363C5.18259 25.659 4.69981 25.1499 4.3537 24.5506C4.00758 23.9513 3.80793 23.2788 3.77099 22.5877Z"
          fill="#3C3C3B"/>
    <path d="M7.75031 24.8651C7.71316 24.1746 7.5139 23.5026 7.16867 22.9034C6.82344 22.3043 6.34195 21.7949 5.7632 21.4165C4.6613 20.7802 3.77148 21.2966 3.77148 22.5875C3.80842 23.2786 4.00808 23.9512 4.35419 24.5505C4.7003 25.1497 5.18308 25.6588 5.7632 26.0362C6.86049 26.6447 7.75031 26.133 7.75031 24.8651ZM4.3939 22.9241C4.3939 22.0527 5.00709 21.7023 5.77703 22.1357C6.17731 22.3945 6.51108 22.7439 6.75135 23.1556C6.99163 23.5672 7.13167 24.0297 7.16017 24.5055C7.16017 25.3769 6.54698 25.7273 5.77703 25.2939C5.37625 25.0356 5.04209 24.6864 4.80175 24.2746C4.5614 23.8628 4.42166 23.4001 4.3939 22.9241Z"
          fill="#DDD2D2"/>
    <path d="M7.12809 24.5067C7.0996 24.0308 6.95955 23.5684 6.71927 23.1567C6.479 22.7451 6.14523 22.3957 5.74495 22.1369C4.98884 21.7035 4.36182 22.0539 4.36182 22.9253C4.38958 23.4013 4.52932 23.864 4.76967 24.2757C5.01001 24.6875 5.34417 25.0368 5.74495 25.295C6.5149 25.7284 7.12809 25.378 7.12809 24.5067Z"
          fill="white"/>
    <path d="M9.37764 25.5184C9.37194 25.0913 9.31937 24.6662 9.22089 24.2506C8.85038 22.7212 8.05057 21.3295 6.91566 20.2395C6.60622 19.9465 6.26437 19.6897 5.89675 19.4741C5.50539 19.2382 5.07146 19.0816 4.61965 19.0131C3.32412 18.8563 2.40664 19.7784 2.40664 21.4843V22.2773L1.51221 21.7701V14.7484L4.3292 9.21586C4.41921 9.0233 4.5655 8.86254 4.74875 8.75482C4.9826 8.64797 5.24057 8.60491 5.49645 8.63001C5.75233 8.65511 5.99702 8.74748 6.20565 8.89774L12.1163 12.3141C12.4273 12.5142 12.6856 12.7863 12.8693 13.1073C13.0531 13.4282 13.1569 13.7887 13.172 14.1583V28.5014L9.38225 26.3114L9.37764 25.5184Z"
          fill="#219653"/>
    <path d="M12.3007 26.3631C12.3014 26.4276 12.285 26.4911 12.2531 26.5472C12.2212 26.6033 12.175 26.6499 12.1192 26.6822C12.0634 26.7146 12 26.7315 11.9355 26.7313C11.871 26.7312 11.8077 26.7139 11.7521 26.6812L10.6871 26.068C10.555 25.9873 10.4442 25.8761 10.364 25.7437C10.2838 25.6114 10.2365 25.4617 10.226 25.3073C10.2055 24.8881 10.1578 24.4708 10.0831 24.0578C9.67208 22.3566 8.77879 20.8102 7.51045 19.6041C7.29682 19.4038 7.07044 19.2174 6.83271 19.0463C6.68793 18.9405 6.57055 18.8016 6.49035 18.6412C6.41015 18.4808 6.36946 18.3035 6.37167 18.1242V17.2344L12.333 20.6784L12.3007 26.3631Z"
          fill="#27AE60"/>
    <path d="M5.0719 10.6745L5.53295 10.9465C5.61778 10.9955 5.6881 11.0661 5.7367 11.1512C5.7853 11.2362 5.81045 11.3326 5.80957 11.4306V16.9631L2.37939 14.9484L4.46793 10.8589C4.52623 10.7571 4.62117 10.6813 4.73339 10.6471C4.8456 10.6128 4.96666 10.6226 5.0719 10.6745Z"
          fill="#333333"/>
    <path opacity="0.1"
          d="M4.66592 10.9605C4.68436 10.9225 4.71325 10.8907 4.74919 10.8686C4.78513 10.8466 4.82662 10.8352 4.86878 10.836C4.90801 10.8358 4.94644 10.847 4.97943 10.8682L5.44048 11.1357C5.4926 11.1652 5.53589 11.2081 5.56588 11.26C5.59587 11.3119 5.61147 11.3708 5.61106 11.4307V12.9568C4.7045 13.5459 3.99608 14.3941 3.57785 15.3911L2.65576 14.8609L4.66592 10.9605Z"
          fill="white"/>
    <path d="M12.3005 15.2083V20.6763L6.33922 17.2323V11.9072C6.33653 11.8523 6.34919 11.7978 6.37579 11.7498C6.40239 11.7018 6.44186 11.6621 6.48976 11.6353C6.53767 11.6084 6.59212 11.5955 6.64697 11.5979C6.70182 11.6004 6.75491 11.6181 6.80027 11.649L11.987 14.655C12.0839 14.7109 12.164 14.7917 12.2191 14.889C12.2742 14.9862 12.3024 15.0965 12.3005 15.2083Z"
          fill="#333333"/>
    <path opacity="0.1"
          d="M10.023 13.7754C8.59376 14.2365 7.49647 15.7395 7.12763 17.4315L6.56055 17.1042V12.443C6.78789 12.3421 7.02207 12.2574 7.26134 12.1895L10.023 13.7754Z"
          fill="white"/>
    <path d="M22.5771 34.454L26.0995 32.8542L35.1084 38.0548L30.1475 29.2949L22.5771 32.4024V34.454Z" fill="#202533"/>
    <path d="M25.5234 32.6355C25.5786 33.5952 25.8286 34.5337 26.2582 35.3937C26.6878 36.2537 27.2881 37.0173 28.0223 37.6378C28.228 37.8085 28.447 37.9627 28.677 38.0989C29.5991 38.6429 30.4658 38.6521 31.0422 38.2233C31.3155 37.9823 31.5278 37.6798 31.6617 37.3408C31.7955 37.0018 31.8471 36.6359 31.8121 36.2731C31.7561 35.1807 31.443 34.1169 30.8982 33.1683C30.3534 32.2197 29.5924 31.4132 28.677 30.8143C28.3781 30.6048 28.0338 30.4691 27.6723 30.4187C27.3108 30.3682 26.9425 30.4042 26.5977 30.5239C25.943 30.8097 25.5234 31.5428 25.5234 32.6355Z"
          fill="#110D0B"/>
    <path d="M26.4492 30.5984L24.2212 31.8848L28.6749 39.5988L30.9029 38.3125L26.4492 30.5984Z" fill="#110D0B"/>
    <path d="M28.8156 39.505C29.0908 39.2658 29.3053 38.9647 29.4416 38.6265C29.5778 38.2883 29.6319 37.9226 29.5994 37.5594C29.5408 36.466 29.2251 35.4018 28.6779 34.4533C28.1308 33.5048 27.3676 32.6988 26.4504 32.1006C26.152 31.8903 25.8078 31.7539 25.4463 31.7026C25.0848 31.6513 24.7163 31.6866 24.3711 31.8056C23.7118 32.0914 23.2969 32.8245 23.2969 33.9172C23.3532 34.8797 23.6061 35.8205 24.0398 36.6816C24.4735 37.5427 25.079 38.3058 25.8188 38.9241C26.0234 39.0963 26.2424 39.2506 26.4735 39.3852C27.391 39.9246 28.2393 39.9338 28.8156 39.505ZM24.4587 34.5718C24.4587 33.304 25.3485 32.7922 26.4504 33.4238C27.0295 33.803 27.5112 34.3132 27.8564 34.9131C28.2017 35.5131 28.4007 36.1859 28.4375 36.8771C28.4375 38.1449 27.5477 38.6613 26.4504 38.0251C25.8697 37.6473 25.3865 37.1375 25.0404 36.5373C24.6943 35.9372 24.4949 35.2637 24.4587 34.5718Z"
          fill="#3C3C3B"/>
    <path d="M28.4373 36.8787C28.3998 36.1883 28.2004 35.5164 27.8552 34.9173C27.51 34.3182 27.0287 33.8087 26.4502 33.43C25.3575 32.8122 24.4585 33.324 24.4585 34.5734C24.4954 35.2645 24.6951 35.9371 25.0412 36.5364C25.3873 37.1356 25.8701 37.6447 26.4502 38.0221C27.5475 38.6767 28.4373 38.1604 28.4373 36.8787ZM25.0809 34.9515C25.0809 34.0801 25.6941 33.7297 26.464 34.1631C26.8643 34.4219 27.1981 34.7713 27.4384 35.183C27.6786 35.5946 27.8187 36.0571 27.8472 36.5329C27.8472 37.4043 27.234 37.7546 26.464 37.3213C26.0633 37.063 25.7291 36.7138 25.4888 36.302C25.2484 35.8902 25.1087 35.4275 25.0809 34.9515Z"
          fill="#DDD2D2"/>
    <path d="M27.8151 36.534C27.7866 36.0582 27.6466 35.5958 27.4063 35.1841C27.166 34.7724 26.8322 34.423 26.432 34.1642C25.6758 33.7308 25.0488 34.0812 25.0488 34.9526C25.0766 35.4286 25.2163 35.8913 25.4567 36.3031C25.697 36.7149 26.0312 37.0641 26.432 37.3224C27.2019 37.7558 27.8151 37.4054 27.8151 36.534Z"
          fill="white"/>
    <path d="M32.4946 36.6615C32.5492 37.622 32.7989 38.5614 33.2285 39.4222C33.6582 40.2831 34.2587 41.0474 34.9935 41.6684C35.1976 41.8391 35.415 41.9932 35.6436 42.1295C36.5657 42.6735 37.4324 42.6781 38.0133 42.254C38.2885 42.0148 38.5031 41.7137 38.6393 41.3755C38.7756 41.0372 38.8297 40.6715 38.7971 40.3083C38.7391 39.2143 38.4232 38.1494 37.8751 37.2007C37.327 36.252 36.5624 35.4464 35.6436 34.8496C35.3457 34.64 35.0023 34.5039 34.6417 34.4527C34.2811 34.4014 33.9134 34.4363 33.5689 34.5545C32.9096 34.8403 32.4946 35.5734 32.4946 36.6615Z"
          fill="#2B2B2B"/>
    <path d="M33.4223 34.6297L31.1943 35.916L35.648 43.63L37.876 42.3437L33.4223 34.6297Z" fill="#110D0B"/>
    <path d="M35.7817 43.535C36.0578 43.2963 36.2732 42.9954 36.4103 42.6572C36.5473 42.3189 36.6021 41.953 36.5701 41.5894C36.5096 40.4959 36.1925 39.432 35.6447 38.4837C35.0969 37.5354 34.3336 36.7294 33.4166 36.1306C33.1197 35.9225 32.778 35.7873 32.4191 35.7361C32.0602 35.6848 31.6943 35.7189 31.3511 35.8356C30.6964 36.126 30.2769 36.8591 30.2769 37.9518C30.3326 38.9114 30.5828 39.8497 31.0124 40.7097C31.4419 41.5696 32.0419 42.3332 32.7757 42.9541C32.9815 43.1248 33.2004 43.279 33.4304 43.4152C34.3617 43.9546 35.2054 43.9592 35.7817 43.535ZM31.4249 38.6203C31.4249 37.3524 32.3193 36.8361 33.4166 37.4723C33.9959 37.8505 34.4781 38.3597 34.8241 38.9588C35.1701 39.5579 35.3703 40.2301 35.4083 40.9209C35.4083 42.1888 34.5139 42.7005 33.4166 42.0689C32.8375 41.6905 32.3555 41.1812 32.0095 40.5821C31.6635 39.983 31.4632 39.311 31.4249 38.6203Z"
          fill="#3C3C3B"/>
    <path d="M35.4082 40.9223C35.3702 40.2315 35.1701 39.5593 34.8241 38.9602C34.4781 38.3611 33.9959 37.8519 33.4165 37.4737C32.3192 36.8374 31.4248 37.3538 31.4248 38.6217C31.4632 39.3124 31.6635 39.9844 32.0094 40.5835C32.3554 41.1826 32.8374 41.6919 33.4165 42.0703C34.5138 42.7019 35.4082 42.1902 35.4082 40.9223ZM32.0518 38.9813C32.0518 38.1099 32.6604 37.7595 33.435 38.1929C33.8359 38.4499 34.1703 38.7982 34.4107 39.2093C34.6511 39.6204 34.7907 40.0826 34.8181 40.5581C34.8181 41.4295 34.2095 41.7845 33.435 41.3511C33.0339 41.0931 32.6996 40.7439 32.4592 40.3321C32.2188 39.9202 32.0792 39.4574 32.0518 38.9813Z"
          fill="#DDD2D2"/>
    <path d="M34.7814 40.5684C34.754 40.093 34.6144 39.6308 34.374 39.2197C34.1336 38.8086 33.7992 38.4603 33.3983 38.2033C32.6422 37.7699 32.0151 38.1203 32.0151 38.9917C32.0425 39.4677 32.1821 39.9306 32.4225 40.3424C32.6629 40.7543 32.9972 41.1034 33.3983 41.3614C34.1728 41.7856 34.7814 41.4306 34.7814 40.5684Z"
          fill="white"/>
    <path d="M39.8066 39.0596V44.4169L36.985 42.771C36.92 41.5782 36.5752 40.4175 35.9785 39.3827C35.3818 38.3479 34.5499 37.468 33.5502 36.8143L26.0121 32.462C24.1218 31.3693 22.5911 32.2684 22.5911 34.4537L13.0659 28.9765V23.6191L39.8066 39.0596Z"
          fill="#219653"/>
    <path d="M55.9017 29.8105L39.8066 39.0591V44.4165L55.9017 35.1218V29.8105Z" fill="#27AE60"/>
    <path d="M53.7623 33.7852C53.8868 33.7161 53.9836 33.7852 53.9836 33.9097V35.6755C53.9817 35.7527 53.9605 35.8282 53.9218 35.8951C53.8832 35.962 53.8283 36.018 53.7623 36.0582L53.3013 36.3302V34.0572L53.7623 33.7852Z"
          fill="white"/>
    <path d="M51.0792 35.3337L53.2876 34.0566V36.3296L51.0792 37.6067C50.9547 37.6758 50.8579 37.6067 50.8579 37.4822V35.7164C50.8598 35.6392 50.881 35.5637 50.9197 35.4968C50.9584 35.43 51.0132 35.3739 51.0792 35.3337Z"
          fill="#E8452E"/>
    <path d="M50.7384 37.4823V35.7165C50.7456 35.6229 50.7748 35.5323 50.8237 35.4522C50.8725 35.372 50.9397 35.3046 51.0196 35.2554L53.7029 33.7017C53.7429 33.675 53.7896 33.66 53.8376 33.6583C53.8857 33.6567 53.9333 33.6686 53.975 33.6925C54.0167 33.7165 54.0508 33.7516 54.0736 33.794C54.0964 33.8363 54.107 33.8842 54.104 33.9322V35.698C54.0968 35.7916 54.0676 35.8822 54.0187 35.9623C53.9699 36.0424 53.9027 36.1099 53.8228 36.1591L51.1395 37.7128C51.0901 37.7407 51.0348 37.7565 50.9781 37.7589C50.944 37.7572 50.9105 37.7486 50.8798 37.7336C50.849 37.7186 50.8217 37.6976 50.7993 37.6717C50.7769 37.6459 50.7599 37.6158 50.7495 37.5832C50.739 37.5507 50.7352 37.5163 50.7384 37.4823ZM53.8228 33.8861L51.1395 35.4398C51.0935 35.4709 51.0552 35.5118 51.0272 35.5597C50.9993 35.6076 50.9825 35.6612 50.9781 35.7165V37.4823C50.9768 37.4945 50.9768 37.5069 50.9781 37.5192H51.015L53.7029 35.9562C53.7489 35.9252 53.7872 35.8842 53.8152 35.8363C53.8431 35.7884 53.8599 35.7349 53.8643 35.6796V33.9092C53.8656 33.8969 53.8656 33.8845 53.8643 33.8723L53.8228 33.8861Z"
          fill="white"/>
    <path d="M44.6334 39.0352C44.7533 38.9661 44.8501 39.0352 44.8501 39.1597V40.9301C44.8479 41.0061 44.827 41.0804 44.7892 41.1464C44.7514 41.2123 44.6979 41.2679 44.6334 41.3082L42.4941 42.5438V40.2708L44.6334 39.0352Z"
          fill="#E8452E"/>
    <path d="M41.9547 40.5674L42.5033 40.2539V42.5269L41.9547 42.8726C41.8348 42.9464 41.7334 42.8726 41.7334 42.7482V40.9685C41.7355 40.8888 41.7567 40.8108 41.7952 40.741C41.8337 40.6712 41.8884 40.6117 41.9547 40.5674Z"
          fill="white"/>
    <path d="M41.6046 42.7344V40.9686C41.6081 40.871 41.6356 40.7758 41.6847 40.6914C41.7337 40.607 41.8028 40.5359 41.8858 40.4845L44.5737 38.9354C44.6133 38.9081 44.6598 38.8927 44.7079 38.8908C44.7559 38.889 44.8035 38.9008 44.845 38.925C44.8866 38.9491 44.9204 38.9846 44.9426 39.0273C44.9647 39.0699 44.9743 39.118 44.9702 39.1659V40.9317C44.9628 41.0247 44.934 41.1147 44.886 41.1947C44.838 41.2747 44.7722 41.3425 44.6936 41.3928L42.0057 42.9649C41.9579 42.9928 41.9041 43.0086 41.8489 43.011C41.8144 43.0099 41.7804 43.0017 41.7491 42.987C41.7179 42.9723 41.6899 42.9514 41.667 42.9255C41.6442 42.8995 41.6268 42.8692 41.6161 42.8364C41.6053 42.8035 41.6014 42.7688 41.6046 42.7344ZM44.6936 39.1382L42.0057 40.692C41.9597 40.723 41.9214 40.764 41.8934 40.8118C41.8655 40.8597 41.8487 40.9133 41.8443 40.9686V42.7344C41.843 42.7467 41.843 42.759 41.8443 42.7713H41.8812L44.5691 41.2222C44.6135 41.19 44.6505 41.1486 44.6776 41.1009C44.7046 41.0532 44.7211 41.0002 44.7259 40.9455V39.1244L44.6936 39.1382Z"
          fill="white"/>
    <path d="M3.5502 16.4692C3.59447 16.4691 3.63716 16.4527 3.67007 16.4231C3.68723 16.4067 3.70089 16.387 3.71022 16.3652C3.71955 16.3434 3.72436 16.32 3.72436 16.2963C3.72436 16.2726 3.71955 16.2491 3.71022 16.2273C3.70089 16.2055 3.68723 16.1858 3.67007 16.1695L2.81714 15.2105C2.78345 15.177 2.73787 15.1582 2.69035 15.1582C2.64284 15.1582 2.59726 15.177 2.56357 15.2105C2.54641 15.2269 2.53275 15.2465 2.52342 15.2683C2.51409 15.2901 2.50928 15.3136 2.50928 15.3373C2.50928 15.361 2.51409 15.3845 2.52342 15.4063C2.53275 15.4281 2.54641 15.4477 2.56357 15.4641L3.4165 16.4092C3.43271 16.4288 3.4532 16.4444 3.47638 16.4548C3.49956 16.4651 3.52482 16.4701 3.5502 16.4692Z"
          fill="#27AE60"/>
    <path d="M3.29635 11.943L3.052 11.8047L2.93213 11.9614L3.17648 12.2104L3.29635 11.943Z" fill="#E8452E"/>
    <path d="M3.05155 11.8045C3.02197 11.788 2.98863 11.7793 2.95473 11.7793C2.92083 11.7793 2.88749 11.788 2.85791 11.8045L1.76984 12.4454C1.69065 12.4954 1.62406 12.5631 1.57528 12.643C1.5265 12.723 1.49684 12.8131 1.48861 12.9064V15.5759C1.48546 15.6105 1.49147 15.6453 1.50604 15.6769C1.52061 15.7085 1.54321 15.7356 1.57159 15.7557C1.60201 15.7723 1.63609 15.7809 1.67072 15.7809C1.70535 15.7809 1.73942 15.7723 1.76984 15.7557L2.85791 15.1333C2.93601 15.0825 3.00152 15.0146 3.04945 14.9347C3.09738 14.8548 3.12648 14.7651 3.13454 14.6722V11.9844C3.13817 11.9497 3.13237 11.9147 3.11777 11.883C3.10316 11.8514 3.08028 11.8243 3.05155 11.8045Z"
          fill="#6FCF97"/>
    <path d="M1.81152 15.9199L1.57178 15.7816L1.85302 15.4727L2.05126 15.634L1.81152 15.9199Z" fill="#219653"/>
    <path d="M3.29625 11.9423C3.26412 11.9283 3.22884 11.9231 3.19402 11.9271C3.15919 11.9312 3.12606 11.9444 3.098 11.9654L2.00994 12.5924C1.92911 12.6458 1.86196 12.7174 1.81391 12.8015C1.76585 12.8856 1.73824 12.9798 1.73331 13.0765V15.7414C1.7301 15.7755 1.73561 15.8099 1.74932 15.8414C1.76303 15.8728 1.78449 15.9003 1.81169 15.9212C1.84182 15.9386 1.87601 15.9477 1.91081 15.9477C1.94561 15.9477 1.9798 15.9386 2.00994 15.9212L3.098 15.2942C3.17673 15.2436 3.24295 15.1759 3.29167 15.096C3.34039 15.0161 3.37033 14.9262 3.37924 14.8331V12.1222C3.38238 12.0875 3.37637 12.0527 3.36181 12.0211C3.34724 11.9896 3.32463 11.9624 3.29625 11.9423Z"
          fill="#219653"/>
    <path d="M1.88595 15.83C1.91135 15.8284 1.93558 15.8187 1.9551 15.8024L3.04317 15.1754C3.10775 15.1322 3.16166 15.0749 3.2008 15.0078C3.23994 14.9407 3.26329 14.8655 3.26908 14.7881V12.1186C3.26908 12.0679 3.26908 12.0402 3.24142 12.0356C3.21327 12.0246 3.18198 12.0246 3.15382 12.0356L2.06576 12.6811C2.00141 12.7245 1.94769 12.7819 1.90857 12.8489C1.86946 12.916 1.84597 12.991 1.83984 13.0684V15.7378C1.83984 15.7885 1.83984 15.8162 1.86751 15.8254L1.88595 15.83Z"
          fill="#333333"/>
    <path opacity="0.1"
          d="M2.06104 13.0713C2.07326 12.9944 2.11451 12.9251 2.1763 12.8777L3.04767 12.3613V12.5965C2.36533 13.2558 2.34688 14.2147 2.46676 15.2567L2.06104 15.4918V13.0713Z"
          fill="white"/>
    <path d="M29.5161 8.66797V14.4495L58.1332 30.978V25.1964L29.5161 8.66797Z" fill="#9EA3AA"/>
    <path d="M29.5161 8.66797V14.4495L58.1332 30.978V25.1964L29.5161 8.66797Z" fill="#043F52"/>
    <path d="M29.5161 8.66856L30.3829 8.16602L59 24.6945L58.1332 25.197L29.5161 8.66856Z" fill="#42A8C9"/>
    <path d="M30.4474 9.21607L29.5391 8.6582L11.7935 18.9026L12.7017 19.4605L30.4474 9.21607Z" fill="#42A8C9"/>
    <path d="M30.4473 9.21484V14.9964L12.7017 25.2408V19.4593L30.4473 9.21484Z" fill="#3E839A"/>
    <path d="M11.7935 24.6842L40.4105 41.2081L58.9953 30.4749L57.6168 29.6819L37.7918 18.2526L30.4335 14.0156L11.7935 24.6842Z"
          fill="#42A8C9"/>
    <path d="M31.48 18.4937V20.5315L34.6474 18.7058V16.668L31.48 18.4937Z" fill="#EDAD69"/>
    <path d="M26.6064 15.6816V17.7195L31.4797 20.5318V18.494L26.6064 15.6816Z" fill="#C79158"/>
    <path d="M29.783 13.8594L34.6563 16.6764L31.4797 18.4929L26.6064 15.6805L29.783 13.8594Z" fill="#FFC98F"/>
    <path d="M27.7915 20.6233V22.6611L30.9589 20.8308V18.793L27.7915 20.6233Z" fill="#EDAD69"/>
    <path d="M22.9185 17.8047V19.8425L27.7917 22.6595V20.6217L22.9185 17.8047Z" fill="#C79158"/>
    <path d="M26.0951 15.9902L30.9683 18.8072L27.7963 20.6237L22.9185 17.8068L26.0951 15.9902Z" fill="#FFC98F"/>
    <path d="M31.48 16.3596V18.3975L34.6474 16.5671V14.5293L31.48 16.3596Z" fill="#EDAD69"/>
    <path d="M26.6064 13.541V15.5788L31.4797 18.3958V16.358L26.6064 13.541Z" fill="#C79158"/>
    <path d="M29.783 11.7227L34.6563 14.5396L31.4797 16.3562L26.6064 13.5392L29.783 11.7227Z" fill="#FFC98F"/>
    <path d="M27.7915 18.4886V20.5264L30.9589 18.696V16.6582L27.7915 18.4886Z" fill="#EDAD69"/>
    <path d="M22.9185 15.6719V17.7097L27.7917 20.5267V18.4889L22.9185 15.6719Z" fill="#C79158"/>
    <path d="M26.0951 13.8555L30.9683 16.6678L27.7963 18.489L22.9185 15.672L26.0951 13.8555Z" fill="#FFC98F"/>
    <path d="M31.48 14.2229V16.2561L34.6474 14.4304V12.3926L31.48 14.2229Z" fill="#EDAD69"/>
    <path d="M26.6064 11.4043V13.4421L31.4797 16.2545V14.2213L26.6064 11.4043Z" fill="#C79158"/>
    <path d="M29.783 9.58984L34.6563 12.4022L31.4797 14.2234L26.6064 11.4064L29.783 9.58984Z" fill="#FFC98F"/>
    <path d="M27.7915 16.3492V18.387L30.9589 16.5613V14.5234L27.7915 16.3492Z" fill="#EDAD69"/>
    <path d="M22.9185 13.5352V15.5684L27.7917 18.3854V16.3475L22.9185 13.5352Z" fill="#C79158"/>
    <path d="M26.0951 11.7168L30.9683 14.5338L27.7963 16.3503L22.9185 13.5379L26.0951 11.7168Z" fill="#FFC98F"/>
    <path d="M31.48 12.0855V14.1233L34.6474 12.2976V10.2598L31.48 12.0855Z" fill="#EDAD69"/>
    <path d="M26.6064 9.26562V11.3034L31.4797 14.1204V12.0826L26.6064 9.26562Z" fill="#C79158"/>
    <path d="M29.783 7.44922L34.6563 10.2662L31.4797 12.0827L26.6064 9.27035L29.783 7.44922Z" fill="#FFC98F"/>
    <path d="M27.7915 14.2132V16.251L30.9589 14.4206V12.3828L27.7915 14.2132Z" fill="#EDAD69"/>
    <path d="M22.9185 11.3984V13.4363L27.7917 16.2532V14.2154L22.9185 11.3984Z" fill="#C79158"/>
    <path d="M26.0951 9.58008L30.9683 12.3971L27.7963 14.2136L22.9185 11.3966L26.0951 9.58008Z" fill="#FFC98F"/>
    <path d="M23.9004 22.941V24.9788L27.0678 23.1531V21.1152L23.9004 22.941Z" fill="#EDAD69"/>
    <path d="M19.0229 20.1289V22.1667L23.9008 24.9791V22.9413L19.0229 20.1289Z" fill="#C79158"/>
    <path d="M22.1998 18.3125L27.0777 21.1249L23.9011 22.9414L19.0278 20.129L22.1998 18.3125Z" fill="#FFC98F"/>
    <path d="M20.2119 25.0718V27.1097L23.3793 25.2793V23.2461L20.2119 25.0718Z" fill="#EDAD69"/>
    <path d="M15.3389 22.2559V24.2937L20.2121 27.1107V25.0728L15.3389 22.2559Z" fill="#C79158"/>
    <path d="M18.5109 20.4375L23.3887 23.2545L20.2121 25.071L15.3389 22.254L18.5109 20.4375Z" fill="#FFC98F"/>
    <path d="M23.9004 20.8069V22.8447L27.0678 21.0144V18.9766L23.9004 20.8069Z" fill="#EDAD69"/>
    <path d="M19.0229 17.9883V20.0261L23.9008 22.8431V20.8053L19.0229 17.9883Z" fill="#C79158"/>
    <path d="M22.1998 16.1738L27.0777 18.9908L23.9011 20.8073L19.0278 17.9903L22.1998 16.1738Z" fill="#FFC98F"/>
    <path d="M20.2119 22.9378V24.9756L23.3793 23.1452V21.1074L20.2119 22.9378Z" fill="#EDAD69"/>
    <path d="M15.3389 20.1191V22.157L20.2121 24.9739V22.9361L15.3389 20.1191Z" fill="#C79158"/>
    <path d="M18.5109 18.3027L23.3887 21.1151L20.2121 22.9362L15.3389 20.1193L18.5109 18.3027Z" fill="#FFC98F"/>
    <path d="M23.9004 18.6741V20.7073L27.0678 18.8816V16.8438L23.9004 18.6741Z" fill="#EDAD69"/>
    <path d="M19.0229 15.8555V17.8933L23.9008 20.7057V18.6725L19.0229 15.8555Z" fill="#C79158"/>
    <path d="M22.1998 14.0391L27.0777 16.8514L23.9011 18.6726L19.0278 15.8556L22.1998 14.0391Z" fill="#FFC98F"/>
    <path d="M20.2119 20.7984V22.8362L23.3793 21.0105V18.9727L20.2119 20.7984Z" fill="#EDAD69"/>
    <path d="M15.3389 17.9863V20.0241L20.2121 22.8365V20.7987L15.3389 17.9863Z" fill="#C79158"/>
    <path d="M18.5109 16.1699L23.3887 18.9823L20.2121 20.7988L15.3389 17.9864L18.5109 16.1699Z" fill="#FFC98F"/>
    <path d="M23.9004 16.5328V18.5706L27.0678 16.7449V14.707L23.9004 16.5328Z" fill="#EDAD69"/>
    <path d="M19.0229 13.7188V15.752L23.9008 18.5689V16.5311L19.0229 13.7188Z" fill="#C79158"/>
    <path d="M22.1998 11.9004L27.0777 14.7174L23.9011 16.5339L19.0278 13.7215L22.1998 11.9004Z" fill="#FFC98F"/>
    <path d="M20.2119 18.6643V20.7022L23.3793 18.8718V16.834L20.2119 18.6643Z" fill="#EDAD69"/>
    <path d="M15.3389 15.8457V17.8835L20.2121 20.7005V18.6627L15.3389 15.8457Z" fill="#C79158"/>
    <path d="M18.5109 14.0312L23.3887 16.8482L20.2121 18.6648L15.3389 15.8478L18.5109 14.0312Z" fill="#FFC98F"/>
    <path d="M37.1187 21.7386V23.7764L40.286 21.946V19.9082L37.1187 21.7386Z" fill="#EDAD69"/>
    <path d="M32.2407 18.9199V20.9577L37.1186 23.7747V21.7369L32.2407 18.9199Z" fill="#C79158"/>
    <path d="M35.4173 17.1055L40.2952 19.9178L37.1186 21.739L32.2407 18.922L35.4173 17.1055Z" fill="#FFC98F"/>
    <path d="M33.4307 23.8628V25.9007L36.598 24.0749V22.0371L33.4307 23.8628Z" fill="#EDAD69"/>
    <path d="M28.5522 21.0508V23.0886L33.4301 25.901V23.8632L28.5522 21.0508Z" fill="#C79158"/>
    <path d="M31.7288 19.2344L36.6067 22.0468L33.4301 23.8633L28.5522 21.0509L31.7288 19.2344Z" fill="#FFC98F"/>
    <path d="M37.1187 19.5992V21.637L40.286 19.8113V17.7734L37.1187 19.5992Z" fill="#EDAD69"/>
    <path d="M32.2407 16.7871V18.8249L37.1186 21.6373V19.5995L32.2407 16.7871Z" fill="#C79158"/>
    <path d="M35.4173 14.9707L40.2952 17.7831L37.1186 19.5996L32.2407 16.7872L35.4173 14.9707Z" fill="#FFC98F"/>
    <path d="M33.4307 21.73V23.7679L36.598 21.9375V19.9043L33.4307 21.73Z" fill="#EDAD69"/>
    <path d="M28.5522 18.9102V20.948L33.4301 23.765V21.7271L28.5522 18.9102Z" fill="#C79158"/>
    <path d="M31.7288 17.0957L36.6067 19.9127L33.4301 21.7292L28.5522 18.9122L31.7288 17.0957Z" fill="#FFC98F"/>
    <path d="M37.1187 17.4651V19.5029L40.286 17.6726V15.6348L37.1187 17.4651Z" fill="#EDAD69"/>
    <path d="M32.2407 14.6465V16.6843L37.1186 19.5013V17.4635L32.2407 14.6465Z" fill="#C79158"/>
    <path d="M35.4173 12.832L40.2952 15.649L37.1186 17.4655L32.2407 14.6486L35.4173 12.832Z" fill="#FFC98F"/>
    <path d="M33.4307 19.596V21.6338L36.598 19.8034V17.7656L33.4307 19.596Z" fill="#EDAD69"/>
    <path d="M28.5522 16.7773V18.8152L33.4301 21.6322V19.5943L28.5522 16.7773Z" fill="#C79158"/>
    <path d="M31.7288 14.9609L36.6067 17.7733L33.4301 19.5944L28.5522 16.7775L31.7288 14.9609Z" fill="#FFC98F"/>
    <path d="M37.1187 15.3323V17.3655L40.286 15.5398V13.502L37.1187 15.3323Z" fill="#EDAD69"/>
    <path d="M32.2407 12.5137V14.5515L37.1186 17.3639V15.3307L32.2407 12.5137Z" fill="#C79158"/>
    <path d="M35.4173 10.6973L40.2952 13.5096L37.1186 15.3308L32.2407 12.5138L35.4173 10.6973Z" fill="#FFC98F"/>
    <path d="M33.4307 17.4546V19.4925L36.598 17.6667V15.6289L33.4307 17.4546Z" fill="#EDAD69"/>
    <path d="M28.5522 14.6445V16.6824L33.4301 19.4947V17.4569L28.5522 14.6445Z" fill="#C79158"/>
    <path d="M31.7288 12.8223L36.6067 15.6393L33.4301 17.4558L28.5522 14.6434L31.7288 12.8223Z" fill="#FFC98F"/>
    <path d="M29.5342 26.1878V28.2256L32.7016 26.3952V24.3574L29.5342 26.1878Z" fill="#EDAD69"/>
    <path d="M24.6616 23.3711V25.4089L29.5349 28.2259V26.1881L24.6616 23.3711Z" fill="#C79158"/>
    <path d="M27.8382 21.5547L32.7115 24.3671L29.5349 26.1882L24.6616 23.3712L27.8382 21.5547Z" fill="#FFC98F"/>
    <path d="M25.8462 28.314V30.3518L29.0136 28.5261V26.4883L25.8462 28.314Z" fill="#EDAD69"/>
    <path d="M20.9736 25.502V27.5398L25.8469 30.3521V28.3143L20.9736 25.502Z" fill="#C79158"/>
    <path d="M24.1502 23.6855L29.0235 26.4979L25.8469 28.3144L20.9736 25.5021L24.1502 23.6855Z" fill="#FFC98F"/>
    <path d="M29.5342 24.0464V26.0843L32.7016 24.2585V22.2207L29.5342 24.0464Z" fill="#EDAD69"/>
    <path d="M24.6616 21.2383V23.2761L29.5349 26.0885V24.0507L24.6616 21.2383Z" fill="#C79158"/>
    <path d="M27.8382 19.418L32.7115 22.2303L29.5349 24.0469L24.6616 21.2345L27.8382 19.418Z" fill="#FFC98F"/>
    <path d="M25.8462 26.1773V28.2151L29.0136 26.3848V24.3516L25.8462 26.1773Z" fill="#EDAD69"/>
    <path d="M20.9736 23.3652V25.3984L25.8469 28.2154V26.1776L20.9736 23.3652Z" fill="#C79158"/>
    <path d="M24.1502 21.5449L29.0235 24.3619L25.8469 26.1784L20.9736 23.3661L24.1502 21.5449Z" fill="#FFC98F"/>
    <path d="M29.5342 21.9136V23.9515L32.7016 22.1211V20.0879L29.5342 21.9136Z" fill="#EDAD69"/>
    <path d="M24.6616 19.0977V21.1355L29.5349 23.9525V21.9146L24.6616 19.0977Z" fill="#C79158"/>
    <path d="M27.8382 17.2793L32.7115 20.0963L29.5349 21.9128L24.6616 19.0958L27.8382 17.2793Z" fill="#FFC98F"/>
    <path d="M25.8462 24.0432V26.0811L29.0136 24.2507V22.2129L25.8462 24.0432Z" fill="#EDAD69"/>
    <path d="M20.9736 21.2285V23.2663L25.8469 26.0833V24.0455L20.9736 21.2285Z" fill="#C79158"/>
    <path d="M24.1502 19.4102L29.0235 22.2225L25.8469 24.0437L20.9736 21.2267L24.1502 19.4102Z" fill="#FFC98F"/>
    <path d="M29.5342 19.7796V21.8174L32.7016 19.987V17.9492L29.5342 19.7796Z" fill="#EDAD69"/>
    <path d="M24.6616 16.9609V18.9988L29.5349 21.8157V19.7779L24.6616 16.9609Z" fill="#C79158"/>
    <path d="M27.8382 15.1465L32.7115 17.9589L29.5349 19.78L24.6616 16.963L27.8382 15.1465Z" fill="#FFC98F"/>
    <path d="M25.8462 21.9039V23.9417L29.0136 22.1159V20.0781L25.8462 21.9039Z" fill="#EDAD69"/>
    <path d="M20.9736 19.0918V21.1296L25.8469 23.942V21.9042L20.9736 19.0918Z" fill="#C79158"/>
    <path d="M24.1502 17.2754L29.0235 20.0878L25.8469 21.9043L20.9736 19.0919L24.1502 17.2754Z" fill="#FFC98F"/>
    <path d="M41.6046 22.7929V29.5011L38.4188 27.6615L37.6488 27.2189L35.1592 25.7805V19.0723L37.6673 20.5199L38.428 20.9579L41.6046 22.7929Z"
          fill="#C79158"/>
    <path d="M48.055 19.0723V25.7805L45.3625 27.3342L44.5972 27.7952L41.605 29.5011V22.7929L44.5972 21.0686L45.3625 20.6075L48.055 19.0723Z"
          fill="#EDAD69"/>
    <path d="M48.0546 19.0727L45.3621 20.6218L44.5968 21.0828L41.6046 22.8071L38.428 20.963L37.6673 20.525L35.1592 19.0773L38.3173 17.2331L39.0735 16.7721L41.6046 15.3105L43.9559 16.666L44.7167 17.1271L48.0546 19.0727Z"
          fill="#FFC98F"/>
    <path d="M45.3626 20.6227V27.3355L44.5973 27.7781V21.0561L41.4299 19.1381L40.6923 18.6909L38.3179 17.2524L39.074 16.8145L41.4299 18.2437L42.1722 18.6909L45.3626 20.6227Z"
          fill="white"/>
    <path d="M44.7217 17.1459L42.1767 18.6904L41.4344 19.1514L38.433 20.9726V27.6762L37.6631 27.2151V20.53L40.706 18.6858L41.4437 18.2247L43.9702 16.6895L44.7217 17.1459Z"
          fill="white"/>
    <path d="M34.4581 26.7089V33.4171L31.2723 31.5776L30.5023 31.1303L28.0127 29.6965V22.9883L30.5208 24.436L31.2815 24.874L34.4581 26.7089Z"
          fill="#C79158"/>
    <path d="M40.909 22.9883V29.6965L38.2165 31.2502L37.4512 31.7113L34.459 33.4356V26.7089L37.4512 24.9846L38.2165 24.5236L40.909 22.9883Z"
          fill="#EDAD69"/>
    <path d="M40.9081 22.9885L38.2156 24.5376L37.4503 24.9987L34.4581 26.723L31.2815 24.8788L30.5208 24.4316L28.0127 22.9839L31.1709 21.1628L31.927 20.7017L34.4581 19.2402L36.8094 20.5957L37.5702 21.0337L40.9081 22.9885Z"
          fill="#FFC98F"/>
    <path d="M38.2157 24.5387V31.2515L37.4503 31.6941V24.9721L34.283 23.0541L33.5453 22.6069L31.1709 21.1685L31.927 20.7305L34.283 22.1551L35.0252 22.6069L38.2157 24.5387Z"
          fill="white"/>
    <path d="M37.5702 21.0614L35.039 22.5874L34.2967 23.0485L31.2953 24.8926V31.5962L30.5254 31.1352V24.4316L33.5683 22.5874L34.306 22.1264L36.8325 20.5957L37.5702 21.0614Z"
          fill="white"/>
    <path d="M48.5436 26.8346V33.5382L45.3577 31.6987L44.5878 31.256L42.0981 29.8176V23.1094L44.6062 24.5617L45.3623 24.9951L48.5436 26.8346Z"
          fill="#C79158"/>
    <path d="M54.9935 23.1094V29.8176L52.301 31.3713L51.5356 31.8324L48.5435 33.5567V26.8346L51.5356 25.1057L52.301 24.6447L54.9935 23.1094Z"
          fill="#EDAD69"/>
    <path d="M54.9936 23.1084L52.3011 24.6621L51.5357 25.1231L48.5436 26.8521L45.367 25.0079L44.6062 24.5745L42.0981 23.1222L45.2563 21.278L46.0124 20.817L48.5436 19.3555L50.8949 20.7156L51.6372 21.2043L54.9936 23.1084Z"
          fill="#FFC98F"/>
    <path d="M52.3006 24.6605V31.3687L51.5353 31.8113V25.0939L48.3679 23.1713L47.6256 22.7241L45.2559 21.2856L46.012 20.8477L48.3679 22.2769L49.1102 22.7241L52.3006 24.6605Z"
          fill="white"/>
    <path d="M51.6373 21.2032L49.0877 22.7431L48.3501 23.2042L45.3671 24.993V31.6966L44.5972 31.2356V24.5689L47.6355 22.7247L48.3777 22.2636L50.895 20.7422L51.6373 21.2032Z"
          fill="white"/>
    <path d="M41.3971 30.7441V37.4523L38.2113 35.6127L37.4413 35.1701L34.9517 33.7316V27.0234L37.4597 28.4757L38.2159 28.9091L41.3971 30.7441Z"
          fill="#C79158"/>
    <path d="M47.847 27.0234V33.7316L45.1545 35.2854L44.3892 35.7464L41.397 37.4707V30.7487L44.3892 29.0428L45.1545 28.5818L47.847 27.0234Z"
          fill="#EDAD69"/>
    <path d="M47.8471 27.0217L45.1546 28.5801L44.3893 29.0411L41.3971 30.747L38.2205 28.9028L37.4597 28.4694L34.9517 27.0171L38.1098 25.196L38.8659 24.735L41.3971 23.2734L43.7484 24.6289L44.5091 25.09L47.8471 27.0217Z"
          fill="#FFC98F"/>
    <path d="M45.1546 28.5765V35.2847L44.3893 35.7273V29.0053L41.2219 27.0873L40.4796 26.6401L38.1099 25.2017L38.866 24.7637L41.2219 26.1929L41.9642 26.6401L45.1546 28.5765Z"
          fill="white"/>
    <path d="M44.5097 25.101L41.9555 26.6409L41.2132 27.1019L38.2118 28.9461V35.6497L37.4419 35.1886V28.485L40.4802 26.6409L41.2225 26.1798L43.749 24.6445L44.5097 25.101Z"
          fill="white"/>
    <path d="M41.282 34.9279V39.7089L58.1332 29.9808V25.1998L59 24.6973V30.4788L40.4106 41.2119V35.4304L41.282 34.9279Z"
          fill="#3E839A"/>
    <path d="M11.7935 18.9023V24.6839L40.4105 41.2123V35.4308L11.7935 18.9023Z" fill="#9EA3AA"/>
    <path d="M11.7935 18.9023V24.6839L40.4105 41.2123V35.4308L11.7935 18.9023Z" fill="#043F52"/>
    <path d="M11.7935 18.9029L12.6602 18.4004L41.2819 34.9289L40.4105 35.4314L11.7935 18.9029Z" fill="#42A8C9"/>
</svg>
