<svg width="60" height="47" viewBox="0 0 60 47" fill="none" xmlns="http://www.w3.org/2000/svg">
    <path d="M59.843 31.0121L50.9922 31.8752L50.8394 31.7089V14.2456L59.843 13.5488L60.0003 13.7151L59.843 31.0121Z"
          fill="#42A8C9"/>
    <path d="M59.9998 31.1781L50.9917 31.8749V31.6951V14.4116L59.9998 13.7148V31.1781Z" fill="#3E839A"/>
    <path d="M0 21.7435L11.6961 15.0054L12.0108 14.8301L12.703 15.2167L0.696734 22.13V24.3236L0 23.9371V21.7435Z"
          fill="#219653"/>
    <path d="M0.696777 22.1282L12.7031 15.2148V17.4084L0.696777 24.3218V22.1282Z" fill="#C6C6C6"/>
    <path d="M3.52393 12.9501L16.6315 5.39393C16.8363 5.29947 17.0625 5.26134 17.2869 5.28346C17.5113 5.30558 17.7257 5.38717 17.9081 5.51979L23.0819 8.50901C23.346 8.6863 23.5648 8.92298 23.721 9.2001C23.8771 9.47721 23.9661 9.78703 23.9809 10.1048V22.6504L10.8958 30.2111L3.52393 12.9501Z"
          fill="#219653"/>
    <path d="M1.46533 24.7671L4.11741 23.0904V20.0293L1.46533 21.706V24.7671Z" fill="#202533"/>
    <path d="M3.59619 23.3068C3.64403 24.146 3.86241 24.9667 4.23802 25.7187C4.61363 26.4707 5.13857 27.1382 5.78079 27.6805C5.95976 27.8293 6.1507 27.9631 6.35166 28.0806C7.17875 28.5616 7.92043 28.566 8.42388 28.193C8.66456 27.9832 8.85231 27.7196 8.97182 27.4235C9.09133 27.1275 9.13923 26.8074 9.11162 26.4893C9.07384 25.5364 8.79549 24.6086 8.30251 23.7923C7.83833 22.951 7.16679 22.2423 6.35166 21.7336C6.09237 21.5543 5.79494 21.4378 5.48287 21.3934C5.17081 21.3489 4.85267 21.3776 4.55364 21.4773C3.96928 21.7066 3.59619 22.3494 3.59619 23.3068Z"
          fill="#2B2B2B"/>
    <path d="M4.41564 21.5205L2.46533 22.6465L6.36254 29.3967L8.31285 28.2706L4.41564 21.5205Z" fill="#202533"/>
    <path d="M6.48206 29.3154C6.72703 29.1091 6.91925 28.8473 7.04277 28.5518C7.16629 28.2563 7.21755 27.9356 7.19228 27.6163C7.15508 26.6633 6.87669 25.7353 6.38317 24.9192C5.92029 24.077 5.24846 23.368 4.43231 22.8605C4.17363 22.6799 3.87614 22.5627 3.56383 22.5182C3.25151 22.4737 2.93312 22.5032 2.63429 22.6043C2.05892 22.856 1.69482 23.5033 1.69482 24.4518C1.74206 25.2917 1.96016 26.1133 2.33579 26.8661C2.71141 27.6188 3.23667 28.2871 3.87942 28.8299C4.04596 28.9723 4.2233 29.1016 4.40984 29.2165C5.23693 29.666 5.97861 29.6885 6.48206 29.3154ZM2.67025 25.0181C2.67025 23.9079 3.4479 23.4583 4.40984 24.0112C4.91683 24.3419 5.3389 24.7872 5.64188 25.3112C5.94487 25.8351 6.12028 26.4231 6.15392 27.0274C6.15392 28.1377 5.37178 28.5872 4.40984 28.0343C3.90343 27.7035 3.48205 27.258 3.17983 26.734C2.87761 26.21 2.70304 25.6222 2.67025 25.0181Z"
          fill="#3C3C3B"/>
    <path d="M6.15359 27.03C6.11995 26.4256 5.94454 25.8377 5.64155 25.3137C5.33857 24.7897 4.91651 24.3444 4.40951 24.0138C3.44757 23.4609 2.66992 23.9104 2.66992 25.0207C2.70271 25.6247 2.87728 26.2125 3.1795 26.7365C3.48172 27.2605 3.9031 27.706 4.40951 28.0369C5.39393 28.5898 6.15359 28.1402 6.15359 27.03ZM3.21382 25.3353C3.21382 24.5712 3.74874 24.261 4.40951 24.6431C4.75773 24.8701 5.04748 25.1761 5.25523 25.5362C5.46299 25.8962 5.58289 26.3002 5.60519 26.7153C5.60519 27.4795 5.07028 27.7851 4.40951 27.4031C4.06138 27.177 3.77162 26.8718 3.56383 26.5125C3.35604 26.1532 3.23611 25.7498 3.21382 25.3353Z"
          fill="#219653"/>
    <path d="M5.60524 26.7143C5.58293 26.2992 5.46303 25.8952 5.25528 25.5352C5.04752 25.1751 4.75777 24.8691 4.40955 24.6421C3.74878 24.26 3.21387 24.5702 3.21387 25.3343C3.23336 25.7519 3.35197 26.1589 3.55988 26.5215C3.7678 26.8842 4.05904 27.1922 4.40955 27.42C5.07033 27.7841 5.60524 27.4785 5.60524 26.7143Z"
          fill="#EDEDED"/>
    <path d="M7.57433 27.6031C7.57212 27.2293 7.52839 26.8569 7.44397 26.4928C7.11254 25.1498 6.40086 23.9309 5.39423 22.9822C5.12091 22.7256 4.81931 22.5009 4.49521 22.3124C4.15342 22.1082 3.77453 21.9737 3.38044 21.9168C2.24319 21.773 1.43858 22.5821 1.43858 24.0745V24.7667L0.669922 24.3172V18.1635L3.1467 13.3448C3.22716 13.1804 3.35365 13.043 3.5108 12.9492C3.71576 12.8557 3.94184 12.818 4.16605 12.8401C4.39027 12.8623 4.60464 12.9433 4.78739 13.0751L9.95671 16.0643C10.2263 16.2381 10.4508 16.4733 10.6117 16.7507C10.7727 17.0281 10.8656 17.3398 10.8827 17.66V30.2102L7.57433 28.3178V27.6031Z"
          fill="#27AE60"/>
    <path d="M10.1363 28.3412C10.1355 28.3973 10.1203 28.4521 10.092 28.5005C10.0637 28.5489 10.0234 28.589 9.9749 28.6171C9.92642 28.6452 9.87148 28.6602 9.81546 28.6607C9.75943 28.6612 9.70424 28.6472 9.65528 28.6199L8.72031 28.0805C8.60264 28.0126 8.50341 27.9168 8.43132 27.8016C8.35923 27.6864 8.31646 27.5553 8.30677 27.4197C8.28862 27.0548 8.24657 26.6914 8.1809 26.3319C7.8233 24.842 7.04282 23.4871 5.93338 22.4302C5.74643 22.2556 5.54822 22.0934 5.34003 21.9448C5.2088 21.8526 5.10183 21.7301 5.02825 21.5876C4.95467 21.4452 4.91667 21.287 4.91749 21.1267V20.3535L10.1363 23.3742V28.3412Z"
          fill="#219653"/>
    <path d="M3.82055 14.6129L4.2296 14.8466C4.30928 14.8883 4.37608 14.9509 4.42281 15.0278C4.46954 15.1046 4.49443 15.1927 4.49481 15.2826V20.0968L1.45166 18.3528L3.28115 14.7567C3.30631 14.711 3.34046 14.6709 3.38153 14.6388C3.42261 14.6066 3.46976 14.5831 3.52016 14.5697C3.57055 14.5563 3.62314 14.5532 3.67477 14.5606C3.7264 14.568 3.77599 14.5858 3.82055 14.6129Z"
          fill="#3E839A"/>
    <path opacity="0.3"
          d="M3.45219 14.8598C3.46869 14.8275 3.49378 14.8003 3.5247 14.7813C3.55563 14.7623 3.59119 14.7521 3.6275 14.752C3.66229 14.7519 3.69645 14.7612 3.72639 14.7789L4.13544 15.0172C4.18074 15.0428 4.21838 15.08 4.24446 15.1251C4.27054 15.1701 4.28411 15.2213 4.28378 15.2734V16.6219C3.4904 17.1366 2.87141 17.8794 2.50823 18.7526L1.70361 18.303L3.45219 14.8598Z"
          fill="white"/>
    <path d="M10.1362 18.574V23.3748L4.91748 20.3631V15.6927C4.91809 15.6477 4.93036 15.6036 4.95308 15.5647C4.9758 15.5258 5.0082 15.4935 5.04713 15.4709C5.08606 15.4482 5.13018 15.4361 5.17521 15.4356C5.22023 15.4351 5.26462 15.4462 5.30406 15.468L9.86204 18.0976C9.94473 18.1468 10.0134 18.2165 10.0614 18.3C10.1094 18.3834 10.1352 18.4778 10.1362 18.574Z"
          fill="#3E839A"/>
    <path opacity="0.3"
          d="M8.14051 17.329C6.88639 17.7381 5.92894 19.0461 5.6053 20.5295L5.11084 20.2283V16.1558C5.31083 16.0684 5.51659 15.9948 5.72666 15.9355L8.14051 17.329Z"
          fill="white"/>
    <path opacity="0.3"
          d="M5.18276 15.6328H5.20973L5.72666 15.934C5.51659 15.9932 5.31083 16.0668 5.11084 16.1542V15.7047C5.11084 15.6553 5.13781 15.6328 5.18276 15.6328Z"
          fill="white"/>
    <path d="M19.1265 35.4212L22.2101 34.0188L30.0899 38.5723L25.7477 30.9082L19.1265 33.6277V35.4212Z" fill="#202533"/>
    <path d="M21.7065 33.8307C21.7538 34.6706 21.9719 35.4922 22.3475 36.245C22.7231 36.9978 23.2484 37.666 23.8911 38.2088C24.0701 38.3577 24.261 38.4915 24.462 38.6089C25.2891 39.1079 26.0308 39.1079 26.5207 38.7168C26.7616 38.5082 26.9496 38.2454 27.0692 37.95C27.1887 37.6546 27.2365 37.3351 27.2085 37.0177C27.1563 36.0603 26.8792 35.1288 26.3997 34.2986C25.9202 33.4684 25.2517 32.7629 24.4485 32.2394C24.1898 32.0589 23.8924 31.9416 23.58 31.8971C23.2677 31.8526 22.9493 31.8821 22.6505 31.9832C22.0706 32.2349 21.7065 32.8777 21.7065 33.8307Z"
          fill="#202533"/>
    <path d="M22.5152 32.0478L20.5649 33.1738L24.4622 39.924L26.4125 38.798L22.5152 32.0478Z" fill="#202533"/>
    <path d="M24.5836 39.8443C24.8243 39.6346 25.0121 39.3709 25.1316 39.0749C25.2511 38.7789 25.299 38.4588 25.2714 38.1407C25.2192 37.1834 24.9421 36.2519 24.4626 35.4217C23.9831 34.5915 23.3146 33.886 22.5114 33.3625C22.2521 33.1832 21.9547 33.0667 21.6426 33.0223C21.3306 32.9778 21.0124 33.0066 20.7134 33.1063C20.138 33.358 19.7739 34.0053 19.7739 34.9582C19.8212 35.7982 20.0393 36.6197 20.4149 37.3725C20.7905 38.1253 21.3158 38.7936 21.9585 39.3364C22.1397 39.4823 22.3304 39.6159 22.5294 39.7365C23.3385 40.2129 24.0802 40.2174 24.5836 39.8443ZM20.7718 35.5426C20.7718 34.4323 21.554 33.9828 22.5114 34.5402C23.0222 34.8683 23.4482 35.3126 23.7544 35.8368C24.0607 36.361 24.2385 36.9502 24.2735 37.5564C24.2735 38.6576 23.4734 39.1071 22.5114 38.5588C22.0053 38.2276 21.5841 37.7821 21.2819 37.2581C20.9797 36.7342 20.805 36.1465 20.7718 35.5426Z"
          fill="#3C3C3B"/>
    <path d="M24.2732 37.5563C24.2403 36.9518 24.0652 36.3636 23.7621 35.8395C23.4591 35.3154 23.0366 34.8702 22.5291 34.5401C21.5717 33.9827 20.7896 34.4322 20.7896 35.5425C20.8227 36.1465 20.9974 36.7341 21.2996 37.2581C21.6018 37.782 22.023 38.2276 22.5291 38.5587C23.4731 39.1071 24.2732 38.6576 24.2732 37.5563ZM21.3335 35.8572C21.3335 35.0975 21.8729 34.7873 22.5291 35.1694C22.8774 35.3965 23.1671 35.7024 23.3749 36.0625C23.5826 36.4226 23.7025 36.8265 23.7248 37.2416C23.7248 38.0013 23.1899 38.3115 22.5291 37.9294C22.1783 37.7035 21.8856 37.3983 21.6748 37.0382C21.4639 36.6782 21.3408 36.2736 21.3155 35.8572H21.3335Z"
          fill="#219653"/>
    <path d="M23.7068 37.2418C23.6845 36.8267 23.5646 36.4227 23.3568 36.0626C23.1491 35.7026 22.8593 35.3966 22.5111 35.1695C21.8548 34.7875 21.3154 35.0976 21.3154 35.8573C21.3388 36.2721 21.4591 36.6757 21.6668 37.0356C21.8745 37.3955 22.1636 37.7017 22.5111 37.9295C23.1719 38.3116 23.7068 38.0014 23.7068 37.2418Z"
          fill="#EDEDED"/>
    <path d="M27.8018 37.3532C27.8498 38.1934 28.0687 39.0151 28.4451 39.7678C28.8215 40.5206 29.3475 41.1887 29.9909 41.7313C30.169 41.8812 30.3601 42.0151 30.5617 42.1314C31.3888 42.6079 32.126 42.6169 32.6339 42.2438C32.8732 42.0331 33.0597 41.7692 33.1784 41.4733C33.2971 41.1774 33.3446 40.8578 33.3172 40.5402C33.2675 39.5833 32.9923 38.6517 32.5143 37.8214C32.0362 36.991 31.3687 36.2854 30.5662 35.7619C30.3066 35.5833 30.0092 35.4672 29.6973 35.4228C29.3853 35.3783 29.0673 35.4067 28.7682 35.5057C28.1659 35.7574 27.8018 36.4092 27.8018 37.3532Z"
          fill="#2B2B2B"/>
    <path d="M28.6119 35.5713L26.6616 36.6973L30.5588 43.4474L32.5091 42.3214L28.6119 35.5713Z" fill="#202533"/>
    <path d="M30.6832 43.3677C30.9245 43.1584 31.1126 42.8948 31.2322 42.5986C31.3518 42.3025 31.3993 41.9822 31.371 41.664C31.3181 40.7075 31.0407 39.7769 30.5612 38.9475C30.0817 38.1181 29.4136 37.4134 28.611 36.8903C28.3525 36.7094 28.055 36.592 27.7426 36.5474C27.4302 36.5029 27.1118 36.5326 26.813 36.6341C26.2376 36.8858 25.8735 37.5331 25.8735 38.4815C25.9216 39.3218 26.1405 40.1434 26.5169 40.8962C26.8933 41.649 27.4193 42.3171 28.0626 42.8597C28.2408 43.0096 28.4318 43.1434 28.6335 43.2598C29.4381 43.7363 30.1753 43.7408 30.6832 43.3677ZM26.8714 39.0704C26.8714 37.9601 27.6491 37.5061 28.611 38.0635C29.1179 38.3938 29.5397 38.8392 29.842 39.3633C30.1443 39.8874 30.3185 40.4755 30.3506 41.0797C30.3506 42.19 29.573 42.6395 28.611 42.0821C28.1042 41.7527 27.6824 41.3082 27.3801 40.7848C27.0778 40.2614 26.9035 39.674 26.8714 39.0704Z"
          fill="#3C3C3B"/>
    <path d="M30.3508 41.0808C30.3187 40.4766 30.1444 39.8885 29.8421 39.3644C29.5398 38.8403 29.1181 38.3949 28.6112 38.0646C27.6492 37.5072 26.8716 37.9612 26.8716 39.0715C26.9036 39.6751 27.0779 40.2625 27.3803 40.7859C27.6826 41.3093 28.1044 41.7538 28.6112 42.0832C29.5731 42.6406 30.3508 42.191 30.3508 41.0808ZM27.42 39.3861C27.42 38.622 27.9549 38.3118 28.6157 38.6939C28.9639 38.9209 29.2536 39.2269 29.4614 39.587C29.6691 39.947 29.789 40.351 29.8113 40.7661C29.8113 41.5258 29.2764 41.8359 28.6157 41.4539C28.2675 41.2278 27.9778 40.9226 27.77 40.5633C27.5622 40.204 27.4423 39.8006 27.42 39.3861Z"
          fill="#219653"/>
    <path d="M29.8069 40.7651C29.7846 40.35 29.6647 39.946 29.4569 39.5859C29.2492 39.2259 28.9594 38.9199 28.6112 38.6929C27.9504 38.3108 27.4155 38.6209 27.4155 39.3851C27.4378 39.7996 27.5577 40.2029 27.7655 40.5623C27.9733 40.9216 28.2631 41.2268 28.6112 41.4528C29.272 41.8349 29.8069 41.5248 29.8069 40.7651Z"
          fill="#EDEDED"/>
    <path d="M34.2028 39.4535V44.1374L31.735 42.7035C31.6775 41.6595 31.3754 40.6436 30.853 39.7379C30.3307 38.8321 29.6027 38.0618 28.7279 37.4892L22.1336 33.6774C20.4749 32.7244 19.1264 33.5021 19.1264 35.4215L10.7881 30.6297V25.9414L34.2028 39.4535Z"
          fill="#032936"/>
    <path d="M48.2856 31.3574L34.2026 39.453V44.1369L48.2856 36.0053V31.3574Z" fill="#032936"/>
    <path d="M34.7334 23.7964V41.2507L50.992 31.8605V14.4062L34.7334 23.7964Z" fill="#4E687C"/>
    <path d="M35.4888 24.2324V39.9336L50.237 31.4245V15.7188L36.635 23.5716L35.4888 24.2324Z" fill="#42A8C9"/>
    <path d="M46.4161 34.8356C46.5195 34.7727 46.6094 34.8356 46.6094 34.9435V36.4898C46.6038 36.5561 46.5835 36.6203 46.5501 36.6778C46.5167 36.7353 46.4709 36.7847 46.4161 36.8224L45.998 37.0651V35.0603L46.4161 34.8356Z"
          fill="white"/>
    <path d="M44.0517 36.1935L45.9846 35.0742V37.0655L44.0517 38.1803C43.9438 38.2432 43.8584 38.1803 43.8584 38.0679V36.5261C43.8613 36.4592 43.8803 36.3939 43.914 36.336C43.9477 36.278 43.9949 36.2291 44.0517 36.1935Z"
          fill="#E8452E"/>
    <path d="M43.7683 38.0692V36.5274C43.7709 36.4424 43.7944 36.3594 43.8367 36.2857C43.8791 36.212 43.939 36.1499 44.011 36.1049L46.3619 34.7563C46.3961 34.7309 46.437 34.716 46.4795 34.7133C46.522 34.7107 46.5644 34.7204 46.6015 34.7413C46.6386 34.7622 46.6689 34.7935 46.6886 34.8313C46.7083 34.869 46.7166 34.9117 46.7126 34.9541V36.5004C46.7087 36.5856 46.6842 36.6686 46.6411 36.7422C46.598 36.8158 46.5377 36.8779 46.4653 36.923L44.1189 38.2715C44.0767 38.2967 44.0287 38.3106 43.9796 38.3119C43.9492 38.3115 43.9192 38.3047 43.8917 38.292C43.8641 38.2792 43.8396 38.2608 43.8196 38.2378C43.7997 38.2149 43.7848 38.1881 43.7759 38.159C43.7671 38.1299 43.7645 38.0993 43.7683 38.0692ZM46.4653 34.9272L44.1189 36.2757C44.0777 36.3021 44.0432 36.3379 44.0183 36.38C43.9933 36.4222 43.9785 36.4695 43.9751 36.5184V38.0602C43.9738 38.0722 43.9738 38.0842 43.9751 38.0962H44.0065L46.3574 36.7477C46.3974 36.7202 46.4306 36.6841 46.4547 36.6421C46.4788 36.6001 46.4932 36.5532 46.4968 36.5049V34.9137L46.4653 34.9272Z"
          fill="white"/>
    <path d="M38.4237 39.4312C38.5315 39.3728 38.6169 39.4312 38.6169 39.5436V41.0899C38.6113 41.1562 38.5911 41.2204 38.5577 41.2779C38.5243 41.3355 38.4785 41.3848 38.4237 41.4225L36.5537 42.5013V40.5145L38.4237 39.4312Z"
          fill="#E8452E"/>
    <path d="M36.0731 40.7879L36.554 40.5137V42.5005L36.0731 42.7792C35.9697 42.8376 35.8843 42.7792 35.8843 42.6668V41.1205C35.8893 41.0546 35.9089 40.9906 35.9415 40.9331C35.9742 40.8756 36.0191 40.826 36.0731 40.7879Z"
          fill="white"/>
    <path d="M35.7761 42.6682V41.1219C35.7799 41.0367 35.8045 40.9537 35.8475 40.8801C35.8906 40.8065 35.9509 40.7445 36.0233 40.6994L38.3742 39.3508C38.4087 39.3265 38.4496 39.3126 38.4918 39.3107C38.534 39.3089 38.5759 39.3193 38.6123 39.3406C38.6488 39.362 38.6784 39.3933 38.6976 39.431C38.7167 39.4687 38.7246 39.5111 38.7203 39.5531V41.0994C38.717 41.1842 38.6931 41.2669 38.6509 41.3405C38.6086 41.4141 38.5491 41.4763 38.4776 41.522L36.1267 42.8705C36.0847 42.8962 36.0366 42.9102 35.9873 42.9109C35.9572 42.9099 35.9276 42.9026 35.9003 42.8896C35.8731 42.8766 35.8488 42.8582 35.829 42.8354C35.8092 42.8127 35.7943 42.7861 35.7852 42.7573C35.7761 42.7285 35.773 42.6982 35.7761 42.6682ZM38.4776 39.5217L36.1267 40.8702C36.0872 40.8981 36.0543 40.9343 36.0302 40.9762C36.0062 41.0181 35.9915 41.0648 35.9873 41.1129V42.6592C35.9863 42.6697 35.9863 42.6802 35.9873 42.6907C35.9976 42.6935 36.0085 42.6935 36.0188 42.6907L38.3697 41.3422C38.4091 41.3152 38.442 41.2798 38.4661 41.2386C38.4901 41.1974 38.5048 41.1514 38.5091 41.1039V39.5576C38.5106 39.5472 38.5106 39.5366 38.5091 39.5262L38.4776 39.5217Z"
          fill="white"/>
    <path d="M2.4766 19.6834C2.51483 19.6829 2.55158 19.6685 2.57998 19.6429C2.6081 19.6122 2.62369 19.5721 2.62369 19.5305C2.62369 19.4889 2.6081 19.4488 2.57998 19.4182L1.8383 18.5866C1.82575 18.5681 1.80939 18.5525 1.79033 18.5408C1.77127 18.5291 1.74994 18.5216 1.72776 18.5188C1.70557 18.516 1.68305 18.518 1.66169 18.5246C1.64032 18.5312 1.62061 18.5423 1.60387 18.5571C1.58712 18.5719 1.57373 18.5901 1.56457 18.6105C1.55542 18.6309 1.55072 18.653 1.55078 18.6754C1.55085 18.6977 1.55568 18.7198 1.56495 18.7402C1.57422 18.7605 1.58772 18.7786 1.60456 18.7933L2.35973 19.6294C2.37411 19.6464 2.39202 19.66 2.41221 19.6693C2.43239 19.6786 2.45437 19.6834 2.4766 19.6834Z"
          fill="#219653"/>
    <path d="M2.25626 15.7249L2.0405 15.6035L1.93262 15.7384L2.14838 15.9586L2.25626 15.7249Z" fill="#27AE60"/>
    <path d="M2.04064 15.601C2.01467 15.586 1.98522 15.5781 1.95524 15.5781C1.92525 15.5781 1.8958 15.586 1.86983 15.601L0.898898 16.1809C0.827868 16.227 0.768823 16.2894 0.726622 16.3629C0.684421 16.4364 0.660273 16.5188 0.656165 16.6034V18.9229C0.653062 18.9531 0.658093 18.9836 0.670736 19.0113C0.68338 19.039 0.703178 19.0627 0.728085 19.0802C0.753724 19.0961 0.783307 19.1046 0.813491 19.1046C0.843676 19.1046 0.873259 19.0961 0.898898 19.0802L1.85185 18.5318C1.92288 18.4856 1.98192 18.4232 2.02412 18.3498C2.06633 18.2763 2.09047 18.1939 2.09458 18.1093V15.7583C2.10067 15.7297 2.09887 15.6999 2.08937 15.6722C2.07987 15.6445 2.06303 15.6199 2.04064 15.601Z"
          fill="#27AE60"/>
    <path d="M0.957361 19.2036L0.746094 19.0822L0.993322 18.8125L1.16413 18.9563L0.957361 19.2036Z" fill="#27AE60"/>
    <path d="M2.24744 15.7332C2.22094 15.7173 2.19065 15.709 2.15978 15.709C2.12892 15.709 2.09863 15.7173 2.07213 15.7332L1.12817 16.2906C1.05714 16.3368 0.998095 16.3991 0.955894 16.4726C0.913693 16.5461 0.889545 16.6285 0.885437 16.7131V19.046C0.881841 19.0763 0.886648 19.107 0.899333 19.1348C0.912018 19.1625 0.932092 19.1863 0.957358 19.2034C0.982996 19.2193 1.01258 19.2277 1.04276 19.2277C1.07295 19.2277 1.10253 19.2193 1.12817 19.2034L2.08112 18.655C2.15215 18.6088 2.2112 18.5464 2.2534 18.473C2.2956 18.3995 2.31975 18.3171 2.32385 18.2324V15.8815C2.32405 15.8525 2.3172 15.8238 2.3039 15.798C2.29059 15.7721 2.27122 15.7499 2.24744 15.7332Z"
          fill="#219653"/>
    <path d="M1.02044 19.1258C1.04112 19.1308 1.06268 19.1308 1.08337 19.1258L2.03632 18.5774C2.09858 18.5386 2.15038 18.4851 2.18721 18.4217C2.22403 18.3582 2.24476 18.2867 2.24759 18.2133V15.8804C2.25691 15.8558 2.25691 15.8286 2.24759 15.804C2.22258 15.7971 2.19618 15.7971 2.17117 15.804L1.17776 16.3704C1.12097 16.4085 1.07364 16.4591 1.03936 16.5183C1.00509 16.5775 0.984779 16.6438 0.97998 16.712V19.0449C0.97998 19.0899 0.97998 19.1124 1.00695 19.1213L1.02044 19.1258Z"
          fill="#3E839A"/>
    <path opacity="0.3"
          d="M1.17334 16.7121C1.17721 16.6784 1.18799 16.6458 1.205 16.6164C1.22201 16.587 1.2449 16.5615 1.27223 16.5413L2.03639 16.0918V16.2986C1.43855 16.8694 1.42506 17.71 1.52845 18.6225L1.17334 18.8293V16.7121Z"
          fill="white"/>
    <path d="M36.6348 23.5716L39.116 25.0055L40.2308 25.6438L50.2368 31.4245V15.7188L36.6348 23.5716Z" fill="#043F52"/>
    <path d="M43.5214 35.1108L42.9191 35.4569C42.8446 35.5063 42.7833 35.573 42.7402 35.6513C42.6971 35.7296 42.6737 35.8171 42.6719 35.9064V36.356L43.7687 35.7266V35.2771C43.7687 35.0928 43.6563 35.0299 43.5214 35.1108Z"
          fill="#202533"/>
    <path d="M34.7285 23.7964V41.2507L50.9961 31.8605V14.4062L34.7285 23.7964ZM35.4882 24.2459L36.6344 23.5852L50.2365 15.7323V31.4245L35.5107 39.9337L35.4882 24.2459Z"
          fill="#4E687C"/>
    <path d="M34.3425 41.3363L31.3712 46.9012H30.9937V29.4424L34.3425 23.873L34.7335 23.8775L34.3425 41.3363Z"
          fill="#42A8C9"/>
    <path d="M50.9964 19.0197C51.0352 19.0197 51.0735 19.012 51.1093 18.9971C51.145 18.9821 51.1774 18.9602 51.2046 18.9326C51.2318 18.905 51.2532 18.8722 51.2677 18.8362C51.2821 18.8003 51.2892 18.7618 51.2886 18.7231V16.3676C51.2797 16.2958 51.2449 16.2297 51.1906 16.1818C51.1364 16.1339 51.0665 16.1074 50.9942 16.1074C50.9218 16.1074 50.8519 16.1339 50.7977 16.1818C50.7435 16.2297 50.7086 16.2958 50.6997 16.3676V18.7231C50.6991 18.7622 50.7064 18.801 50.7211 18.8373C50.7358 18.8736 50.7576 18.9065 50.7853 18.9342C50.813 18.9619 50.8459 18.9837 50.8822 18.9984C50.9184 19.0131 50.9573 19.0203 50.9964 19.0197Z"
          fill="#42A8C9"/>
    <path d="M50.9967 30.5088C51.0746 30.5076 51.1489 30.4759 51.2036 30.4204C51.2582 30.3649 51.2889 30.2901 51.2889 30.2122V27.8702C51.294 27.8285 51.2903 27.7862 51.2778 27.746C51.2654 27.7059 51.2446 27.6688 51.2167 27.6373C51.1889 27.6058 51.1547 27.5806 51.1163 27.5633C51.078 27.546 51.0365 27.5371 50.9944 27.5371C50.9524 27.5371 50.9108 27.546 50.8725 27.5633C50.8342 27.5806 50.8 27.6058 50.7721 27.6373C50.7443 27.6688 50.7235 27.7059 50.711 27.746C50.6986 27.7862 50.6948 27.8285 50.7 27.8702V30.2256C50.7035 30.302 50.7363 30.374 50.7915 30.4268C50.8468 30.4795 50.9203 30.5089 50.9967 30.5088Z"
          fill="#42A8C9"/>
    <path d="M34.7287 28.7184C34.7678 28.719 34.8067 28.7117 34.8429 28.697C34.8792 28.6823 34.9122 28.6605 34.9398 28.6328C34.9675 28.6051 34.9893 28.5722 35.004 28.5359C35.0187 28.4997 35.026 28.4608 35.0254 28.4217V26.0708C35.0165 25.999 34.9816 25.9329 34.9274 25.8849C34.8732 25.837 34.8033 25.8105 34.7309 25.8105C34.6586 25.8105 34.5887 25.837 34.5345 25.8849C34.4803 25.9329 34.4454 25.999 34.4365 26.0708V28.4262C34.4365 28.5037 34.4673 28.578 34.5221 28.6328C34.5769 28.6876 34.6512 28.7184 34.7287 28.7184Z"
          fill="#42A8C9"/>
    <path d="M34.729 40.2079C34.8077 40.2079 34.8831 40.1766 34.9388 40.121C34.9944 40.0653 35.0257 39.9899 35.0257 39.9112V37.5558C35.0308 37.5141 35.0271 37.4717 35.0146 37.4316C35.0022 37.3914 34.9814 37.3544 34.9535 37.3229C34.9257 37.2914 34.8915 37.2661 34.8532 37.2489C34.8148 37.2316 34.7733 37.2227 34.7312 37.2227C34.6892 37.2227 34.6476 37.2316 34.6093 37.2489C34.571 37.2661 34.5368 37.2914 34.5089 37.3229C34.4811 37.3544 34.4603 37.3914 34.4479 37.4316C34.4354 37.4717 34.4317 37.5141 34.4368 37.5558V39.9112C34.4368 39.9891 34.4674 40.0639 34.5221 40.1194C34.5768 40.1749 34.6511 40.2067 34.729 40.2079Z"
          fill="#42A8C9"/>
    <path d="M34.8052 24.1957V27.3423L35.8031 27.9176L36.5043 28.3222L37.7584 29.0594V25.9128L37.4438 25.7285L37.282 25.6206L36.5268 25.1711L35.83 24.7756L34.8052 24.1777V24.1957Z"
          fill="#C1AF93"/>
    <path d="M42.2895 23.2754V26.4399L37.7495 29.0605V25.9005L42.2895 23.2754Z" fill="#EDAD69"/>
    <path d="M34.792 24.2058L35.8259 24.7946L36.5226 25.1947L37.2823 25.6442L37.7318 25.9094L40.9232 24.0709L42.2718 23.2933L40.9232 22.5246L40.2265 22.1246L39.332 21.5762L34.8055 24.1968L34.792 24.2058Z"
          fill="#FFC98F"/>
    <path d="M35.8032 24.8078V27.9543L36.5045 28.3589V25.2123L40.9501 22.5153L40.2533 22.1152L35.8302 24.8123L35.8032 24.8078Z"
          fill="white"/>
    <path d="M42.8291 27.9863V31.8791L44.6811 30.8137L45.1261 30.553L46.5735 29.7169V25.8242L45.1126 26.6693L44.6766 26.921L42.8291 27.9863Z"
          fill="#DAC6A7"/>
    <path d="M42.8291 27.9863V31.8791L44.6811 30.8137L45.1261 30.553L46.5735 29.7169V25.8242L45.1126 26.6693L44.6766 26.921L42.8291 27.9863Z"
          fill="#EDAD69"/>
    <path d="M39.0894 25.8242V29.7169L40.6491 30.6204L41.0941 30.8767L42.8292 31.8791V27.9863L41.0941 26.9839L40.6491 26.7277L39.0894 25.8242Z"
          fill="#C1AF93"/>
    <path d="M39.0894 25.8242V29.7169L40.6491 30.6204L41.0941 30.8767L42.8292 31.8791V27.9863L41.0941 26.9839L40.6491 26.7277L39.0894 25.8242Z"
          fill="#C79158"/>
    <path d="M39.1074 25.8281L40.6672 26.7271L41.1167 26.9834L42.8518 27.9858L44.6993 26.9204L45.1488 26.6687L46.6007 25.8281L44.7397 24.7673L44.2902 24.5156L42.8203 23.666L41.4718 24.4527L41.0223 24.7089L39.1074 25.8281Z"
          fill="#FFECC7"/>
    <path d="M39.1074 25.8281L40.6672 26.7271L41.1167 26.9834L42.8518 27.9858L44.6993 26.9204L45.1488 26.6687L46.6007 25.8281L44.7397 24.7673L44.2902 24.5156L42.8203 23.666L41.4718 24.4527L41.0223 24.7089L39.1074 25.8281Z"
          fill="#FFC98F"/>
    <path d="M40.6489 26.7272V30.6199L41.0939 30.8761V26.9789L42.9324 25.8641L43.3594 25.6034L44.7394 24.7673L44.2989 24.5156L42.9324 25.3427L42.5009 25.6034L40.6489 26.7272Z"
          fill="white"/>
    <path d="M41.0264 24.7236L42.5007 25.6226L42.9503 25.8833L44.6943 26.9397V30.8324L45.1438 30.5717V26.6745L43.3593 25.6226L42.9323 25.3619L41.4624 24.4629L41.0264 24.7236Z"
          fill="white"/>
    <path d="M36.7739 29.1373V33.6818L38.6574 32.603L39.3586 32.1984L41.0218 31.2365V26.6875L39.3586 27.6494L38.6574 28.054L36.7739 29.1373Z"
          fill="#EDAD69"/>
    <path d="M30.2519 25.3695V29.914L31.5734 30.6782L32.2791 31.0828L34.639 32.4313L35.3403 32.8358L36.7742 33.6674V29.1364L35.3403 28.3183L34.6435 27.9182L32.2791 26.5203L31.5824 26.1202L30.2339 25.3516L30.2519 25.3695Z"
          fill="#C79158"/>
    <path d="M30.2563 25.3691L31.6049 26.1378L32.3016 26.5379L34.666 27.9088L35.3627 28.3089L36.7967 29.136L38.6576 28.0662L39.3588 27.6616L41.022 26.7087L39.4802 25.8097L38.788 25.4096L36.4191 24.0611L35.7223 23.661L34.4997 22.9238L33.0163 23.7734L32.3196 24.1735L30.2563 25.3691Z"
          fill="#FFC98F"/>
    <path d="M32.3198 24.1872L33.5605 24.9378L34.2437 25.3514L36.5542 26.7538L37.2329 27.1629L38.6579 28.017V32.6019L39.3591 32.1974V27.6214L37.9252 26.7538L37.2464 26.3403L34.9315 24.9378L34.2572 24.5288L33.03 23.7871L32.3198 24.1872Z"
          fill="white"/>
    <path d="M34.6392 27.9133V32.4443L35.3404 32.8489V28.3179L37.2328 27.1716L37.9116 26.7626L39.4669 25.8141L38.7746 25.4141L37.2328 26.34L36.5541 26.7536L34.6437 27.9088L34.6392 27.9133Z"
          fill="white"/>
    <path d="M31.5781 26.1424V30.6779L32.2794 31.0825V26.538L34.2392 25.3513L34.918 24.9377L36.4058 24.0387L35.7091 23.6387L34.2392 24.5287L33.5604 24.9377L31.5826 26.1379L31.5781 26.1424Z"
          fill="white"/>
    <path d="M34.0278 31.9141V35.0606L35.0257 35.6405L35.7315 36.045L36.9721 36.7642V33.6177L36.6574 33.4379L36.5046 33.348L35.7539 32.8985L35.0617 32.5074L34.0323 31.9141H34.0278Z"
          fill="#C79158"/>
    <path d="M41.5122 30.9922V34.1567L36.9722 36.7773V33.6128L41.5122 30.9922Z" fill="#EDAD69"/>
    <path d="M34.0142 31.9159L35.0615 32.5138L35.7582 32.9138L36.5179 33.3633L36.9674 33.633L40.1589 31.7901L41.5074 31.0124L40.1589 30.2482L39.4622 29.8482L38.5632 29.3223L34.0321 31.9159H34.0142Z"
          fill="#FFC98F"/>
    <path d="M35.0259 32.5265V35.6731L35.7316 36.0776V32.9311L40.1727 30.234L39.476 29.834L35.0573 32.531L35.0259 32.5265Z"
          fill="white"/>
    <path d="M34.715 41.3357L31.3707 46.9006L31.3662 29.4418L34.733 23.877L34.715 41.3357Z" fill="#3E839A"/>
    <path d="M9.68652 9.33594V26.7902L34.733 41.2508V23.7965L9.68652 9.33594Z" fill="#043F52"/>
    <path d="M25.9991 0L50.9916 14.4067L34.733 23.7968L9.68652 9.33623L25.9991 0Z" fill="#42A8C9"/>
    <path d="M34.7285 23.7964V41.2507L50.9961 31.8605V14.4062L34.7285 23.7964ZM35.4882 24.2459L36.6344 23.5852L50.2365 15.7323V31.4245L35.5107 39.9337L35.4882 24.2459Z"
          fill="#3E839A"/>
</svg>
